<?xml version="1.0" encoding="UTF-8" standalone="no"?>
<!-- Created with Inkscape (http://www.inkscape.org/) -->

<svg
   width="94.48597mm"
   height="91.403305mm"
   viewBox="0 0 94.485969 91.403305"
   version="1.1"
   id="svg5"
   xml:space="preserve"
   sodipodi:docname="a_rough.svg"
   inkscape:version="1.2.2 (b0a8486541, 2022-12-01)"
   xmlns:inkscape="http://www.inkscape.org/namespaces/inkscape"
   xmlns:sodipodi="http://sodipodi.sourceforge.net/DTD/sodipodi-0.dtd"
   xmlns="http://www.w3.org/2000/svg"
   xmlns:svg="http://www.w3.org/2000/svg"><sodipodi:namedview
     id="namedview7"
     pagecolor="#505050"
     bordercolor="#eeeeee"
     borderopacity="1"
     inkscape:showpageshadow="0"
     inkscape:pageopacity="0"
     inkscape:pagecheckerboard="0"
     inkscape:deskcolor="#505050"
     inkscape:document-units="mm"
     showgrid="false"
     inkscape:zoom="2.4055876"
     inkscape:cx="124.29396"
     inkscape:cy="172.93072"
     inkscape:window-width="1920"
     inkscape:window-height="1011"
     inkscape:window-x="0"
     inkscape:window-y="0"
     inkscape:window-maximized="1"
     inkscape:current-layer="svg5" /><defs
     id="defs2"><inkscape:path-effect
       effect="roughen"
       id="path-effect1189"
       is_visible="true"
       lpeversion="1.2"
       method="size"
       max_segment_size="0.25"
       segments="11"
       displace_x="0.5;998244351"
       displace_y="0.5;613923738"
       global_randomize="0.7;620273390"
       handles="along"
       shift_nodes="true"
       fixed_displacement="true"
       spray_tool_friendly="false" /></defs><path
     style="display:inline;fill:#000000;stroke-width:0.264583"
     d="m 35.952174,91.074158 -0.22405,-0.04216 -0.264106,0.101467 -0.273036,0.08655 -0.237334,0.07573 -0.238783,0.07589 -0.338966,0.03167 -0.220572,-0.05497 -0.251925,-0.05531 -0.158532,0.04768 -0.388078,-0.01478 -0.168633,0.03942 -0.213459,-0.09657 -0.352601,-0.0075 -0.152483,-0.05948 -0.333518,0.04047 -0.230979,0.0051 -0.128854,-0.01206 -0.358281,-0.0655 -0.254092,0.03978 -0.224902,-0.07963 -0.210311,0.02441 -0.239736,-0.06008 -0.154105,-0.07339 -0.223702,0.06135 -0.288798,-0.0343 -0.146205,0.01436 -0.296495,-0.03443 -0.09964,-0.03657 -0.177859,-0.03785 -0.311856,-0.154726 -0.181856,-0.07201 -0.178475,0.02392 -0.386195,0.06995 -0.139713,0.0435 -0.193654,-0.02327 -0.271966,-0.04202 -0.138747,-0.186734 -0.237112,-0.231516 -0.155903,-0.06091 -0.224198,-1.15e-4 -0.439887,-0.114076 -0.109327,0.08047 -0.241778,0.02152 -0.288843,-0.03076 -0.16641,-0.116249 -0.130221,-0.05022 -0.27765,-0.171799 -0.206326,-0.08076 -0.31719,0.08038 -0.239369,-0.102419 -0.231223,-0.02434 -0.135427,0.02696 -0.199052,0.02627 -0.300751,0.0014 -0.151411,-0.03642 -0.246034,-0.09919 -0.131176,-0.09511 -0.22703,-0.195847 -0.309582,-0.06708 -0.165582,-0.0076 -0.150044,-0.137168 -0.236394,0.01942 -0.219437,-0.05631 -0.262716,-0.149129 -0.202021,-0.06582 -0.221277,-0.08873 -0.17692,-0.01502 -0.182487,-0.186431 -0.161687,-0.12502 -0.213851,0.03298 -0.229654,-0.02614 -0.219817,-0.05358 -0.285385,-0.06807 -0.365137,-0.191641 -0.155864,-0.208485 -0.05662,-0.119809 -0.314237,-0.118674 -0.205272,-0.09957 -0.16026,-0.144457 -0.315554,-0.07877 -0.161071,-0.01278 -0.17398,-0.172251 -0.325742,-0.0939 -0.102136,-0.07718 -0.285532,-0.172285 -0.145404,-0.06282 -0.298111,-0.202708 -0.13417,0.08455 -0.206833,-0.04681 -0.216827,-0.07294 -0.260211,-0.307861 -0.135612,-0.02968 -0.23893,-0.139484 -0.188516,-0.05185 -0.238216,-0.236136 -0.150571,-0.110363 -0.154468,-0.153383 -0.221411,-0.05348 -0.195151,-0.04966 -0.166215,-0.200045 -0.0807,-0.07421 -0.136241,-0.147427 -0.168031,-0.0739 -0.15756,-0.169784 -0.201503,-0.166807 -0.126989,-0.05789 -0.187359,-0.03709 -0.378883,-0.05707 -0.237643,-0.175151 -0.09498,-0.153058 -0.08733,-0.130244 -0.26603,-0.258908 -0.14175,-0.0542 -0.144316,-0.209251 -0.12302,-0.172606 -0.20691,-0.04081 -0.206251,-0.243838 -0.158928,-0.14106 -0.251189,-0.137082 -0.18191,-0.0904 -0.174112,-0.0675 -0.09993,-0.149127 L 9.7880611,82.419775 9.6823244,82.228386 9.4985879,82.12494 9.1807804,81.862019 9.1421517,81.765844 8.9875554,81.552357 8.8902749,81.449256 8.6203073,81.319173 8.5535068,81.155791 8.3841414,81.054151 8.2469989,80.915335 8.0796749,80.758599 7.9341756,80.513151 7.8501795,80.342909 7.6122374,80.192081 7.5511531,80.085204 7.2674897,79.858628 7.2637445,79.793499 7.1227984,79.687119 7.034,79.438764 6.927507,79.211755 6.5829935,78.994663 6.4647152,78.817795 6.3863062,78.681427 6.2580821,78.430567 6.0931165,78.3484 5.9199544,78.068337 5.8074916,78.005435 5.5370013,77.816892 5.4355799,77.703859 5.3867089,77.478832 5.2703221,77.185806 5.0867929,77.046808 4.9031158,76.879279 4.7486675,76.743132 4.6524249,76.595707 4.5670628,76.379974 4.5173279,76.186562 4.3111205,75.861069 4.1792558,75.732458 4.0033052,75.544781 3.856607,75.419273 3.840261,75.20086 3.7439367,74.998718 3.5887547,74.710106 3.459053,74.57087 3.3117255,74.306775 3.2494655,74.206009 3.1777397,74.017185 3.0002997,73.811642 2.9520235,73.588426 2.7850436,73.153159 2.6250187,72.99186 2.6046229,72.805078 2.4569262,72.64002 2.3490592,72.265781 2.2476234,72.148542 2.1533683,72.020127 1.9753148,71.743361 1.9347749,71.598151 1.8946797,71.434339 1.7582496,71.012326 1.7467204,70.850161 1.7303479,70.653353 1.5855945,70.488852 1.3604086,70.197763 l -0.06936,-0.150322 0.012644,-0.297639 -0.099351,-0.364494 -0.072314,-0.201188 -0.076445,-0.229748 -0.17732379,-0.08789 -0.0267061,-0.16477 0.0672606,-0.330412 0.0409755,-0.255878 0.0262223,-0.306385 -0.0404797,-0.161965 -0.1799743,-0.384761 -0.0556585,-0.197249 -0.10758557,-0.192842 -0.0508633,-0.312223 0.0285689,-0.207117 -0.11435035,-0.178563 0.0479104,-0.266084 0.0355318,-0.267277 -0.0467707,-0.15281 0.0340792,-0.367748 -0.0718518,-0.29585 -0.0833038,-0.124849 0.0321635,-0.263225 L 0.3576732,64.078901 0.34492651,63.937943 0.12501493,63.643109 0.18659315,63.528103 0.17382133,63.216571 0.21595007,63.076354 0.15429773,62.748829 0.11508442,62.55215 0.0497402,62.361868 2.8211832e-7,62.124073 0.15877046,61.957626 0.15184863,61.801428 0.04150074,61.512044 0.13248873,61.293505 0.15623868,60.934333 0.09977755,60.805821 0.18941474,60.540249 0.04463099,60.263454 0.15701972,60.02937 l 0.0195978,-0.285484 0.0363687,-0.210902 0.0744778,-0.14676 0.011806,-0.171031 -0.0706798,-0.301684 -0.0249092,-0.201323 0.15029162,-0.333634 0.011175,-0.224553 0.0201302,-0.117055 -0.0481022,-0.305884 0.0974083,-0.307018 -0.002486,-0.09841 -0.0250511,-0.285276 -0.0308882,-0.188856 0.0443124,-0.339932 0.0848642,-0.152557 -0.0322419,-0.211007 -0.0292772,-0.260072 0.15417959,-0.289384 0.0953695,-0.15338 0.12225553,-0.251463 0.0418689,-0.282493 0.0666024,-0.155424 -0.0693426,-0.191558 0.0265082,-0.212298 0.003506,-0.223543 0.21085418,-0.290208 0.073944,-0.124544 0.082415,-0.195653 0.098009,-0.222602 0.182345,-0.27034 -0.084164,-0.308576 0.2051673,-0.341905 0.031107,-0.281244 0.097017,-0.227496 0.011091,-0.186201 0.070423,-0.277618 0.07487,-0.215332 0.1479454,-0.163551 0.015739,-0.148609 0.083436,-0.262988 0.044018,-0.203245 0.1574292,-0.155642 0.060735,-0.304554 0.2053563,-0.348381 0.1431451,-0.06766 0.1455458,-0.278339 0.1925947,-0.239094 0.022421,-0.179345 0.051437,-0.181583 0.071364,-0.291823 0.2233391,-0.113493 0.060166,-0.313567 0.2312367,-0.182058 0.051902,-0.14546 0.1094475,-0.151014 0.3028057,-0.187801 0.165354,-0.135348 0.1948207,-0.310475 0.082676,-0.219871 0.122201,-0.253922 0.048044,-0.130243 0.1416591,-0.282947 0.076144,-0.15755 0.1914259,-0.07719 0.2721397,-0.192127 0.06449,-0.07806 0.2600866,-0.182953 0.095455,-0.08667 0.2127181,-0.336917 0.1202948,-0.06371 0.1181177,-0.262496 0.3134884,-0.180754 0.1316879,-0.07279 0.1225715,-0.196749 0.244212,-0.117684 0.2477905,-0.210108 0.1371648,-0.188315 0.1322939,-0.07689 0.2422945,-0.137024 0.1358055,-0.156336 0.080914,-0.242426 0.13579,-0.3205 0.2360099,-0.04836 0.1844554,-0.06503 0.323481,-0.252588 0.1389285,-0.111701 0.1575792,-0.169286 0.1081552,-0.123646 0.2323014,-0.05692 0.1587721,-0.244197 0.13886,-0.07892 0.346248,-0.09916 0.274232,-0.13337 0.148125,-0.029 0.287693,-0.104176 0.110096,-0.144494 0.125227,-0.142857 0.343001,-0.162048 0.127851,-0.02633 0.162489,-0.06755 0.355202,-0.18632 0.143125,-0.134622 0.178166,-0.155607 0.198586,-0.10349 0.129226,-0.140138 0.282309,-0.04463 0.138466,-0.08356 0.342195,-0.229899 0.07011,-0.06107 0.151897,-0.159706 0.173789,-0.167262 0.20366,-0.182672 0.366257,-0.0593 0.136856,-0.09867 0.151004,-0.109368 0.330783,0.0098 0.126033,-0.08168 0.245835,0.01257 0.169598,-0.04656 0.312225,-0.161854 0.123214,-0.06947 0.253672,-0.154945 0.137102,0.02833 0.277832,0.0031 0.236445,-0.02105 0.203839,-0.198633 0.216973,-0.01487 0.193544,-0.03942 0.342917,-0.194422 0.186683,-0.141409 0.131285,-0.08587 0.268511,-0.196565 0.183609,0.01647 0.272276,-0.01224 0.131945,-0.05821 0.21534,-0.223588 0.19006,0.008 0.263105,0.0097 0.25206,-0.178956 0.141497,-0.104526 0.17066,-0.0296 0.367254,-0.164297 0.148426,-0.0782 0.250348,0.0397 0.232042,0.002 0.13089,-0.08316 0.301295,-0.07392 0.202601,-0.03513 0.244386,-0.05314 0.211318,-0.02186 0.176014,-0.152619 0.286205,-0.08393 0.151386,-0.11192 0.27891,-0.07598 0.112005,-0.08219 0.219192,-0.01176 0.148555,0.03618 0.191496,0.03395 0.25326,0.03382 0.230651,-0.04322 0.239627,-0.03943 0.118072,-0.0527 0.195433,0.06431 0.146066,-0.0026 0.227328,0.01377 0.161845,-0.06853 0.276824,0.005 0.280745,-0.210597 0.126408,-0.06825 0.362288,-0.140129 0.09857,-0.03755 0.286795,0.05095 0.179344,-0.212699 0.160646,-0.08681 0.364755,-0.119324 0.189381,-0.0561 0.243646,0.01072 0.241641,-0.01316 0.191717,0.02092 0.303815,-0.07082 0.156323,-6.86e-4 0.266696,-0.134863 0.212108,0.06075 0.300306,0.06158 0.282912,-0.03071 0.109985,-0.0226 0.311199,0.06612 0.278568,0.02878 0.220393,-0.09291 0.132917,-0.01542 0.19984,-0.03837 0.382922,0.05918 0.271916,-0.0066 0.236689,-0.06319 0.16935,-0.09167 0.214064,0.04046 0.323547,-0.108604 0.126072,0.01915 0.314651,0.0066 0.261823,-0.149526 0.305563,0.02006 0.117664,0.01556 0.1916,-0.0026 0.255021,-0.106652 0.201829,-0.01206 0.426175,0.04942 0.198844,-0.0097 0.12721,0.0074 0.205914,0.01877 0.43544,-0.03231 0.08665,-0.02891 0.342698,-0.08115 0.162521,0.04268 0.162011,0.0058 0.228195,0.02557 0.380994,0.02744 0.169521,-0.158438 0.233128,0.04788 0.164981,-0.0038 0.433615,-0.03907 0.09581,0.0022 0.197946,0.01365 0.349383,-0.116779 0.248543,-0.07917 0.308579,0.05702 0.17193,-0.05773 0.173729,0.01192 0.301763,-0.10028 0.363448,-0.04432 0.117097,-0.0057 0.320924,0.113624 0.29652,0.01176 0.130314,0.04358 0.265656,0.09928 0.283514,-0.0863 0.155851,0.01327 0.423583,0.04811 0.133127,-0.04558 0.174918,0.0068 0.326719,-0.104859 0.261423,0.100151 0.237506,-0.07484 0.251176,0.09771 0.329468,0.0094 0.115315,-0.02062 0.376016,0.06966 0.222691,-0.0034 0.251459,-0.02258 0.128407,-0.01526 0.293719,-0.09365 0.321464,0.102344 0.183106,-0.05635 0.17921,0.05985 0.315423,0.120415 0.172033,-0.05961 0.413059,-0.01479 0.322036,0.02792 0.165423,0.05536 0.313923,0.04964 0.121404,-0.0037 0.404807,0.01966 0.102571,0.01732 0.385331,-0.02757 0.151654,0.04687 0.163751,-0.0033 0.374393,-0.107117 0.189297,0.062 0.295982,0.06607 0.262036,-0.04543 0.235912,0.0319 0.131965,-0.0015 0.214685,-0.04961 0.266626,0.07751 0.426043,0.01711 0.119441,0.03363 0.360949,0.01347 0.215856,-0.0042 0.184264,-0.07721 0.164018,0.0011 0.424069,-0.06544 0.124232,0.03756 0.331682,-0.07684 0.205682,-0.05602 0.242373,0.05924 0.163872,0.03842 0.32959,-0.118197 0.212074,-0.07392 0.290991,0.07337 0.201257,0.06185 0.325932,0.0091 0.228375,-0.01574 0.139471,0.0171 0.194206,-0.04883 0.236337,-0.04579 0.258367,-0.182945 0.151304,-0.132546 0.240012,-0.03253 0.141512,-0.201318 0.115249,-0.0469 0.20917,-0.09547 0.09765,-0.252937 0.08377,-0.280049 0.06752,-0.242424 -0.03465,-0.358211 -0.02915,-0.216877 -0.05983,-0.251425 0.05206,-0.185737 -0.01699,-0.275055 0.0062,-0.164413 0.0058,-0.438407 0.01047,-0.182061 0.06407,-0.174226 0.03412,-0.197175 -0.135964,-0.369642 0.08232,-0.167239 -0.09454,-0.261699 0.05309,-0.222003 -0.114403,-0.282986 -0.0799,-0.171509 -0.0057,-0.166926 -0.122934,-0.339908 -0.0039,-0.143655 0.02437,-0.203333 -0.10453,-0.351411 0.119004,-0.28206 -0.01922,-0.08284 -0.105552,-0.213674 0.06289,-0.269581 -0.108949,-0.223505 0.0047,-0.319713 -0.01776,-0.109074 -0.124739,-0.265796 0.01797,-0.354894 0.01172,-0.197343 -0.07946,-0.191632 0.04178,-0.17562 -0.08884,-0.294812 -0.123219,-0.200601 -0.02148,-0.165081 -0.113604,-0.323821 -0.03614,-0.134519 -0.182184,-0.144056 -0.147822,-0.364408 -0.125002,-0.168584 -0.105234,-0.09839 -0.06794,-0.144527 -0.158193,-0.181478 -0.192125,-0.206411 -0.11707,-0.389977 -0.01061,-0.147772 -0.02141,-0.222881 -0.227184,-0.233607 -0.06513,-0.119543 -0.07308,-0.35309 -0.132238,-0.09566 -0.309602,-0.287562 -0.137961,-0.110314 -0.137637,-0.201988 -0.08565,-0.155735 -0.160388,-0.250226 -0.274525,-0.134019 -0.07931,-0.0922 -0.151322,-0.226097 -0.27662,-0.03536 -0.205193,-0.103437 -0.09284,-0.15692 -0.222148,-0.117962 -0.117067,-0.218817 -0.234548,-0.124069 -0.333982,-0.228286 -0.05702,-0.147358 -0.230936,-0.128401 -0.07779,-0.220766 -0.113219,-0.189452 -0.257422,-0.127601 -0.04921,-0.290465 -0.14056,-0.148696 -0.345675,-0.05718 -0.255462,-0.110511 -0.09012,-0.140173 -0.25257,-0.0675 -0.1354,-0.07944 -0.157418,-0.209824 -0.367277,-0.139266 -0.0711,-0.09707 -0.193502,-0.106743 -0.157775,-0.137378 -0.378982,-0.147875 -0.154372,-0.100787 -0.207649,7.4e-5 -0.166213,-0.08329 -0.429606,-0.104295 -0.134784,-0.126499 -0.187124,-0.157123 -0.189217,-4.92e-4 -0.316049,-0.07287 -0.23511,-0.06448 -0.252364,-0.08009 -0.242485,-0.08361 -0.17286,-0.160641 -0.128353,-0.09664 -0.316011,-0.01647 -0.326473,-0.112234 -0.200407,-0.125871 -0.297275,0.05889 -0.200382,0.05922 -0.309452,0.0275 -0.233425,-0.01309 -0.181127,-0.06944 -0.226168,-0.08624 -0.206275,-0.07022 -0.201375,-0.019 -0.330619,-0.108551 -0.20377,-0.05258 -0.311317,0.123781 -0.2871,-0.04456 -0.255433,0.01014 -0.172622,-0.05008 -0.25663,0.106672 -0.155859,0.0061 -0.357729,-0.08974 -0.272089,-0.02949 -0.224762,0.09647 -0.208282,-0.04932 -0.329879,0.07355 -0.204104,0.02293 -0.134898,0.03773 -0.166515,-0.0048 -0.442015,0.01834 -0.154601,0.04409 -0.278032,0.06353 -0.151721,-0.04453 -0.302369,0.09671 -0.260295,0.07562 -0.339402,-1.01e-4 -0.174379,0.04405 -0.165893,-0.02058 -0.33896,0.08288 -0.259439,0.05602 -0.267806,0.04946 -0.188348,-0.0926 -0.205415,-0.02558 -0.443749,0.0053 -0.112949,-0.04145 -0.367023,-0.123504 -0.112076,-0.05861 -0.185119,-0.06259 -0.434391,-0.0486 -0.09695,-0.02243 -0.303468,-0.03617 -0.283269,0.06793 -0.215813,0.07173 -0.145248,0.02081 -0.323325,0.163298 -0.16958,0.06514 -0.118643,0.0497 -0.306297,0.06239 -0.239237,0.212036 -0.163867,0.06752 -0.127212,0.09515 -0.183192,0.02079 -0.259102,0.217707 -0.119746,0.05401 -0.275858,0.01165 -0.155156,0.122737 -0.371514,0.06585 -0.220431,0.107514 -0.191384,0.125425 -0.189393,0.127818 -0.139228,0.01621 -0.124425,0.113072 -0.150728,0.24808 -0.300104,0.283729 -0.08608,0.07875 -0.164457,0.123036 -0.409468,0.221351 -0.228505,0.07652 -0.138488,0.08411 -0.280645,0.287027 -0.0789,0.04829 -0.241301,0.103327 -0.211946,0.27934 -0.103864,0.05594 -0.19891,0.217601 -0.06563,0.173861 -0.180813,0.294562 -0.08308,0.07448 -0.29766,0.200393 -0.165096,0.147035 -0.199166,0.197662 -0.116558,0.08445 -0.157392,0.135281 -0.194492,0.250582 -0.06674,0.240969 -0.16178,0.167461 -0.01489,0.209716 -0.029,0.219272 -0.04557,0.210276 -0.208252,0.134612 -0.104709,0.285348 -0.02628,0.139906 -0.08112,0.261014 -0.112173,0.09505 -0.234376,0.220709 -0.04398,0.225103 -0.103558,0.238294 -0.100852,0.195868 -0.125922,0.179785 -0.05065,0.318921 -0.07104,0.20228 0.0169,0.221083 -0.0028,0.164328 -0.180192,0.322001 -0.105206,0.188385 0.02693,0.188709 -0.02546,0.199876 -0.152164,0.415596 0.02643,0.125874 0.03051,0.305494 -0.22072,0.196668 -0.06261,0.16308 -0.06809,0.211734 -0.05026,0.462285 0.009,0.09775 0.04579,0.284824 0.02037,0.291672 -0.0027,0.273233 -0.0728,0.139294 -0.100866,0.402499 -0.03705,0.185869 -0.157788,0.214948 -0.07249,0.126483 -0.194553,0.173548 -0.129135,0.206512 -0.02339,0.211812 -0.07542,0.142001 -0.263223,0.108769 -0.07378,0.243958 -0.166472,0.01224 -0.342541,0.102895 -0.264839,-0.0804 -0.144274,-0.0054 -0.420945,0.02546 -0.1956,-7.67e-4 -0.213802,0.05944 -0.228906,-0.08584 -0.257774,0.07715 -0.164883,-0.03041 -0.418864,-0.06145 -0.144257,0.04617 -0.335543,0.02054 -0.130997,-0.04788 -0.196663,-0.04684 -0.359824,0.09956 -0.185622,-0.07322 -0.294524,0.08507 -0.312375,0.02413 -0.237436,-0.01382 -0.239003,-0.0455 -0.251172,0.0174 -0.14302,-0.05236 -0.24756,-0.09932 -0.266047,0.08737 -0.35571,-0.04869 -0.148993,0.04657 -0.275006,-0.100807 -0.175516,0.04849 -0.375415,0.0599 -0.189603,0.04738 -0.181882,0.02503 -0.219134,-4.93e-4 -0.234165,-0.02404 -0.465441,0.0085 -0.155335,-0.08709 -0.228204,-0.111161 -0.160786,0.01959 -0.357354,0.06976 -0.100709,-0.123447 -0.291303,-0.07401 -0.174578,-0.06074 -0.190332,-0.01135 -0.229299,-0.0027 -0.245788,-0.02361 -0.245906,0.0022 -0.466503,-0.07726 -0.20563,0.02867 -0.179921,0.06727 -0.308537,-0.07818 -0.2719876,0.04512 -0.1295208,0.02274 -0.2064705,0.0142 -0.3573664,-0.113416 -0.1698575,0.03145 -0.3750038,0.106318 -0.261071,-0.01897 -0.2199584,0.05559 -0.2880483,0.0037 -0.2369457,-0.002 -0.1336487,0.0286 -0.2043506,9.98e-4 -0.4684541,0.0115 -0.090997,0.01273 -0.2788984,-0.09966 -0.3378111,-0.04394 -0.161688,0.06227 -0.2566646,-0.08454 -0.2624479,-0.07653 -0.2283227,-0.06232 -0.3139144,0.124458 -0.2039494,-0.05666 -0.3503085,0.04229 -0.2025722,-0.01618 -0.2362357,-0.04132 -0.31465,0.02406 -0.1400013,-0.01295 -0.2671561,-0.02186 -0.3768398,0.109054 -0.2021229,0.07614 -0.046927,-0.239877 -0.1039505,-0.05766 -0.1825607,-0.299954 -0.1541751,-0.195211 -0.060288,-0.221847 0.079178,-0.176262 0.1232591,-0.311315 -0.059579,-0.292026 0.070605,-0.131443 -0.083275,-0.285492 0.065002,-0.175973 0.071178,-0.271936 -0.014305,-0.180132 -0.1105798,-0.388435 0.020678,-0.1612 0.1846053,-0.307827 -0.025244,-0.212118 0.053766,-0.324282 0.030289,-0.206948 0.1134251,-0.171632 0.051446,-0.306472 0.059219,-0.107189 0.1452435,-0.322098 0.086318,-0.186422 -0.063286,-0.225195 -0.027884,-0.226103 0.1330444,-0.328349 0.1080801,-0.169392 -0.03163,-0.275483 0.1568459,-0.264129 0.1161563,-0.218614 0.040359,-0.138637 0.1194443,-0.221368 0.071044,-0.412591 -0.026137,-0.14053 0.040371,-0.152029 -0.03003,-0.243176 0.025091,-0.216741 0.1910069,-0.260179 -0.1371327,-0.294041 0.2009704,-0.204584 0.1289885,-0.268126 0.1339881,-0.136424 0.09028,-0.139701 0.086271,-0.200625 0.064455,-0.406003 0.1388679,-0.120366 0.05452,-0.198494 0.083258,-0.217132 0.2471439,-0.405101 0.030822,0.0059 0.1921052,-0.195492 0.1872234,-0.238788 0.034277,-0.249266 0.089304,-0.128331 0.2131249,-0.226314 0.1996348,-0.277957 0.018937,-0.16083 0.2009885,-0.306389 0.1039067,-0.287835 -0.062291,-0.204488 0.1393904,-0.220056 0.046442,-0.148293 0.216962,-0.149953 0.099124,-0.107348 0.095543,-0.31667 0.1269009,-0.170295 0.1706123,-0.113705 0.151872,-0.186914 0.057378,-0.154019 0.092764,-0.176157 0.1100401,-0.04569 0.1495586,-0.250796 0.06483,-0.09727 0.2083364,-0.302361 0.1543575,-0.09493 0.1688363,-0.09114 0.2385248,-0.184293 0.088833,-0.230605 0.1710462,-0.145198 0.068428,-0.116909 0.072152,-0.168629 0.2196169,-0.303447 0.109699,-0.152448 0.1053779,-0.192504 0.143209,-0.214599 0.1393905,-0.190018 0.2470514,-0.101057 0.1062788,-0.160322 0.1381158,-0.103714 0.2020412,-0.218166 0.08016,-0.132924 0.151308,-0.21715 0.136358,-0.07159 0.250295,-0.2671374 0.213044,-0.046253 0.219412,-0.09044 0.06178,-0.145794 0.0974,-0.1423424 0.323416,-0.1828977 0.124532,-0.1552145 0.115387,-0.1778044 0.103,-0.13613 0.319496,-0.0994 0.113333,-0.079619 0.249324,-0.1911221 0.217424,-0.1972304 0.07357,-0.08003 0.13547,-0.1514156 0.34573,-0.062099 0.235793,-0.1033976 0.132424,-0.080223 0.212115,-0.1287897 0.05271,-0.1825928 0.26783,-0.1436799 0.183514,-0.079888 0.225357,-0.1336933 0.18571,-0.1494123 0.163063,-0.164624 0.118118,-0.061022 0.218313,-0.063299 0.252977,-0.1863277 0.124286,-0.1412659 0.172822,-0.1649009 0.151571,-0.037834 0.120123,-0.1860654 0.292017,-0.1365992 0.149087,-0.1227746 0.266072,-0.061875 0.11494,-0.1120009 0.164384,-0.1096921 0.239727,-0.2089363 0.219163,0.00616 0.190384,-0.1069819 0.264494,0.00141 0.169857,-0.047669 0.245296,-0.052286 0.302259,-0.058965 0.326703,-0.2287279 0.0856,-0.115263 0.179537,-0.055597 0.253696,-0.07598 0.327678,-0.1582206 0.03101,-0.1328563 0.17162,-0.098975 0.248317,0.089715 0.160069,-0.1817921 0.259477,-0.04449 0.123602,-0.061802 0.16068,-0.1126009 0.185615,-0.131095 0.178527,-0.1791237 0.226633,-0.1563802 0.238429,-0.049992 0.191391,-0.019698 0.171436,-0.072367 0.326469,-0.055466 0.114075,-0.027063 0.254278,0.0035 0.290638,-0.01656 0.376402,-0.1735258 0.06662,-0.2278325 0.248693,-0.12307 0.25167,0.057538 0.303051,0.015564 0.16766,0.00564 0.351756,-0.030936 0.164771,-0.060534 0.229824,-0.085755 0.17955,-0.1288524 0.07933,-0.058583 0.135296,-0.1522576 0.112887,-0.08909 0.167706,-0.05529 0.352796,-0.123787 0.180511,-0.091319 0.250458,-0.1112671 0.21568,0.050451 0.226595,0.044149 0.230131,-0.1389956 0.291439,-0.1019414 0.192264,0.060794 0.317278,-0.041946 0.23366,-0.043182 0.16657,0.00482 0.285269,-0.1497475 0.17978,-0.063067 0.378299,0.066204 0.200746,-0.075698 0.204738,-0.083125 0.229164,-0.0611166 0.331968,0.0976338 0.273299,-0.00131 0.208078,0.00459 0.289743,-0.0537169 0.215721,-0.0544228 0.223224,-0.0533376 0.105235,-0.10024198 0.162498,-0.0774941 0.20269,-0.10929076 0.177392,-0.006651 0.284773,0.022199 0.313143,-0.1989298 0.211765,-0.11269529 0.267959,0.0161852 0.204575,-0.12614792 0.3113,-0.005761 0.246086,-0.030387 0.197903,-0.06835806 0.244396,0.08828438 0.375605,-0.006643 0.160286,0.0466488 0.298517,0.029098 0.22414,0.0233285 0.196175,-0.0688337 0.295819,-0.0509565 0.209755,-0.05157999 0.140855,0.0056676 0.41528,-9.0481e-4 0.138819,0.0473343 0.239411,-0.08057797 0.247842,0.08644803 0.311977,0.0138375 0.16113,0.0528868 0.298816,0.0555158 0.257983,0.003452 0.13688,0.0284182 0.195779,-0.0558069 0.324479,-0.13362045 0.158432,6.5371e-4 0.344155,0.10999857 0.228018,0.0463708 0.162755,-0.0732699 0.222662,-0.0654955 0.329279,0.0117738 0.174828,-0.05464347 0.318568,0.0031259 0.195916,0.0498854 0.288613,0.0227678 0.12653,-0.0300578 0.3414,-0.0900257 0.168559,-0.0530558912 0.314909,0.10222230116 0.20649,-0.06924251 0.174,0.0075902 0.321571,0.12024238 0.255632,-0.08677937 0.255926,0.08935641 0.309884,0.0406955 0.208761,-0.0564379 0.196438,-0.06930764 0.360846,0.0084349 0.174116,-0.04451945 0.220517,0.09157925 0.327124,-0.04477612 0.215697,0.05611558 0.142301,-0.020934 0.418473,0.0150922 0.109923,0.0378126 0.285552,0.0185958 0.157903,0.035628 0.312716,0.17353426 0.295467,0.0708834 0.149974,0.076383 0.172445,0.0278886 0.321964,0.13767358 0.318973,0.0525746 0.22425,0.0308259 0.259598,-0.10974733 0.221449,0.0433527 0.244686,0.1282248 0.158909,0.0877177 0.258675,0.13264212 0.24473,0.106719 0.320342,0.046578 0.118106,-0.027501 0.250296,0.095721 0.362728,-0.058526 0.120995,0.038552 0.228964,-0.00768 0.321232,-0.017055 0.191194,0.081578 0.15327,0.014723 0.218314,-9.3e-5 0.250423,0.085737 0.352749,-0.1540398 0.244604,-0.034955 0.208202,0.1420012 0.321876,-0.035722 0.147397,0.053776 0.30421,0.20243 0.222625,0.069291 0.126667,0.095285 0.169825,0.1125945 0.277152,0.1182872 0.08584,-0.069775 0.270608,0.1244053 0.179289,0.044695 0.102831,0.1139108 0.30337,0.060735 0.229714,-0.027522 0.32812,0.1290196 0.156475,-0.00749 0.168799,0.1002878 0.178326,0.00823 0.453234,0.083171 0.171941,-0.00757 0.185509,0.1232507 0.286142,0.1167436 0.09363,0.077282 0.341182,0.1145675 0.08517,0.063013 0.18236,0.149918 0.258998,0.1544891 0.330196,0.00542 0.151273,0.031016 0.317434,0.1847836 0.13652,0.088235 0.113043,0.088893 0.335582,0.069481 0.16603,0.039887 0.155487,0.059124 0.269407,0.082983 0.136733,0.144223 0.253668,0.086621 0.101831,0.051232 0.234492,0.2356665 0.130874,0.1188373 0.313992,0.016533 0.07401,0.063323 0.243676,0.1750651 0.144255,0.129582 0.130308,0.1013114 0.27707,0.00928 0.327942,0.1254735 0.102601,0.035595 0.148196,0.1196362 0.343704,0.08464 0.234457,0.1428488 0.151087,0.1244571 0.07672,0.1248646 0.127254,0.089994 0.290902,0.2418424 0.02489,0.016769 0.267063,0.115143 0.123884,0.1469349 0.197714,0.040012 0.194176,0.06446 0.209772,0.2925699 0.09104,-0.010604 0.144539,0.2255299 0.205088,0.2364992 0.136571,0.1775849 0.125749,0.1339194 0.172895,0.19384 0.405032,0.1988633 0.07633,0.045932 0.342524,0.1878711 0.08316,0.06216 0.280473,0.07892 0.107331,0.143795 0.307681,0.2834701 0.146472,0.1237485 0.220015,0.1047672 0.153491,0.062767 0.269376,0.1136775 0.212558,0.2866203 0.129539,0.1601105 0.144818,0.064457 0.253031,0.2313468 0.07099,0.221356 0.225984,0.136702 0.130546,0.128035 0.290641,0.306791 0.08803,0.07928 0.150014,0.15037 0.244575,0.343314 -0.0032,0.14622 0.07067,0.218178 0.238093,0.226304 0.116649,0.08127 0.218568,0.327681 0.04771,0.101741 0.09312,0.198901 0.32175,0.19525 0.212057,0.197625 0.136461,0.262499 0.0014,0.112736 0.167024,0.258216 0.05728,0.08642 0.168881,0.133974 0.226942,0.193566 -0.05932,0.272737 0.217102,0.163863 0.113946,0.232041 0.06277,0.176694 0.218253,0.208574 0.03469,0.07786 0.146509,0.296697 0.03434,0.110102 0.04714,0.30742 0.222445,0.222328 0.09581,0.111679 0.236745,0.272916 0.07744,0.279484 0.03736,0.109426 0.159028,0.311528 0.02071,0.205248 0.134359,0.341934 0.0998,0.09213 0.08772,0.313001 0.09934,0.09736 0.219372,0.240348 0.08516,0.128371 1.02e-4,0.227975 0.125354,0.185115 -0.06662,0.22345 0.0131,0.264942 -0.0099,0.140205 0.09874,0.265442 0.112267,0.146709 0.10464,0.170085 0.03366,0.374722 0.04534,0.08832 0.166094,0.233968 0.09331,0.270084 0.0068,0.111209 0.02671,0.212772 0.0021,0.257061 0.0038,0.210313 0.01691,0.233739 0.211054,0.300469 0.09981,0.108578 0.136323,0.168874 0.136867,0.23096 0.04737,0.295146 -0.02995,0.170873 -0.100878,0.288969 0.09705,0.280802 -0.0198,0.32997 0.0216,0.218857 0.06605,0.195144 0.07725,0.277698 -0.07312,0.213417 -0.08189,0.234452 -0.04477,0.189647 0.0028,0.431032 -0.044,0.151571 -0.05899,0.186884 -0.02401,0.202759 0.08928,0.265914 -0.06157,0.40924 0.05435,0.177882 0.01717,0.155561 -0.103611,0.33636 -0.0614,0.280706 0.01387,0.273153 -0.05324,0.198081 -0.06458,0.263117 0.04628,0.157773 -0.09439,0.306364 -0.01205,0.334204 0.06074,0.159827 0.02954,0.170305 0.117527,0.316459 -0.05285,0.313903 -0.0583,0.189686 0.03962,0.172862 -0.09667,0.300274 0.04181,0.189292 -0.0067,0.439937 -0.03876,0.156309 0.0021,0.310894 0.06258,0.178441 0.04518,0.304261 -0.01809,0.122282 0.0066,0.403293 0.0062,0.195748 0.04988,0.148492 -0.04097,0.209565 0.115229,0.374767 -0.05885,0.179259 -0.04783,0.201094 0.116708,0.342455 0.0054,0.29565 -0.01638,0.11938 -0.06732,0.369734 -0.0513,0.162754 0.101998,0.269992 0.08803,0.253069 0.082,0.223249 -0.07947,0.280379 -0.05035,0.277145 0.0013,0.132529 -0.09521,0.305583 0.03764,0.345769 -0.0428,0.139897 0.0021,0.363357 -0.04162,0.17587 -0.02704,0.300829 -0.0494,0.181812 0.04146,0.174572 0.04996,0.431619 -0.01292,0.178265 0.08507,0.218624 0.07155,0.178973 -0.04867,0.215708 0.02647,0.218183 -0.09845,0.359403 0.103822,0.227123 0.08753,0.317256 -0.03813,0.144697 -0.0172,0.2014 0.03181,0.227791 -0.06524,0.44049 0.01635,0.118807 0.09603,0.223913 -0.08497,0.328183 -0.01233,0.182281 0.141274,0.248598 0.05983,0.386337 0.04451,0.135068 -0.06618,0.317622 -0.07009,0.206892 -0.09311,0.289717 -0.07641,0.267652 0.0027,0.30594 0.05871,0.15781 0.02841,0.175916 -0.0068,0.220232 -0.09965,0.412078 0.06795,0.182809 0.08489,0.287467 -0.03877,0.156812 0.0401,0.210639 0.08255,0.425801 -0.0066,0.109014 -0.08821,0.259147 -0.0921,0.281434 -0.05544,0.320627 0.033,0.132189 0.104922,0.27968 -0.02236,0.351006 -0.05073,0.172394 -6.7e-4,0.160134 0.05846,0.230899 0.103449,0.401183 -0.0483,0.221149 0.07066,0.234826 -0.05397,0.272607 0.0037,0.266066 -0.03717,0.135569 -0.05041,0.212922 0.006,0.219589 0.04977,0.468303 0.047,0.140239 -0.04224,0.306161 0.03763,0.233193 0.0032,0.130586 0.08239,0.382302 -0.05272,0.154175 0.09313,0.258306 -0.08326,0.27036 -0.0378,0.168853 -0.09519,0.285325 -0.08574,0.289563 -0.07246,0.248049 0.0903,0.270231 -0.05483,0.181341 -0.05986,0.224631 -0.08854,0.296829 -0.07583,0.283799 -0.06225,0.276326 -0.05375,0.25997 0.09594,0.232597 0.09042,0.204814 0.04822,0.342876 -0.03814,0.184594 0.01341,0.306091 0.0498,0.12757 0.02432,0.378792 0.01024,0.202355 0.07854,0.18988 -0.06749,0.242147 0.04057,0.175242 0.08049,0.418082 0.02205,0.100852 -0.07886,0.26902 0.108492,0.249248 0.02425,0.35637 -0.04358,0.165219 -0.05391,0.201756 0.11267,0.341632 0.06467,0.225846 -0.04519,0.164723 -0.07637,0.322556 0.0967,0.239044 0.08067,0.263463 0.06041,0.159895 -0.01356,0.382128 0.05563,0.145993 -0.06967,0.298403 0.03314,0.270195 -0.02961,0.22975 0.0459,0.143144 -0.09145,0.302567 0.03276,0.345107 -0.02928,0.160279 -0.0033,0.302326 0.204222,0.134097 0.05865,0.130173 0.0776,0.311746 0.127274,0.0924 0.215074,0.187568 0.03124,0.240642 0.138999,0.07981 0.147719,0.123412 0.150172,0.147249 0.01981,0.25606 0.13106,0.305353 0.08925,0.06805 0.09695,0.188535 0.145296,0.07282 0.257667,0.256092 0.127532,0.09487 0.107852,0.191359 0.173253,0.04054 0.07852,0.147374 0.152199,0.0984 0.185396,0.10863 0.09274,0.21692 0.313232,0.225607 0.202818,0.158087 0.240201,0.08717 0.101335,0.08183 0.323229,0.08087 0.133013,0.09272 0.257258,0.03534 0.145466,0.116449 0.255581,0.05487 0.130797,0.09171 0.237393,0.01929 0.350119,0.08126 0.204458,0.09503 0.108121,0.04502 0.277956,0.06421 0.161019,0.09127 0.109529,0.171798 0.309782,0.04376 0.123523,-0.02029 0.373196,0.06315 0.192279,0.04843 0.242779,-0.101233 0.257944,0.06234 0.164852,-0.06057 0.400876,0.01362 0.138567,-0.06243 0.282004,-0.09478 0.214658,0.07106 0.199968,-0.08268 0.29735,-0.09512 0.315069,0.09074 0.129399,-0.03436 0.249418,0.0028 0.172911,0.03203 0.262944,0.07789 0.402318,-0.0424 0.153452,0.03768 0.186379,-0.07935 0.241388,-0.09978 0.221198,0.06362 0.227739,-0.0765 0.328768,0.102928 0.166447,-0.0042 0.323035,-0.137319 0.16155,-0.01467 0.43068,0.0052 0.09223,-0.009 0.358692,0.0763 0.07791,-0.03875 0.326445,-0.09545 0.22793,-0.07218 0.163912,-0.03516 0.24703,0.08667 0.236919,-0.05276 0.261519,0.05819 0.380399,-0.05547 0.186843,0.01678 0.345348,-0.09976 0.170946,0.0142 -0.0096,0.166718 0.01605,0.198169 0.186504,0.105446 0.09387,0.282347 -0.0427,0.172444 0.02111,0.242315 0.07339,0.286678 -0.04774,0.156606 0.03228,0.202646 0.105425,0.382354 -0.03236,0.26915 0.02548,0.128672 -0.09817,0.338034 0.06612,0.187194 -0.03263,0.184526 -0.09516,0.388908 0.06431,0.192995 0.0803,0.241392 -0.05933,0.309577 -0.0039,0.122647 -0.05347,0.219458 -0.06028,0.24222 0.0086,0.453531 -0.01688,0.173048 0.07392,0.201232 0.08503,0.243081 -0.01627,0.340082 0.0086,0.214664 0.03959,0.242632 0.0043,0.134166 -0.01789,0.208687 0.10621,0.347742 0.0046,0.343551 -0.01727,0.11124 -0.128798,0.294729 0.04742,0.179626 -9.53e-4,0.409438 -0.06327,0.137921 -0.0076,0.333107 0.04781,0.164922 -0.0196,0.213323 -0.05978,0.189717 0.05515,0.392857 -0.0051,0.215102 0.04987,0.234778 0.06675,0.215661 -0.07696,0.278352 -0.02648,0.14438 -0.06673,0.395281 0.01763,0.218877 -0.0416,0.245054 -0.06414,0.189961 -0.02799,0.178874 -0.09916,0.353058 0.07695,0.192685 -0.01684,0.371138 0.01323,0.10684 0.0099,0.199727 -0.103641,0.357612 -0.066,0.231779 -0.02796,0.197846 0.122336,0.392346 -0.03977,0.145791 0.03386,0.185842 -0.08631,0.338401 0.0076,0.349814 -0.0067,0.118854 0.07439,0.391882 0.04945,0.180891 0.0789,0.23886 -0.02748,0.147863 0.11641,0.242353 0.105803,0.281803 0.06203,0.266314 -0.163313,0.263417 0.02992,0.136602 -0.124261,0.07125 -0.231664,0.210092 -0.154871,0.09559 -0.02326,0.05478 -0.199076,-0.03621 -0.333925,0.130108 -0.174497,0.08241 -0.233387,0.102018 -0.30776,0.04193 -0.148434,-0.04581 -0.303853,0.08982 -0.192532,-0.06109 -0.157598,0.04324 -0.370226,0.103738 -0.07682,-0.08811 -0.16085,0.02649 -0.40456,0.116168 -0.139602,-0.0325 -0.265865,0.123309 -0.217716,-0.05679 -0.349809,0.04337 -0.106023,0.0031 -0.193581,0.04541 -0.449994,0.068 -0.125559,0.05701 -0.240268,-0.06124 -0.31838,0.03847 -0.118052,-0.0195 -0.301522,-0.09776 -0.227808,-0.07252 -0.225429,0.09218 -0.195853,0.04664 -0.387,0.09871 -0.201447,0.05863 -0.181696,-0.06563 -0.343916,0.08134 -0.21213,-0.0758 -0.185548,-0.06681 -0.31253,0.09674 -0.29312,0.0167 -0.229665,-0.03901 -0.195614,0.05545 -0.168337,0.0022 -0.430501,-0.03079 -0.184607,-0.02126 -0.191874,-0.09869 -0.32536,-0.0087 -0.116257,0.02875 -0.387158,-0.01906 -0.169764,0.04751 -0.285378,0.0435 -0.123536,0.0057 -0.400382,-0.04221 -0.0994,0.0018 -0.216085,0.05852 -0.346083,-0.113839 -0.291765,-0.01885 -0.186269,0.06294 -0.304487,0.02864 -0.153365,0.05161 -0.208119,0.05289 -0.403049,-0.08054 -0.15053,0.03979 -0.317749,0.0048 -0.122711,-0.01159 -0.258433,-0.135785 -0.317805,-0.0556 -0.19092,0.0338 -0.186015,-0.08984 -0.362843,-0.03853 -0.109333,-0.03971 -0.24407,-0.105537 -0.261294,0.08519 -0.320672,-0.09128 -0.191401,-0.06842 -0.258889,0.08603 -0.292667,0.01747 -0.181963,0.03876 -0.162137,-0.04405 -0.300396,-0.153345 -0.299373,0.03478 -0.150859,0.02818 -0.2891,-0.133774 -0.228069,-0.09761 -0.308037,0.0246 -0.161004,0.04266 -0.348207,-0.03456 -0.102842,-0.01644 -0.205993,0.01394 -0.22227,-0.06391 -0.267313,0.04786 -0.302853,0.04291 -0.380149,-0.160408 -0.224383,-0.05998 -0.122713,-0.07926 -0.294742,-0.200483 -0.131049,-8.45e-4 -0.205944,-0.170995 -0.134384,-0.06409 -0.306546,0.0309 -0.15426,-0.04453 -0.362313,-0.135691 -0.119035,-0.125263 -0.143313,-0.03955 -0.171755,-0.09118 -0.264936,-0.08153 -0.282932,-0.103983 -0.210505,-0.108543 -0.121967,-0.06114 -0.26217,-0.234455 -0.185578,-0.01923 -0.154832,-0.06777 -0.301348,-0.07835 -0.03402,-0.238399 -0.278204,-0.139396 -0.136059,-0.04874 -0.271326,-0.260412 -0.171691,-0.09446 -0.121233,-0.183689 -0.2362,-0.199371 -0.120953,-0.132438 -0.299393,-0.08405 -0.102986,-0.14649 -0.236317,-0.272229 -0.145857,-0.03909 -0.12327,-0.157164 -0.255633,-0.0644 -0.12463,-0.183117 -0.296368,-0.0731 -0.163611,-0.118547 -0.226194,-0.169774 -0.208861,-0.182946 -0.191115,-0.193315 -0.139474,-0.250416 -0.06324,-0.209114 -0.18179,-0.190781 -0.05411,-0.131013 -0.04919,-0.280489 -0.328124,-0.244023 -0.06108,-0.18723 -0.138019,-0.307278 -0.07613,-0.108253 -0.191643,-0.12221 -0.110337,-0.298381 -0.2346,-0.243521 -0.155174,-0.0967 -0.07062,-0.177817 -0.275823,-0.129075 -0.126983,-0.0066 -0.331922,-0.03949 -0.144884,-0.04979 -0.268009,0.02153 -0.178835,0.01157 -0.124893,0.01127 -0.113646,0.160114 -0.24879,0.07505 -0.224204,0.08915 -0.135966,0.239814 -0.18855,0.268703 -0.174186,0.191464 -0.331603,0.05383 -0.19548,0.04305 -0.261396,0.167559 -0.134862,0.167872 -0.214351,0.142865 -0.165155,0.169128 -0.169862,0.169208 -0.08365,0.106103 -0.338046,0.157133 -0.17842,0.197152 -0.173497,0.166066 -0.227454,0.074 -0.102819,0.103449 -0.259213,0.05144 -0.138614,0.166487 -0.239477,0.0247 -0.127269,0.177882 -0.282388,0.01443 -0.187243,0.193422 -0.133187,0.035 -0.174644,0.06853 -0.246224,0.271401 -0.09614,0.08989 -0.332822,0.103468 -0.02285,0.0691 -0.27843,0.116522 -0.092,0.05833 -0.195724,0.226787 -0.224909,0.179657 -0.122599,0.06118 -0.183092,0.07971 -0.301124,-0.02686 -0.250954,0.0455 -0.228397,0.08289 -0.11084,0.208685 -0.159125,0.125711 -0.325632,-9.46e-4 -0.375024,0.184221 -0.176908,0.169696 -0.245368,0.0728 -0.139328,0.119035 -0.247837,0.06976 -0.140763,0.002 -0.175581,0.178831 -0.264571,0.160356 -0.156753,-0.0026 -0.190265,0.179614 -0.257904,0.111435 -0.290633,0.06158 -0.19292,0.02342 -0.177528,-0.0041 -0.311842,0.06954 -0.114121,0.109388 -0.141182,0.07946 -0.381561,0.10345 -0.215775,0.05115 -0.131091,0.07766 -0.172958,0.08383 -0.24714,7.91e-4 -0.358847,0.135101 -0.14793,0.02909 -0.231503,0.05932 -0.14854,0.143726 -0.229726,0.08192 -0.241897,0.118415 -0.211647,-0.02583 -0.267468,0.08222 -0.103588,0.03834 -0.35922,0.02455 -0.09445,0.04637 -0.314779,-0.01942 -0.12254,0.04135 -0.192577,0.141284 -0.296296,-0.07742 -0.300086,0.07711 -0.09904,0.04962 -0.201718,0.006 -0.198719,0.09401 -0.281707,-0.02153 -0.265243,0.193736 -0.183876,-0.01809 -0.209115,0.152118 -0.189471,0.06263 -0.410567,0.009 -0.136397,0.08184 -0.368971,0.08424 -0.149399,0.01006 -0.147361,0.06965 -0.172332,0.128642 -0.229864,0.145953 -0.415152,0.01466 -0.03557,0.02214 -0.339434,-0.0097 -0.134434,-0.03839 -0.364597,-0.05865 -0.175176,-0.05083 -0.187201,0.04288 -0.446893,-0.02149 -0.206918,0.0039 -0.273444,0.01471 -0.127006,-5.85e-4 -0.255826,-0.05652 -0.417001,-0.02083 -0.201786,-0.02568 -0.308669,0.115885 -0.194977,-0.0207 -0.280986,-0.01321 -0.201584,0.0071 -0.30575,0.238038 -0.169207,0.106056 z m 1.986552,-14.043271 0.172523,-0.01832 0.206937,-0.0013 0.285722,-0.11475 0.378732,0.110756 0.245265,-0.07708 0.238487,-0.09137 0.152153,-0.02383 0.382531,0.06482 0.102392,-0.0038 0.26899,-0.11084 0.308872,-0.04109 0.22815,0.08501 0.192749,0.06552 0.25828,0.05147 0.257046,-0.113096 0.181016,0.04163 0.310827,-0.127748 0.134235,-0.04119 0.218311,0.04678 0.290381,-0.147027 0.218478,-0.0225 0.276231,-0.13598 0.146344,0.003 0.27149,-0.0013 0.150124,-0.08438 0.280534,-0.01384 0.168148,-0.118682 0.187757,-0.135642 0.307949,-0.231908 0.151323,-0.05475 0.305723,-0.08637 0.117884,-0.0957 0.162131,-0.06149 0.334419,0.0076 0.319935,-0.09534 0.147386,-0.124613 0.2344,-0.141371 0.121683,-0.03554 0.352452,-0.04705 0.143753,-0.197211 0.147365,-0.176708 0.198939,-0.184621 0.153902,-0.04872 0.206522,-0.07053 0.287922,-0.164123 0.08915,-0.101762 0.224641,-0.226827 0.305156,-0.116774 0.161906,-0.108328 0.158158,-0.04236 0.201855,-0.227308 0.133823,-0.132215 0.203088,-0.02981 0.211699,-0.07285 0.177123,-0.146991 0.150886,-0.05582 0.242,-0.09424 0.222203,-0.154509 0.04642,-0.122981 0.108766,-0.22069 0.164558,-0.157621 0.24923,-0.185165 0.0979,-0.07568 0.289319,-0.267745 0.05623,-0.0859 0.106264,-0.255358 0.269029,-0.243797 0.11991,-0.154839 0.2024,-0.09422 0.209879,-0.228945 0.15757,-0.181631 0.240213,-0.173506 0.179215,-0.1675 0.06584,-0.171158 0.0837,-0.190483 0.21601,-0.300711 0.13228,-0.05701 0.227239,-0.266603 0.118315,-0.05327 0.247131,-0.133064 0.01,-0.249297 0.144955,-0.298176 0.04112,-0.156321 0.260806,-0.208896 0.112207,-0.256488 0.04531,-0.153219 0.249336,-0.3114 0.106213,-0.01374 0.210024,-0.229772 0.06243,-0.268479 0.02909,-0.191644 0.106426,-0.338201 0.133028,-0.249928 0.07678,-0.158719 0.174218,-0.168354 0.02782,-0.179451 0.04051,-0.281796 0.138834,-0.133829 0.239836,-0.300701 0.06465,-0.191258 0.02352,-0.142474 0.196811,-0.181629 0.01374,-0.182806 0.209864,-0.263028 0.06386,-0.251122 0.06101,-0.213415 0.124221,-0.172603 0.0054,-0.149449 0.04752,-0.236569 0.12337,-0.212415 -0.02797,-0.262083 0.03298,-0.132052 0.04827,-0.192461 -0.02683,-0.377433 -0.0014,-0.209612 0.01885,-0.21198 0.239725,-0.214996 -0.007,-0.293191 -0.02002,-0.179519 0.0054,-0.319201 0.05804,-0.107168 0.156379,-0.27561 -0.01718,-0.196864 0.0707,-0.130049 -0.03152,-0.248535 0.158773,-0.178484 0.02505,-0.173178 0.03663,-0.326761 -0.04778,-0.140312 -0.02955,-0.377415 0.01247,-0.108483 -0.0023,-0.202606 0.05678,-0.24774 0.05463,-0.459994 -0.0021,-0.198601 -0.06476,-0.233311 0.0718,-0.215699 -0.0211,-0.171401 -0.11935,-0.354225 0.06689,-0.282201 0.02983,-0.140471 0.06724,-0.381628 -0.0239,-0.252522 0.0399,-0.177048 -0.154569,-0.263441 0.02203,-0.331082 -0.0399,-0.172517 0.102406,-0.277308 0.05924,-0.344768 -0.0633,-0.173993 -0.08186,-0.228292 0.07961,-0.217356 0.09011,-0.274818 0.07296,-0.258472 -0.0477,-0.168003 -0.09335,-0.385259 -0.02005,-0.213802 -0.0035,-0.126222 -0.09861,-0.263652 0.01535,-0.379574 -0.04132,-0.136927 -0.0024,-0.174438 0.118289,-0.396942 -0.03088,-0.113035 0.04928,-0.2572 -0.223082,-0.161802 -0.08869,-0.05384 -0.278792,-0.0571 -0.218077,-0.123642 -0.100661,-0.03242 -0.114001,-0.154074 -0.266604,-0.08135 -0.227867,0.08346 -0.34493,0.0017 -0.21935,0.0073 -0.146091,0.04213 -0.346162,-0.09322 -0.143659,-0.02379 -0.340439,0.109823 -0.299627,6.27e-4 -0.149897,0.05061 -0.252485,0.08044 -0.373532,0.01796 -0.185002,-0.06987 -0.161743,0.02607 -0.312518,-0.133559 -0.312453,0.04984 -0.12788,0.008 -0.414427,-0.03831 -0.145067,-0.05622 -0.203736,0.04624 -0.174452,-0.03302 -0.345422,0.110805 -0.158448,-0.01981 -0.344667,0.103932 -0.263567,-0.0854 -0.262741,0.05821 -0.214404,-0.07943 -0.248195,-0.0862 -0.319821,0.049 -0.220987,0.04485 -0.145217,-0.02637 -0.413183,0.0427 -0.149855,-0.05818 -0.285816,-0.08308 -0.273488,-0.04734 -0.140261,0.0092 -0.213583,0.01414 -0.473619,0.02758 -0.179432,0.02261 -0.15711,0.05989 -0.247164,-0.05756 -0.299232,-0.02496 -0.153112,0.08567 -0.258547,-0.05307 -0.311405,-0.02061 -0.165204,0.0079 -0.261525,0.20292 -0.242004,0.102548 -0.19193,-0.110952 -0.22953,-0.04757 -0.171679,0.05464 -0.232025,0.114563 -0.422656,0.02395 -0.09796,0.04374 -0.209146,-0.03762 -0.412991,0.05781 -0.17437,0.05185 -0.218956,-0.01132 -0.287091,0.09327 -0.125969,0.0545 -0.340473,-0.04109 -0.13644,0.06647 -0.366804,0.06354 -0.192526,0.02326 -0.240867,-0.0099 -0.24786,0.02986 -0.115954,0.01349 -0.221729,-0.02462 -0.310689,-0.04074 -0.169896,0.07492 -0.365561,0.01379 -0.256635,0.213201 -0.303371,0.04958 -0.103632,0.02957 -0.369377,0.01061 -0.09421,0.0166 -0.35128,0.08873 -0.200034,0.02383 -0.24037,0.0172 -0.151944,0.07117 -0.164181,0.02071 -0.406562,0.06096 -0.160812,0.04071 -0.198732,0.05762 -0.167203,-0.06199 -0.21718,-0.01042 -0.294958,0.05837 -0.09934,0.0538 -0.180516,0.09733 -0.379837,0.105974 -0.100256,-0.01291 -0.172855,0.03274 -0.310285,-0.04791 -0.13485,0.06797 -0.301935,-0.0056 -0.209767,0.0115 -0.158284,0.164812 -0.16559,0.132672 -0.264299,-0.02883 -0.226566,0.04984 -0.209467,0.149416 -0.152957,0.01448 -0.336547,-0.0047 -0.137173,0.128375 -0.170182,0.06779 -0.368496,0.15229 -0.275548,0.07716 -0.173115,-0.0098 -0.125967,0.03331 -0.189852,0.113204 -0.270746,0.130089 -0.326069,-0.06513 -0.186965,0.03103 -0.16225,0.05947 -0.138654,0.157094 -0.2726,0.05232 -0.174573,0.08384 -0.124488,0.142958 -0.251222,0.05128 -0.132276,0.17119 -0.149453,0.08463 -0.179128,0.121123 -0.399572,0.20885 -0.09863,-0.06877 -0.118332,0.152155 -0.257863,0.275601 -0.20376,0.03991 -0.246126,0.203953 -0.144357,0.03073 -0.236631,0.06981 -0.273082,0.18592 -0.173485,0.211174 -0.17009,0.04241 -0.211566,0.06668 -0.221918,0.08892 -0.307239,0.242325 -0.08293,0.169857 -0.09523,0.149676 -0.07424,0.168021 -0.204238,0.106177 -0.09968,0.167964 -0.106414,0.234773 -0.295083,0.128401 -0.186689,0.13206 -0.143461,0.203543 -0.202283,0.191356 -0.129919,0.09203 -0.196353,0.227346 -0.06704,0.08534 -0.119493,0.323999 -0.10669,0.153621 -0.150085,0.133323 -0.01231,0.243741 -0.118336,0.146433 -0.195527,0.354735 -0.0027,0.136671 -0.188508,0.241141 -0.08732,0.135975 -0.135329,0.224596 0.0667,0.386771 -0.113203,0.287815 -0.02513,0.115007 -0.04029,0.278069 -0.05712,0.18287 -0.08686,0.201251 -0.114123,0.194802 -0.242369,0.146253 -0.219428,0.342534 -0.0817,0.247354 -0.07254,0.226335 0.01918,0.333149 0.0502,0.184332 -0.03854,0.257268 0.07205,0.208461 -0.04548,0.268839 -0.05181,0.195843 0.107088,0.215825 -0.0699,0.291755 0.04758,0.13753 0.09332,0.262969 0.05201,0.294667 -0.02154,0.273771 -0.0055,0.236906 -0.0176,0.252999 0.0074,0.239397 -0.07663,0.156912 0.06668,0.252038 0.05271,0.282691 -0.0381,0.179354 -0.08942,0.213323 -0.183425,0.337905 0.184875,0.244813 0.0066,0.237445 0.110886,0.138828 0.08743,0.357878 0.0539,0.08507 0.102192,0.340332 0.01659,0.107805 0.200679,0.268489 -0.0024,0.17296 0.0977,0.247121 0.142404,0.149795 0.147098,0.169846 0.129747,0.346963 0.0878,0.132155 0.06121,0.269424 0.101719,0.148489 -0.01491,0.230686 0.0704,0.130216 0.119637,0.206432 0.101967,0.283716 0.194175,0.121223 0.234514,0.217774 0.162436,0.210918 0.01652,0.146091 0.132739,0.125811 0.236524,0.179104 0.257215,0.274899 -0.01836,0.2333 0.197785,0.299218 0.09127,0.148148 0.128425,0.133119 0.176642,0.103313 0.270697,0.09012 0.162472,0.338018 0.09867,0.129822 0.156641,0.09975 0.294279,0.274247 0.15763,0.04712 0.103083,0.119323 0.108158,0.123798 0.333689,0.148257 0.161533,0.108121 0.150606,0.04949 0.09701,0.166723 0.238112,0.242666 0.208279,0.173265 0.09804,0.115715 0.170689,0.03078 0.178616,0.06015 0.318961,0.144615 -0.0028,0.205291 0.162457,-0.09679 0.289662,0.05441 0.197198,0.159933 0.163446,0.124347 0.158134,0.0049 0.185657,0.170048 0.144635,0.02944 0.209081,0.162022 0.195165,-0.08551 0.226333,0.03056 0.132239,0.113374 0.296148,0.04799 0.302922,0.152102 0.144325,0.05097 0.240324,0.123435 0.01609,0.170403 0.28243,-0.03739 0.129517,0.02662 0.287846,-0.06029 0.174612,0.06569 0.275793,0.150434 0.341622,0.02815 0.118607,-0.02521 0.182936,0.06324 0.423615,0.02155 0.136593,0.05849 0.264028,-0.03903 0.297914,0.0408 0.198714,9.6e-4 0.236791,0.03173 0.152134,0.07171 0.15593,0.01778 0.397908,-0.01516 0.125645,0.05867 0.276921,-0.04672 0.244509,0.0205 0.164939,0.09057 0.219349,-0.06551 0.170068,0.03448 0.365255,0.06515 0.130186,-0.05337 0.350465,-0.121701 0.112717,0.119328 z"
     id="path1185"
     inkscape:path-effect="#path-effect1189"
     inkscape:original-d="m 35.961358,91.107629 -4.497916,0.10815 -1.780178,-0.22689 -1.780175,-0.22688 -0.892061,-0.29441 -0.892058,-0.2944 -1.540341,-0.2507 -1.54034,-0.2507 -1.475965,-0.56451 -1.475965,-0.56452 -1.322917,-0.61648 -1.322916,-0.61647 -0.661459,-0.29431 -0.661458,-0.29431 -0.933286,-0.58171 -0.933286,-0.58169 -0.883913,-0.52917 L 12.48321,84.499463 10.723354,83.044255 8.963498,81.589047 8.07732,80.663005 7.191142,79.736964 6.332659,78.67863 5.4741746,77.620297 4.5693576,76.297381 3.6645396,74.974464 2.8351606,73.254672 2.0057826,71.534881 1.4592726,70.17302 0.9127626,68.811162 0.51154062,66.139868 0.11031762,63.468571 v -1.575688 -1.575692 l 0.396317,-3.023274 0.39631698,-3.023275 0.671213,-1.818923 0.671213,-1.81892 0.699305,-1.322917 0.699305,-1.322917 0.984348,-1.322916 0.984349,-1.322917 1.4160044,-1.339953 1.416004,-1.339953 0.926042,-0.668623 0.926041,-0.668621 2.470382,-1.358773 2.470382,-1.358773 0.83691,-0.247504 0.836909,-0.247504 1.322917,-0.526759 1.322916,-0.526757 2.175743,-0.687035 2.17574,-0.687036 h 0.750991 0.75099 l 2.019671,-0.529002 2.01967,-0.529 4.314015,-0.262385 4.314013,-0.262382 9.408283,-0.0024 9.408284,-0.0024 0.507135,-0.370825 0.507132,-0.370826 0.100401,-1.988222 0.100402,-1.988225 -0.30697,-2.306732 -0.306969,-2.30673 -0.947711,-1.882621 -0.947711,-1.882656 -1.917838,-1.852083 -1.917837,-1.852083 -0.96901,-0.591556 -0.969013,-0.591558 -2.037831,-0.852926 -2.037831,-0.852927 h -5.688542 -5.688541 l -2.116666,0.876022 -2.116667,0.876022 -1.322917,1.081916 -1.322916,1.081913 -0.748604,0.877715 -0.748602,0.877718 -0.739595,1.386954 -0.739595,1.386956 -0.606213,2.910417 -0.606213,2.910416 -0.402193,0.472083 -0.402194,0.472086 -9.882502,-0.07518 -9.8825014,-0.07521 -0.250696,-0.396875 -0.250696,-0.396875 6.88e-4,-1.190625 6.88e-4,-1.190625 0.758572,-3.090169 0.758571,-3.090169 1.197681,-2.395995 1.1976794,-2.395995 0.618699,-0.806902 0.618699,-0.806903 1.322917,-1.520211 1.322916,-1.520212 1.322917,-1.1957383 1.322917,-1.1957392 0.760503,-0.515982 0.760498,-0.515983 1.09158,-0.714466 1.09158,-0.714467 1.910701,-0.939179 1.910702,-0.939179 h 0.209883 0.209884 l 0.922123,-0.49021 0.922123,-0.49021 1.455208,-0.339045 1.455208,-0.339044 0.672383,-0.339609 0.672383,-0.33961 1.97345,-0.274644 1.973451,-0.274643 1.852083,-0.45607098 1.852083,-0.45607096 6.35,0.0068 6.349999,0.0068 2.38125,0.54323596 2.38125,0.54323598 1.473171,0.171943 1.473173,0.171943 0.720815,0.373964 0.720818,0.373964 0.981011,0.165997 0.981012,0.165996 1.455208,0.657833 1.455208,0.657833 1.5875,0.803154 1.5875,0.803154 1.058333,0.692639 1.058334,0.692638 1.891762,1.522098 1.891763,1.5220975 1.387618,1.743843 1.387618,1.743843 0.608488,0.896657 0.608486,0.896657 0.940779,1.955956 0.940777,1.955955 0.0034,0.369113 0.0034,0.369112 0.584234,1.719792 0.584235,1.719791 0.139956,21.563541 0.139957,21.56354 0.697613,1.058333 0.697611,1.058334 0.757598,0.681794 0.757594,0.681794 1.691169,0.738944 1.691169,0.738944 3.865081,-0.166216 3.865073,-0.166219 1.21972,-0.153737 1.21972,-0.153736 0.16573,0.619006 0.16573,0.619009 0.004,8.649488 0.004,8.649482 -0.28668,0.17718 -0.28667,0.17717 -2.5576,0.36247 -2.557591,0.36246 -4.894792,0.003 -4.894791,0.003 -3.371466,-0.39695 -3.371466,-0.39696 -1.258742,-0.55801 -1.258742,-0.55801 -0.816512,-0.38385 -0.816512,-0.38385 -1.494878,-1.17328 -1.494879,-1.17327 -1.35078,-1.718841 -1.350783,-1.718836 h -0.635096 -0.634354 l -1.524307,1.153908 -1.524309,1.153912 -0.79375,0.449606 -0.79375,0.449611 -1.322917,0.77936 -1.322916,0.77936 -0.661459,0.28549 -0.661458,0.28548 -1.058333,0.47594 -1.058333,0.47593 -1.719792,0.57986 -1.719792,0.57986 -2.248958,0.49878 -2.248958,0.49878 -0.926042,0.28384 -0.926041,0.28384 -4.497917,0.10815 z m 1.984375,-14.04479 1.190625,-0.08835 1.944782,-0.158755 1.944783,-0.158753 1.960925,-0.785193 1.960925,-0.785194 0.989084,-0.645176 0.989084,-0.645173 1.022225,-0.733808 1.022228,-0.733806 1.671622,-1.798564 1.671619,-1.79856 0.866216,-1.508731 0.86622,-1.508728 0.623678,-1.455208 0.623681,-1.455209 0.371086,-1.984375 0.371086,-1.984374 0.0092,-4.687046 0.0092,-4.687044 -0.511773,-0.273894 -0.511773,-0.273891 -4.978331,0.01664 -4.978331,0.01664 -2.116666,0.21926 -2.116667,0.219263 -3.307291,0.44169 -3.307292,0.441693 -1.455208,0.397674 -1.455208,0.397671 -1.322917,0.344778 -1.322916,0.344776 -1.190625,0.605348 -1.190625,0.605349 -1.386038,0.897154 -1.386039,0.897152 -0.995211,1.186876 -0.995212,1.186878 -0.761815,1.77755 -0.761817,1.77755 -0.125082,2.927612 -0.125082,2.927612 0.811078,1.906002 0.811077,1.906006 0.737278,0.979101 0.73728,0.979104 0.868672,0.770831 0.868672,0.770835 1.047265,0.758634 1.047266,0.758637 h 0.150969 0.150966 l 1.379249,0.652489 1.379251,0.652492 2.50697,0.237434 2.506969,0.237437 1.190625,-0.08835 z" /></svg>
