<?xml version="1.0" encoding="UTF-8" standalone="no"?>
<!-- Created with Inkscape (http://www.inkscape.org/) -->

<svg
   width="126.47069mm"
   height="83.040253mm"
   viewBox="0 0 126.47069 83.040253"
   version="1.1"
   id="svg2410"
   inkscape:version="1.2.2 (b0a8486541, 2022-12-01)"
   sodipodi:docname="example3_lin_rough_ink2.svg"
   xmlns:inkscape="http://www.inkscape.org/namespaces/inkscape"
   xmlns:sodipodi="http://sodipodi.sourceforge.net/DTD/sodipodi-0.dtd"
   xmlns="http://www.w3.org/2000/svg"
   xmlns:svg="http://www.w3.org/2000/svg">
  <sodipodi:namedview
     id="namedview2412"
     pagecolor="#505050"
     bordercolor="#eeeeee"
     borderopacity="1"
     inkscape:showpageshadow="0"
     inkscape:pageopacity="0"
     inkscape:pagecheckerboard="0"
     inkscape:deskcolor="#505050"
     inkscape:document-units="mm"
     showgrid="false"
     inkscape:zoom="2.0562048"
     inkscape:cx="262.37659"
     inkscape:cy="154.16752"
     inkscape:window-width="1920"
     inkscape:window-height="1011"
     inkscape:window-x="0"
     inkscape:window-y="0"
     inkscape:window-maximized="1"
     inkscape:current-layer="svg2410" />
  <defs
     id="defs2407">
    <inkscape:path-effect
       effect="roughen"
       id="path-effect240"
       is_visible="true"
       lpeversion="1.2"
       method="size"
       max_segment_size="0.349"
       segments="2"
       displace_x="0.14;1"
       displace_y="0.2;1"
       global_randomize="1;1"
       handles="along"
       shift_nodes="true"
       fixed_displacement="false"
       spray_tool_friendly="false" />
  </defs>
  <path
     d="m 0.30134584,0.30184632 0.31308157,-0.0562714 0.44856609,0.0239319 0.2401184,-0.0421096 0.3430671,-0.0273827 0.3573143,5.6946e-4 0.3640284,0.0202321 0.2930738,-0.0571313 0.4089122,0.0278463 0.2992827,0.003297 0.3625723,0.0208214 0.3214213,0.004189 L 4.3943965,0.223189 4.7018326,0.10851645 5.0509306,0.04638596 5.4568231,0.05966113 5.7620899,0.0713708 6.1034203,0.08409949 6.4474904,0.09994264 6.9002142,0.11797586 7.1065968,-0.01188453 7.4803927,0.01164224 7.8144378,0.03188365 8.2210037,0.08803614 8.4857302,0.0835 8.8285182,0.08888356 9.1608811,0.07464743 9.4975223,0.0620375 9.848825,0.01100734 l 0.345835,0.01185284 0.346277,0.02176952 0.327629,-0.0728872 0.445629,0.07400409 0.27329,0.04643563 0.350022,0.06295898 0.373641,0.033019 0.238246,-0.0453175 0.400052,0.0608329 0.285439,-0.11168249 0.393065,0.12536494 0.358781,0.0850224 0.322133,-0.0334034 0.397442,0.0372778 0.291323,-0.0224281 0.350093,-0.007094 0.315735,-0.12049342 0.354395,-0.0461615 0.338187,-0.09253828 0.361756,-0.06361459 0.350627,-0.13182365 0.358355,-0.0467006 0.3531,0.0270224 0.447345,0.0546255 0.27137,0.0262542 0.28184,-0.15790903 0.374161,0.0271156 0.367745,0.0586852 0.305814,0.020287 0.400896,0.0539235 0.279815,0.02368152 0.398852,0.04771432 0.273804,0.017392 0.322148,-0.02022707 0.400016,0.05603347 0.312173,0.03863908 0.348219,0.05096046 0.349425,0.05936752 0.373991,0.0529409 0.241137,-0.0839112 0.383295,0.0469186 0.310159,-0.0189945 0.441655,0.0673334 0.332087,0.0762 0.26092,-0.0609894 0.34062,-0.0136509 0.400738,0.006654 0.29925,-0.0131266 0.350604,-0.13559321 0.357291,0.0073469 0.368988,0.0218558 0.314398,-0.04185038 0.344097,-0.03247916 0.439774,0.04703116 0.261454,-0.02426425 0.345133,-0.02109421 0.361442,0.0018307 0.352942,0.0032967 0.368783,0.00834 0.296867,-0.08847081 0.376323,-0.04871097 0.431062,0.04429914 0.264104,-0.12428537 0.354519,-0.0129967 0.350033,0.005659 0.426703,0.0514421 0.257912,-0.0160396 0.417825,0.0497642 0.281976,-0.0080362 0.345288,-0.14917518 0.338603,-0.050178 0.46527,0.0230446 0.314595,0.0362478 0.305814,0.0209041 0.360093,0.0215286 0.336733,0.0244763 0.336412,0.0108154 0.415871,0.0315593 0.344455,0.03202878 0.356049,0.0067474 0.378681,0.02574104 0.269591,0.03437328 0.336508,0.02337053 0.325535,-0.00368288 0.34634,-0.02562835 0.39001,0.04039425 0.324186,0.01503258 0.318033,-0.08142711 0.3694,-0.0021493 0.350437,0.0043897 0.333373,-0.04439773 0.366659,0.008258 0.357428,0.01741408 0.326589,-0.01249145 0.385536,0.03392699 0.348473,0.0357038 0.36658,0.04708057 0.302155,0.0043268 0.449743,0.02403104 0.2627,0.0205621 0.322622,-0.01243417 0.356346,0.0016518 0.350621,0.0044321 0.358951,0.01842276 0.33472,-0.0026024 0.348711,-0.01800305 0.336248,-0.06127186 0.371389,0.01083153 0.340708,0.0023128 0.341202,-0.03193224 0.354354,-0.0012671 0.433738,0.02638948 0.266212,-0.01576426 0.394575,0.05118138 0.279112,-0.07105938 0.466442,0.0571566 0.261281,0.0093867 0.344863,0.0098589 0.353918,0.01173241 0.342099,0.0084486 0.362093,0.02685718 0.336407,0.0118962 0.343424,-0.17469165 0.365608,0.02096597 0.324462,-0.02685805 0.386913,0.0384243 0.37331,0.05010109 0.295891,0.0033201 0.350083,-0.01544327 0.351407,-0.03719833 0.345156,-0.003232 0.413077,0.0465563 0.30501,0.02803587 0.361547,0.05249349 0.407717,0.05455268 0.239996,-0.0197285 0.366916,0.024232 0.368536,0.0353978 0.359964,0.0432061 0.408817,0.0303058 0.31502,0.0539282 0.311555,0.008222 0.403664,0.04063 0.267249,-0.0356055 0.424677,0.009995 0.259332,-0.0859348 0.352724,-0.0372455 0.380404,0.001979 0.395419,0.009552 0.273191,-0.0133675 0.359189,0.0127953 0.311042,-0.13594499 0.371856,0.0030343 0.363692,0.02573341 0.343709,0.0233383 0.310504,-0.0296294 0.372965,0.0153968 0.333594,0.001011 0.374796,0.0298762 0.366259,0.004068 0.273774,-0.0640889 0.376902,0.0130233 0.365663,0.0357685 0.33846,0.007897 0.378071,0.0461473 0.282849,-0.0225586 0.347504,-0.0484916 0.347672,-0.08130413 0.345063,-1.2131e-4 0.378022,0.02341654 0.330281,0.01718942 0.327242,-0.11881771 0.372989,0.0248069399 0.324652,0.00581962 0.317467,-0.08171611 0.372469,-0.04151691 0.35662,0.0168141 0.339196,0.0086152 0.333976,-0.0098037 0.363412,0.01747495 0.347346,0.01731724 0.344162,0.01607713 0.348848,0.01936381 0.382162,0.05575015 0.291648,-0.0423497 0.348134,0.01107665 0.354929,0.02321305 0.317975,-0.01969284 0.365299,0.01664958 0.351969,0.02471048 0.32421,-0.0279965 0.368723,0.02611354 0.336478,0.01883875 0.329968,-0.0081856 0.359827,0.0206744 0.353513,0.03262089 0.333368,0.01838199 0.366567,0.0232164 0.401888,0.0283501 0.325307,0.0285974 0.33581,0.0576833 0.293455,0.0142311 0.335461,-0.0485212 0.432044,0.0652109 0.248844,-0.11495291 0.39735,0.16620171 0.43431,0.004723 0.273318,0.0131385 0.359565,0.004369 0.324156,-7.93e-6 0.345024,-0.0898714 0.481328,0.005833 0.197649,-0.0408622 0.406751,0.036064 0.299106,-0.0132283 0.353537,-0.001485 0.364352,0.0143009 0.340323,0.004297 0.437512,0.003154 0.232682,-0.0471507 0.363475,-0.001659 0.346982,-0.0364332 0.341904,-0.0358337 0.352985,-0.0158579 0.36308,0.007317 0.333418,-3.4639e-4 0.390002,0.0106214 0.391067,0.0351503 0.259505,-0.0208916 0.342293,-0.021435 0.43892,0.0286841 0.323496,0.0248681 0.331599,0.0340876 0.401011,0.0188293 0.240581,-0.0190792 0.392864,0.0369702 0.315294,0.003465 0.415511,0.0112837 0.288827,0.001981 0.409239,0.0390791 0.25293,-0.0532652 0.360787,-0.0128453 0.421738,0.040809 0.29789,0.0130468 0.328807,-0.0939728 0.339896,-0.036121 0.359643,-0.0404182 0.352688,0.0127491 0.402668,0.0305112 0.27814,-0.0159271 0.337934,-0.11089011 0.359088,-0.09787322 0.414781,0.04428627 0.312145,0.0286746 0.403208,0.08495016 0.274591,-0.09033871 0.39737,0.08132813 0.386135,0.0696412 0.316733,0.0751866 0.276339,0.004777 0.416115,0.0638933 0.31498,-0.0873821 0.39181,0.003202 0.33262,-0.007755 0.36913,0.0206557 0.33322,0.001477 0.34322,-0.010706 0.36784,0.0158552 0.34916,0.005796 0.39427,0.0283441 0.31543,0.008822 0.31044,-0.0190716 0.33237,-0.053917 0.35247,-0.0525347 0.37888,0.007236 0.33605,0.001203 0.33995,-0.0459468 0.34155,-0.0334559 0.41938,0.0386784 0.27767,-0.0296213 0.37418,0.006131 0.31381,-0.06546843 0.44027,0.03108165 0.25188,-0.10883852 0.42359,0.03938222 0.30428,0.006432 0.31989,-0.11908768 0.37605,-0.0024403 0.3508,-0.04593285 0.35704,0.0110733 0.33139,-0.0100862 0.33885,-0.0283239 0.39084,0.0250254 0.33189,0.0147066 0.34209,0.00854 0.40929,0.04727692 0.25172,-0.07545281 0.4029,0.0195319 0.31751,-0.13534023 0.38697,0.0345456 0.37913,0.02369 0.29543,0.00745 0.34512,0.004186 0.33306,-0.11525785 0.381,0.0203366 0.35635,0.0291339 0.33891,0.0199092 0.37549,0.0308026 0.29849,-0.0348046 0.38809,0.0367891 0.44182,0.022561 0.22925,0.007241 0.3535,0.0236382 0.33027,-0.0767163 0.39073,0.0463016 0.34311,0.0373078 0.32123,0.008565 0.37134,0.03513127 0.40242,0.05302739 0.28162,0.02729596 0.38114,0.02233021 0.2885,-0.003029116 0.43996,0.0526148358 0.26065,0.01159522 0.39748,0.06308722 0.27754,-0.07998576 0.3747,0.02848976 0.3276,-0.03100792 0.37878,0.04466795 0.41438,0.07534489 0.26494,0.0228911 0.3124,-0.0578269 0.38226,0.037492 0.36128,0.0782513 0.40249,0.0692467 -0.0182,0.2951192 0.0101,0.40176994 -0.004,0.1728131 7.1e-4,0.5171164 0.0554,0.3558247 0.002,0.3404075 0.0126,0.3617121 0.027,0.3508343 0.008,0.338959 0.0273,0.3648971 -0.003,0.3159282 0.0395,0.3522791 -0.0208,0.2764423 0.007,0.4273505 -0.0268,0.2683665 0.0774,0.4442065 -0.005,0.3149131 -0.007,0.346328 -0.009,0.3137862 0.11014,0.3963115 0.0114,0.3616097 -0.006,0.3261715 -0.0334,0.2949102 -0.039,0.3021094 -0.006,0.4414943 -0.0113,0.3381783 -0.0143,0.3393177 -0.0156,0.3435217 -0.0109,0.327491 -0.0338,0.294353 -0.009,0.429295 0.0152,0.351211 -0.0167,0.329283 -0.0321,0.308215 0.0256,0.40318 0.007,0.361115 -0.0214,0.312796 -0.0293,0.330738 -0.0266,0.319865 0.10898,0.407218 -0.0164,0.355335 -0.0203,0.358931 -3.6e-4,0.350702 -0.10106,0.292985 -0.003,0.218367 0.0436,0.506242 0.006,0.322861 -0.0175,0.303641 -0.005,0.344233 0.001,0.380929 -0.0227,0.272192 -0.003,0.410868 0.0304,0.369478 0.0649,0.345634 0.11009,0.327695 0.005,0.359748 0.0352,0.364563 -0.0166,0.294407 0.0464,0.390842 -0.0258,0.287756 0.001,0.388852 -0.008,0.162041 0.0205,0.551967 0.063,0.318246 0.0419,0.387369 -0.0196,0.281454 -0.0118,0.366357 -0.012,0.341217 -0.0287,0.317411 0.0615,0.386204 0.0339,0.381462 -0.0171,0.29286 -0.0138,0.358529 0.0837,0.366174 0.0359,0.343665 -0.0296,0.313168 -0.0388,0.332925 -0.0164,0.380937 0.0132,0.363366 -0.0257,0.283162 0.0558,0.389725 -0.0222,0.349131 -0.0269,0.303892 -0.009,0.401358 -0.0468,0.252144 -0.003,0.437098 -0.025,0.314761 0.0176,0.378351 -0.0554,0.244009 -0.0297,0.396636 -0.033,0.316785 0.0106,0.400982 -0.0463,0.185844 -0.0279,0.494977 0.002,0.345211 -0.0344,0.319843 0.01,0.401801 0.0456,0.33818 -0.0561,0.293829 0.0338,0.387348 0.007,0.35592 -0.0791,0.343035 -0.0742,0.331216 -0.0838,0.318 0.0106,0.347936 -0.0108,0.312211 0.0309,0.397481 0.008,0.325263 0.01,0.34614 0.0562,0.38656 -0.0163,0.240585 0.014,0.41511 0.0859,0.342597 0.0416,0.348506 -0.0111,0.28523 -0.008,0.352785 0.004,0.386345 0.002,0.338612 -0.003,0.34243 0.0668,0.383501 0.002,0.318721 0.009,0.353738 -0.0144,0.240858 0.004,0.441908 -0.002,0.335839 0.0571,0.373679 -0.0113,0.305381 -0.0137,0.304808 0.007,0.409724 0.003,0.344181 0.0315,0.376613 9.9e-4,0.313416 4.4e-4,0.161309 0.0155,0.535658 -0.005,0.278909 0.0169,0.423106 0.0286,0.356397 -0.003,0.315991 0.0121,0.361311 -0.006,0.326199 -0.0118,0.318267 0.0484,0.378334 -0.0162,0.30244 0.003,0.397273 0.0186,0.357068 -0.005,0.327952 0.0949,0.352288 0.0966,0.367576 -0.0226,0.344425 -0.0314,0.332267 0.0211,0.374343 -0.0364,0.323283 -0.0385,0.340272 -0.0327,0.347196 0.0517,0.372235 0.0117,0.357253 -0.18881,0.276211 -0.0246,0.27143 -0.0192,0.388132 -0.009,0.387238 -0.003,0.353 -0.0342,0.290194 -0.0291,0.262281 -0.005,0.491293 0.0227,0.364482 -0.0126,0.316854 -0.0217,0.33369 0.0253,0.395903 0.003,0.326836 -0.0251,0.182506 -0.0315,0.486208 -0.0255,0.323783 -0.0468,0.313161 -0.0401,0.348178 0.003,0.427595 -0.0183,0.291752 0.0231,0.414503 -0.0292,0.300352 -0.022,0.349533 -1.2e-4,0.380071 0.002,0.357394 -0.0275,0.344124 -0.32122,0.01421 -0.3901,-0.04117 -0.35464,-0.05235 -0.33546,-0.133741 -0.32257,0.003 -0.30691,0.02924 -0.38059,0.0211 -0.38581,-0.01786 -0.35202,-0.0361 -0.29558,0.0339 -0.39754,-0.01828 -0.26192,0.02607 -0.43028,-0.0073 -0.35679,-0.06383 -0.28135,0.03995 -0.40742,-0.004 -0.31507,0.02759 -0.37686,0.0018 -0.29935,0.02575 -0.32077,-0.0093 -0.42735,-0.0082 -0.38809,-0.137196 -0.32595,-0.01188 -0.3456,-0.0042 -0.37657,-0.07283 -0.30382,0.03051 -0.37994,-0.03821 -0.34423,0.03146 -0.36877,-0.07048 -0.3601,-0.01508 -0.28052,0.05311 -0.38635,0.02706 -0.35656,0.0087 -0.34718,4.07e-4 -0.31156,0.04385 -0.37626,-0.103564 -0.37312,-0.04769 -0.3286,-0.02902 -0.24339,0.04467 -0.41531,0.05722 -0.35595,0.0379 -0.36351,-0.02727 -0.29346,0.06436 -0.35268,0.0327 -0.37996,-0.04753 -0.35916,-0.131227 -0.36533,0.01643 -0.30472,0.07104 -0.32097,0.07585 -0.4098,-0.01294 -0.31042,0.0488 -0.35588,-0.157612 -0.39423,-0.06974 -0.38406,0.04869 -0.33237,0.0665 -0.31632,0.09348 -0.34455,0.07008 -0.31651,0.09724 -0.2954,0.09438 -0.38134,-0.05482 -0.33481,0.05675 -0.35061,-0.04241 -0.34089,0.05394 -0.35646,0.01187 -0.32364,0.05008 -0.34745,0.03676 -0.29542,0.06477 -0.38534,-0.04835 -0.33411,0.07036 -0.23403,0.08482 -0.44113,0.04133 -0.26841,0.09458 -0.34125,0.102047 -0.37089,0.06289 -0.27391,0.100562 -0.332817,0.08355 -0.381126,0.0614 -0.25833,0.06739 -0.393944,0.0863 -0.348332,0.0556 -0.345262,-0.0055 -0.365064,-0.05529 -0.340548,0.0694 -0.351512,0.03202 -0.351653,0.01608 -0.330434,0.03878 -0.340322,0.147763 -0.228881,0.172064 -0.361905,0.102141 -0.341978,0.07937 -0.329316,-0.0394 -0.266508,0.127819 -0.419963,0.140764 -0.339988,0.09864 -0.361965,0.01734 -0.323086,0.115309 -0.343034,0.03622 -0.349418,0.10645 -0.317615,0.122247 -0.251215,0.135755 -0.35273,0.17224 -0.376431,0.06172 -0.33748,-0.02278 -0.383592,0.02609 -0.347381,0.140101 -0.285128,0.158551 -0.335771,0.139615 -0.26768,0.168892 -0.363873,0.126684 -0.32417,0.119477 -0.309979,0.133338 -0.294774,0.146475 -0.36738,0.10388 -0.318049,0.116167 -0.311062,0.13186 -0.371095,0.05938 -0.31452,0.13197 -0.34578,0.07899 -0.296491,0.142005 -0.366262,0.0052 -0.289702,0.179879 -0.260633,0.182585 -0.404374,0.08316 -0.298103,0.154843 -0.281204,0.150768 -0.348959,0.149892 -0.319189,0.135584 -0.262283,0.152422 -0.396957,0.10429 -0.314355,0.123024 -0.338212,-0.01674 -0.371575,0.124899 -0.30994,0.132718 -0.313077,0.147098 -0.335346,0.103035 -0.328749,0.119731 -0.311287,0.129826 -0.352257,0.08721 -0.290758,0.135382 -0.350773,0.01183 -0.3744,0.122747 -0.314306,0.136999 -0.350625,-0.0064 -0.367046,0.141304 -0.330759,0.06426 -0.322785,0.176652 -0.321695,0.08182 -0.361904,0.131066 -0.323961,0.124641 -0.293785,0.197419 -0.284474,0.16742 -0.288687,0.201127 -0.209203,0.174232 -0.376163,0.191825 -0.33399,0.135357 -0.353974,0.003 -0.293943,0.15124 -0.330988,0.154019 -0.280774,0.170917 -0.299255,0.164101 -0.282168,0.191404 -0.314772,0.184231 -0.397973,0.02229 -0.337119,0.132366 -0.318981,0.141082 -0.356286,0.04587 -0.276611,0.176047 -0.297612,0.186205 -0.351788,0.149135 -0.330112,0.05893 -0.3374,0.155483 -0.33474,0.100168 -0.323141,0.138621 -0.311452,0.177418 -0.295912,0.179479 -0.310947,0.133691 -0.298182,0.14937 -0.312963,0.134987 -0.323823,0.126836 -0.301513,0.133226 -0.241636,0.179127 -0.337441,0.155153 -0.282202,0.181477 -0.35999,0.123998 -0.321155,0.107232 -0.302462,0.131036 -0.338688,0.02977 -0.317236,0.150287 -0.357186,0.04441 -0.232969,0.161883 -0.386474,0.11168 -0.336755,0.0762 -0.29579,0.177421 -0.217019,0.173787 -0.393087,0.07022 -0.330621,0.115712 -0.341844,0.07513 -0.307582,0.116016 -0.295127,0.118953 -0.313122,0.139673 -0.375266,0.02134 -0.336444,0.106742 -0.31925,0.113956 -0.333833,0.09636 -0.24116,0.11523 -0.400121,0.123742 -0.330742,0.09536 -0.296379,0.121559 -0.32647,0.131039 -0.345451,0.09002 -0.273739,0.123196 -0.279194,0.129336 -0.398474,0.121585 -0.306498,0.127278 -0.363839,0.06508 -0.325468,0.08943 -0.302339,0.09801 -0.361204,0.08224 -0.351258,-0.01198 -0.263505,0.123281 -0.369682,0.136247 -0.35643,0.02287 -0.32509,0.117131 -0.302447,0.157967 -0.33124,0.07076 -0.368118,-0.09333 -0.338161,0.07192 -0.357714,0.03785 -0.332963,0.06547 -0.350885,0.04551 -0.335556,0.06044 -0.296607,0.09376 -0.269628,0.104787 -0.461797,-0.05278 -0.343592,0.02799 -0.371249,-0.0139 -0.32981,0.0189 -0.336086,0.08917 -0.331445,0.08051 -0.366595,0.04243 -0.322779,0.08123 -0.298014,0.116499 -0.381728,-0.03197 -0.377342,-0.03783 -0.337901,0.09697 -0.276118,0.134766 -0.382282,0.0025 -0.362077,0.0563 -0.358852,0.02786 -0.329477,0.101605 -0.322784,0.09685 -0.333476,0.102843 -0.346346,0.0024 -0.367192,0.07146 -0.296327,0.11598 -0.340388,0.119396 -0.313519,0.125387 -0.231773,0.118123 -0.320301,0.132097 -0.432617,0.05841 -0.323967,0.10622 -0.345459,-0.0085 -0.256413,0.0039 -0.443192,-0.03797 -0.318407,-0.0061 -0.310936,0.02986 -0.44392,-0.134466 -0.245057,0.0014 -0.402436,0.0066 -0.368991,-0.05737 -0.332564,-6.59e-4 -0.360553,-0.01878 -0.361254,-0.04832 -0.347691,-0.05205 -0.344103,-0.03928 -0.320765,0.01042 -0.371007,-0.0268 -0.321853,0.0071 -0.367613,-0.01242 -0.342341,-0.0027 -0.35569,-0.04969 -0.342084,-0.02908 -0.347869,-0.0591 -0.323714,0.02486 -0.357481,0.02488 -0.334035,0.02823 -0.395218,-0.03615 -0.355687,-0.07026 -0.345834,-0.03358 -0.331637,-8.39e-4 -0.309095,0.05263 -0.405219,-0.04172 -0.33474,-0.0212 -0.287133,0.03284 -0.40193,0.03357 -0.369963,-0.04152 -0.351427,-0.0417 -0.311083,0.113939 -0.334488,0.08774 -0.369531,-0.192598 -0.296836,-0.0373 -0.35307,-0.05801 -0.31605,-0.03831 -0.351381,-0.03759 -0.356156,-0.04795 -0.263393,-6.46e-4 -0.398695,-0.03924 -0.392686,-0.103751 -0.328177,-0.05909 -0.300363,-0.02679 -0.405055,-0.119268 -0.322009,-0.06421 -0.297653,-0.0017 -0.377925,-0.04094 -0.333632,-0.02463 -0.355065,-0.063 -0.362726,-0.147758 -0.267068,0.0315 -0.416341,-0.03277 -0.323368,0.02165 -0.359339,-0.192898 -0.275594,-0.08412 -0.335339,-0.102865 -0.355803,-0.207506 -0.244268,-0.07129 -0.371999,-0.114137 -0.303951,-0.06924 -0.350229,-0.0931 -0.235317,-0.07692 -0.452214,-0.150674 -0.272764,-0.08688 -0.394122,-0.220576 -0.247585,-0.05114 -0.378577,-0.106833 -0.267423,-0.08961 -0.406319,-0.178997 -0.297056,-0.07061 -0.243594,-0.08806 -0.455811,-0.161703 -0.31134,-0.09143 -0.335189,-0.08736 -0.263773,-0.06887 -0.412843,-0.11915 -0.321886,-0.06921 -0.344847,-0.08713 -0.346381,-0.09804 L 9.9224463,78.331184 9.5912492,78.291573 9.2441699,78.160283 8.9214632,77.963282 8.6684878,77.827299 8.3244379,77.639608 8.0438187,77.50793 7.7530056,77.378122 7.408306,77.20389 7.1307377,77.070874 6.7884105,76.899294 6.4730778,76.732458 6.1923699,76.605274 5.8659061,76.444216 5.6018537,76.31512 5.2359611,76.082346 5.0052859,75.985515 4.6413329,75.804052 4.3592987,75.684428 4.0028515,75.481111 3.7705446,75.388941 3.3837871,75.167695 3.1050463,74.858028 2.8482287,74.755857 2.533557,74.634269 2.2091806,74.503295 1.8828051,74.357347 1.5494738,74.165896 1.2592054,74.047338 0.94221477,73.926678 0.68081829,73.863264 0.29483033,73.716832 l -0.0282323,-0.420209 0.0608439,-0.270257 -0.0216612,-0.522609 -9.5831e-4,-0.181693 -0.0131025,-0.435945 0.00542,-0.252853 0.0614701,-0.32234 0.0144478,-0.366252 -0.008706,-0.443065 0.009589,-0.257628 -0.005664,-0.364785 0.0155517,-0.328815 -0.0210406,-0.431943 -0.0203404,-0.339471 -0.0252249,-0.39938 0.0804001,-0.206322 0.0409633,-0.372475 -0.0109849,-0.365834 -0.0250615,-0.412835 -0.0149173,-0.328197 -0.0114108,-0.408887 0.0130185,-0.234594 0.0150132,-0.334967 -0.0377922,-0.484582 0.006767,-0.217644 -0.0325532,-0.452746 -0.0298255,-0.308994 0.0105852,-0.282563 0.10741052,-0.350366 -0.0386244,-0.383558 -0.0595425,-0.40262 -0.0532712,-0.356082 0.002103,-0.254812 -0.0454566,-0.429545 0.0346737,-0.245889 -0.006471,-0.364836 0.0621365,-0.310391 -0.0282239,-0.462218 -0.0324748,-0.32424 0.0897791,-0.240204 -0.005999,-0.371795 0.0214504,-0.342502 0.009924,-0.339338 0.0196195,-0.340444 -0.0438499,-0.515814 -0.0126359,-0.245556 -0.0284945,-0.33777 -0.0166546,-0.315088 4.2694e-4,-0.324388 -0.0147702,-0.361408 -0.0470333,-0.416793 -0.0178887,-0.293467 0.0140942,-0.312028 -0.0424778,-0.48664 0.007844,-0.218801 0.007198,-0.341408 -0.0187371,-0.383148 -0.004709,-0.494868 -0.0171892,-0.197898 0.003507,-0.314524 -0.0233338,-0.432771 -0.002518,-0.333507 -0.002814,-0.283675 0.008214,-0.335969 -0.0107296,-0.380188 -0.007271,-0.38951 0.0637499,-0.241373 -0.001853,-0.386721 0.0241187,-0.326033 0.0206538,-0.347253 0.00503,-0.359674 -0.0301045,-0.444731 -0.0278193,-0.313085 2.0483e-4,-0.294659 -0.0101455,-0.377564 0.001964,-0.311816 -0.004524,-0.356065 -0.00524,-0.356709 0.0438691,-0.301535 -0.0160657,-0.401994 -0.0254313,-0.391822 0.0723868,-0.247972 0.0564503,-0.357351 -0.008275,-0.377071 -0.005147,-0.343177 0.0510451,-0.347053 -0.007755,-0.350766 -0.0103147,-0.45214 0.0620607,-0.225036 -0.009535,-0.366558 -0.0117294,-0.35343 -0.0141655,-0.373817 0.0786218,-0.31003 -0.0126756,-0.357094 -0.0178251,-0.355493 -0.0311622,-0.38564 0.001224,-0.287119 -0.01737,-0.441548 0.033149,-0.243738 0.0209179,-0.334489 -0.0169254,-0.386295 0.0985966,-0.33138 -0.0501848,-0.497036 0.005817,-0.198615 0.0233716,-0.328905 0.0654278,-0.370766 -0.0353098,-0.500226 0.0134028,-0.191742 0.003679,-0.358264 -0.0354698,-0.374333 -0.0297527,-0.33988 0.004964,-0.323693 -0.0440701,-0.406024 -0.001215,-0.290124 -0.0595726,-0.407566 0.005255,-0.300629 -0.0522797,-0.371192 -0.026236,-0.311164 0.0485962,-0.342584 -0.0705511,-0.380122 -0.0856738,-0.448754 -0.0409645,-0.22957 -0.06978237,-0.358344 0.05704357,-0.326666 -0.0083589,-0.378606 0.0024378,-0.326537 -0.01454861,-0.385306 -0.0150265,-0.414367 -0.0087083,-0.264549 -0.02648239,-0.377593 -0.0016309,-0.324226 -0.0083772,-0.471175 0.03594136,-0.156567 0.0054326,-0.360574 -0.01177578,-0.379646 0.0077669,-0.302749 0.05616206,-0.339986 -0.03114396,-0.455882 0.02704589,-0.216197 0.11862866,-0.364756 0.0414596,-0.344643 0.0905234,-0.343752 -0.022355,-0.388541 -0.005806,-0.313478 -0.002792,-0.341451 -0.008989,-0.36274 0.0316321,-0.316704 -0.0262634,-0.402937 -0.001683,-0.290133 -0.00824,-0.379688 0.0117303,-0.300459 -0.003328,-0.355206 0.0585295,-0.339401 0.0976432,-0.329193 0.0206995,-0.335435 -0.0206958,-0.396384 -0.006148,-0.322542 0.0551068,-0.313402 0.0208059,-0.353944 -0.034607,-0.524552 -0.019023,-0.214509 -0.019685,-0.373867 -0.009291,-0.290833 0.0320679,-0.303201 0.059072,-0.366813 -5.2708e-4,-0.35814 -0.0450815,-0.476597 0.0299571,-0.1886 -0.0443406,-0.430577 0.009555,-0.266192 -0.0290537,-0.434232 -0.015228,-0.277603 0.006031,-0.337425 0.0359516,-0.305985 -0.0308246,-0.398982 0.0363472,-0.302292 L 0.47607457,12.345572 0.4507605,12.018118 0.42198303,11.671894 0.37495464,11.298217 0.36270394,10.997178 0.32790695,10.51128 0.39061003,10.350882 0.29990727,9.8491081 0.33964766,9.6506596 0.24207498,9.2933383 0.2324596,8.9068889 0.29586291,8.6362323 0.32293838,8.2838122 0.31160916,7.8753645 0.30543857,7.5427348 0.29656002,7.1786146 0.29854194,6.8746379 0.29652571,6.4938661 0.32204799,6.1828425 0.3039931,5.7719437 0.28040517,5.3341831 0.28095856,5.1361604 0.34469863,4.8310641 0.43030328,4.4936708 0.39686597,4.019346 0.37461084,3.6997653 0.33908085,3.2780958 0.33672672,3.0670475 0.3967799,2.7387408 0.49941201,2.3966417 0.4448065,1.911838 0.44895882,1.699569 0.48790309,1.3401156 0.46240599,1.0058947 0.37380213,0.62533642 Z"
     style="display:inline;fill:none;fill-opacity:0.00114848;stroke:#000000;stroke-width:0.6;stroke-dasharray:none"
     id="path2568"
     inkscape:label="lin_rough"
     sodipodi:nodetypes="cccccccccccccccccccccccccccccc"
     inkscape:path-effect="#path-effect240"
     inkscape:original-d="M 0.30000001,0.30000001 H 13.933077 25.256744 59.06775 81.189417 100.34851 126.17069 l 0.0895,15.27252499 -0.0895,20.698758 0.37429,18.30026 -0.37429,8.663799 -10.09651,-0.290976 -10.72236,0.368376 -9.745941,1.491605 -9.632542,2.969155 -5.49938,2.073665 -6.844074,2.580713 -6.096106,2.562712 -6.574017,2.76362 -9.175204,2.743334 L 39.20731,82.737762 26.004762,82.329527 18.821459,81.244242 9.2512131,78.245567 0.30000001,73.724522 0.23307432,61.51054 0.19531793,54.619974 0.06588414,30.998224 0.23148782,9.2835971 Z" />
</svg>
