<?xml version="1.0" encoding="UTF-8" standalone="no"?>
<!-- Created with Inkscape (http://www.inkscape.org/) -->

<svg
   width="275.89407pt"
   height="459.05997pt"
   viewBox="0 0 97.329338 161.94616"
   version="1.1"
   id="svg5"
   xml:space="preserve"
   inkscape:version="1.2.2 (b0a8486541, 2022-12-01)"
   sodipodi:docname="E_pre.svg"
   xmlns:inkscape="http://www.inkscape.org/namespaces/inkscape"
   xmlns:sodipodi="http://sodipodi.sourceforge.net/DTD/sodipodi-0.dtd"
   xmlns="http://www.w3.org/2000/svg"
   xmlns:svg="http://www.w3.org/2000/svg"><sodipodi:namedview
     id="namedview7"
     pagecolor="#505050"
     bordercolor="#eeeeee"
     borderopacity="1"
     inkscape:showpageshadow="0"
     inkscape:pageopacity="0"
     inkscape:pagecheckerboard="0"
     inkscape:deskcolor="#505050"
     inkscape:document-units="pt"
     showgrid="false"
     inkscape:zoom="0.96662573"
     inkscape:cx="54.312645"
     inkscape:cy="146.90277"
     inkscape:window-width="1920"
     inkscape:window-height="1011"
     inkscape:window-x="0"
     inkscape:window-y="0"
     inkscape:window-maximized="1"
     inkscape:current-layer="svg5" /><defs
     id="defs2"><inkscape:path-effect
       effect="roughen"
       id="path-effect2437"
       is_visible="true"
       lpeversion="1.2"
       method="size"
       max_segment_size="0.2"
       segments="15"
       displace_x="0.15;1"
       displace_y="0.18;1"
       global_randomize="1;1271683286"
       handles="along"
       shift_nodes="true"
       fixed_displacement="false"
       spray_tool_friendly="false" /></defs><path
     style="display:inline;fill:#000000;stroke-width:2.93461"
     d="m 48.656047,161.62205 -0.174035,0.0157 -0.12007,0.0646 -0.282461,-0.0405 -0.170297,-0.0146 -0.192553,-0.002 -0.170183,0.0257 -0.220128,-0.0213 -0.130318,0.0649 -0.258141,-0.006 -0.187912,0.0382 -0.202962,0.002 -0.184755,0.003 -0.252655,-0.0395 -0.165538,-0.0597 -0.116924,0.0108 -0.257378,1e-5 -0.187049,5.4e-4 -0.203,-0.002 -0.152815,0.10412 -0.273162,-0.16201 -0.157811,0.0177 -0.198534,0.0132 -0.197974,0.0177 -0.21759,-0.0416 -0.219384,-0.0189 -0.176397,-0.0239 -0.207018,4.7e-4 -0.173821,-0.005 -0.192907,-0.006 -0.18248,0.002 -0.280187,-0.0871 -0.07261,0.0511 -0.220147,0.0131 -0.166586,0.0497 -0.122611,0.008 -0.300322,-0.0258 -0.133661,0.0183 -0.304358,-0.0256 -0.119897,0.013 -0.153226,0.0232 -0.243573,-0.007 -0.175647,0.0301 -0.210284,2.1e-4 -0.177942,0.003 -0.275572,-0.0924 -0.163218,-0.0191 -0.196193,-0.0244 -0.170533,0.008 -0.219742,-0.002 -0.195453,-0.0108 -0.188844,0.01 -0.161007,0.0935 -0.187493,0.0652 -0.322427,-0.0705 -0.115761,-0.004 -0.167025,0.0134 -0.213463,-0.002 -0.121134,0.008 -0.26208,0.007 -0.158494,0.0925 -0.23888,-0.005 -0.213203,-0.0178 -0.154567,0.0508 -0.19791,0.009 -0.198068,0.0117 -0.197776,0.004 -0.176719,0.0571 -0.265771,-0.0426 -0.133864,0.007 -0.216135,-0.0645 -0.149208,0.0602 -0.196752,0.0791 -0.293942,-0.0675 -0.143747,-0.0218 -0.144998,0.0872 -0.23988,-0.0341 -0.248092,-0.0421 -0.122292,0.006 -0.163793,0.0283 -0.252681,-0.0356 -0.180913,-0.0447 -0.09839,0.0436 -0.303544,-0.0719 -0.180368,-0.019 -0.1742,-0.0173 -0.17187,-0.005 -0.151496,0.0293 -0.303237,-0.0544 -0.193721,-0.0333 -0.125584,0.0188 -0.239648,-0.084 -0.190954,-0.0448 -0.187382,0.005 -0.18735,0.0639 -0.219281,-0.0156 -0.1661,0.028 -0.222769,-0.008 -0.234643,-0.11886 -0.199754,0.005 -0.08057,0.13149 -0.266296,0.0559 -0.193184,0.0257 -0.204341,0.0545 -0.18923,-0.002 -0.205487,-8.7e-4 -0.200978,0.005 -0.16504,0.0422 -0.170599,0.11795 -0.26601,0.0587 -0.231168,-0.009 -0.17852,-0.0152 -0.222754,-0.0514 -0.224663,-0.0674 -0.12285,-0.006 -0.204941,-0.0219 -0.246417,-0.0504 -0.160662,-0.0338 -0.186699,-0.0401 -0.249866,-0.0256 -0.145889,10e-4 -0.19733,0.0197 -0.211566,-0.002 -0.161643,0.008 -0.198809,0.003 -0.217859,0.0559 -0.200897,-0.004 -0.196544,0.0172 -0.18141,0.0181 -0.230068,-0.007 -0.184786,-0.0115 -0.201952,-0.0134 -0.181911,0.003 -0.217578,-0.0243 -0.224711,-0.006 -0.222339,-0.008 -0.122604,0.0167 -0.213924,-0.007 -0.217896,-0.0198 -0.178768,-0.006 -0.1137,0.007 -0.320526,-0.008 -0.138373,0.003 -0.250784,-0.0554 -0.166832,0.0355 -0.222425,0.009 -0.203161,-6.4e-4 -0.184007,0.0261 -0.212202,-0.0111 -0.181648,0.0164 -0.203315,-3.8e-4 -0.240308,-0.083 -0.154319,0.007 -0.229956,-0.0304 -0.156433,0.0229 -0.165085,0.0117 -0.247332,0.003 -0.221628,-0.0253 -0.219965,-0.0518 -0.159042,-0.0147 -0.127853,0.10781 -0.223555,0.0306 -0.194029,0.0256 -0.175183,0.0871 -0.283938,-0.10649 -0.167978,-0.009 -0.152825,0.0398 -0.221892,0.006 -0.186562,0.13175 -0.219154,0.0561 -0.200355,-0.0171 -0.177009,0.0562 -0.243028,-0.0494 -0.169959,-1.2e-4 -0.211675,-0.10616 -0.166803,-0.041 -0.167018,0.0271 -0.142191,0.0286 -0.287157,-0.0455 -0.167022,-0.005 -0.261625,-0.0847 -0.129355,-3.1e-4 -0.190456,0.009 -0.18384,0.004 -0.208012,-0.002 -0.182091,0.006 -0.205204,-9.6e-4 -0.187887,0.0417 -0.205039,0.0455 -0.252281,-0.0796 -0.122543,7.2e-4 -0.212495,0.029 -0.16891,0.0124 -0.203031,0.0391 -0.254865,-0.0428 -0.191037,-0.0849 -0.180017,-0.038 -0.20054,0.007 -0.1782154,0.0127 -0.1904556,0.0157 -0.2742305,-0.004 -0.1261091,0.0141 -0.2201803,-0.002 -0.2011455,-0.0607 -0.2405617,-0.0113 -0.1354899,0.006 -0.191999,0.002 -0.1879632,-0.004 -0.1832061,0.0178 -0.177829,0.0149 -0.1872977,0.0109 -0.190913,0.011 -0.1843479,0.0277 -0.2284038,-0.0129 -0.1634482,-0.001 -0.1718821,0.012 -0.2145531,-0.0302 -0.1744521,0.008 -0.1786488,0.0252 -0.2042803,-0.0585 -0.1783244,0.0683 -0.19695,5.8e-4 -0.2244757,-0.0126 -0.1800352,-0.003 -0.1886907,0.007 -0.2090833,0 -0.1789053,0.0169 -0.1504295,4.6e-4 -0.2651275,0.0969 -0.1698265,0.0194 -0.2387052,0.006 -0.2481757,-0.0411 -0.1367931,3.5e-4 -0.2238157,-0.0723 -0.1677563,0.028 -0.1771732,0.12955 -0.23342,-0.0182 -0.2000704,0.014 -0.2187724,-0.0176 -0.2472954,-0.1251 -0.1125928,0.11149 -0.2701897,-0.0531 -0.1593921,0.0368 -0.2231589,-0.0476 -0.18376547,-0.0222 -0.17777377,-0.0127 -0.20435773,-0.0204 -0.12338444,0.10358 -0.027379,-0.21272 -0.004757,-0.18986 -0.0180569,-0.23277 -0.009939,-0.19105 -0.0165113,-0.20614 0.0136577,-0.12122 -0.005595,-0.23374 0.0547958,-0.13636 0.0665014,-0.21917 -0.0199274,-0.25982 -0.0378624,-0.2088 0.0874411,-0.13317 -0.003327,-0.21117 0.004332,-0.20184 0.0314046,-0.14537 -0.0325904,-0.29446 0.004515,-0.14095 -0.0203806,-0.22857 0.005835,-0.10611 -0.0212144,-0.25867 0.0375536,-0.20204 -0.0589355,-0.24967 -0.034627,-0.18296 0.0265306,-0.15785 -0.0383995,-0.19568 -0.1583473,-0.30515 -0.002714,-0.22708 -0.017315,-0.2087 0.008163,-0.14191 0.0731797,-0.18345 -0.009908,-0.23143 -0.0709557,-0.2725 -0.08610632,-0.11828 0.03006241,-0.11066 0.009995,-0.25923 0.0624031,-0.15425 -0.0636673,-0.27961 0.0192946,-0.12111 0.015319,-0.12803 0.0390106,-0.21254 -0.006396,-0.25412 0.028562,-0.12269 -0.0440026,-0.33547 0.0389985,-0.10183 -7.2384e-4,-0.21239 0.0248303,-0.1673 0.0104313,-0.20787 -0.001246,-0.20941 0.0315726,-0.17679 0.0449378,-0.18529 0.0295349,-0.15613 -0.009586,-0.19878 -0.0739269,-0.2455 -0.0365101,-0.25149 -0.0264811,-0.18265 0.0332352,-0.12089 0.002618,-0.22962 -0.0515241,-0.22605 -0.0297766,-0.18668 0.078075,-0.15962 0.00203,-0.2477 0.0214156,-0.11451 -0.0454626,-0.26537 0.0536389,-0.11244 -0.0493014,-0.32471 0.0591741,-0.10124 2.6929e-4,-0.21812 -0.0454128,-0.24479 0.0104597,-0.16016 -0.0157852,-0.26828 0.0142173,-0.1778 -0.001541,-0.20525 -0.011359,-0.19836 0.0419231,-0.14154 0.0117737,-0.20656 -0.001856,-0.19279 0.0654104,-0.1722 -0.0571929,-0.20617 0.0324764,-0.1471 -0.0467688,-0.26696 0.0152497,-0.14009 0.0371865,-0.12049 -0.009972,-0.25984 -0.008394,-0.19589 -0.0656813,-0.27482 0.0034,-0.0894 0.0265284,-0.17307 0.002862,-0.19748 0.009994,-0.18243 -0.0475324,-0.21602 0.0199202,-0.1585 0.0204213,-0.19035 -0.008938,-0.23714 0.004123,-0.19218 -0.0825254,-0.23165 0.002499,-0.15599 0.007157,-0.18231 -0.0108995,-0.25577 0.0185151,-0.1508 0.0350078,-0.16719 0.007384,-0.23017 0.0619157,-0.20539 -0.0151826,-0.25747 0.0432498,-0.0867 -0.006111,-0.2898 0.0356791,-0.18614 -0.0758303,-0.24667 -0.001289,-0.1617 -0.0445711,-0.23079 0.007413,-0.16742 0.0557824,-0.11364 -0.001443,-0.28565 -0.028741,-0.20482 -0.0195709,-0.221 0.008156,-0.15692 0.0628384,-0.10746 -0.0253986,-0.3557 -7.3356e-4,-0.12786 -0.0229688,-0.35931 -7.0965e-4,-0.0685 0.0810733,-0.13091 1.3166e-4,-0.26126 0.001898,-0.19686 0.0251977,-0.15871 -0.0104329,-0.25355 -0.009598,-0.20197 -0.0143809,-0.20179 0.0110465,-0.13354 -0.0875073,-0.33083 0.002593,-0.11914 -0.002911,-0.21981 0.0361959,-0.174 -0.0360069,-0.20971 -1.1939e-4,-0.19724 -0.0487408,-0.22948 0.0175728,-0.1605 0.002619,-0.17374 0.01079,-0.22233 -0.0119712,-0.24634 -0.0408837,-0.15448 0.009311,-0.18699 -3.1393e-4,-0.21103 -0.0109033,-0.19322 0.002125,-0.22154 -0.0388017,-0.20264 -0.048431,-0.22754 0.00623,-0.13971 0.0149851,-0.14309 9.8966e-4,-0.26454 -0.0280394,-0.18728 0.0622637,-0.17495 0.0165234,-0.21005 0.006571,-0.21374 -0.0141583,-0.19658 -0.0273751,-0.22516 0.0430335,-0.0175 0.0427185,-0.3301 0.0138206,-0.17289 0.0139668,-0.17452 -0.0223037,-0.26558 -0.044585,-0.21561 0.0442825,-0.12974 0.0195489,-0.22388 -0.0165488,-0.22952 -0.0498146,-0.2428 0.007213,-0.14304 -0.007026,-0.25796 -0.008381,-0.14277 0.0500809,-0.19002 0.0906122,-0.16556 0.0715324,-0.0736 -0.00553,-0.34668 0.0218765,-0.14618 -0.0127225,-0.27853 0.0446121,-0.1183 -0.0292277,-0.25916 0.007493,-0.16713 -0.0434817,-0.35622 8.0618e-4,-0.0406 0.0135668,-0.11035 0.036782,-0.23163 -0.0365303,-0.26306 -0.004459,-0.18633 -0.006937,-0.20545 -0.0293244,-0.19931 0.0961511,-0.14344 0.0166037,-0.20936 -0.0211876,-0.25542 -0.007231,-0.16503 0.0872994,-0.12901 0.0122385,-0.18404 -0.025941,-0.29033 -0.0246537,-0.20465 -0.008272,-0.1771 0.0224214,-0.16734 -0.0292983,-0.25227 -0.0118676,-0.15964 -0.0167592,-0.20227 -0.0197369,-0.23312 -0.007197,-0.14463 -0.0775553,-0.284 0.008082,-0.0914 -0.0244487,-0.23063 0.0324403,-0.13279 -0.0697125,-0.25292 -0.0400959,-0.20824 -0.0447162,-0.21772 0.0781925,-0.0912 -0.0280205,-0.24965 0.0228363,-0.15151 0.003806,-0.17803 -0.0221435,-0.25876 0.0156982,-0.15942 0.0713388,-0.11847 -0.004304,-0.32625 0.0855063,-0.093 0.0781374,-0.21536 -0.007969,-0.27604 -0.005703,-0.19955 -0.0144332,-0.21237 -0.003224,-0.1889 -0.0139226,-0.20979 0.0213075,-0.16414 -0.008766,-0.23214 -0.00394,-0.19144 -0.0131364,-0.20626 -0.0596681,-0.25146 -8.7284e-4,-0.15188 0.0546581,-0.16474 -0.009038,-0.23642 -0.0378545,-0.26674 -0.0101604,-0.17924 -0.0116686,-0.16685 -0.0336256,-0.21473 -0.0105272,-0.18519 0.0472784,-0.10237 -0.0327933,-0.3068 -0.0173242,-0.19495 -0.0966994,-0.25784 0.0147842,-0.13897 0.0106676,-0.20463 0.0541934,-0.13778 -0.0112016,-0.26427 -0.0397588,-0.19908 0.0103043,-0.17641 0.002531,-0.20115 0.001556,-0.18071 -2.7992e-4,-0.21601 -0.1344588,-0.28708 0.00325,-0.0817 -0.002134,-0.24195 0.0246311,-0.1734 0.0310034,-0.18234 0.002503,-0.21451 0.0195286,-0.1694 -7.3859e-4,-0.22611 -0.029671,-0.23475 0.004926,-0.11594 -0.0306916,-0.26016 0.009579,-0.17273 0.0264669,-0.18987 0.007248,-0.20079 0.0705022,-0.10673 0.12213366,-0.19335 -0.009791,-0.286 -0.0166459,-0.21955 0.0496477,-0.10226 -0.0278717,-0.28614 -0.0217086,-0.19482 -0.0215912,-0.18814 0.0769512,-0.14597 -0.001574,-0.26358 -0.10044198,-0.22737 -0.11082228,-0.21544 -0.0192903,-0.23901 0.001821,-0.14762 0.0119879,-0.17791 -0.011161,-0.21288 -0.0992425,-0.318 0.001949,-0.073 0.0167646,-0.18863 0.005124,-0.19677 -0.0101239,-0.20004 0.024102,-0.19136 0.0234088,-0.15826 -0.09003649,-0.34649 -0.01118222,-0.0825 -0.0274856,-0.19728 -0.03863586,-0.21178 0.00493208,-0.24334 0.01622803,-0.11429 -2.381e-5,-0.24731 0.03855098,-0.10779 0.0013781,-0.25068 0.0013278,-0.20957 0.01479755,-0.15972 0.0255371,-0.18952 0.0326682,-0.19029 0.0269214,-0.20689 -0.009304,-0.2134 0.005337,-0.19337 -0.006216,-0.21135 0.0129798,-0.13532 0.0224435,-0.19872 0.0452222,-0.17466 -0.006277,-0.23721 -0.0238465,-0.20919 0.0548399,-0.11737 -0.007602,-0.26128 0.0383018,-0.11389 -9.1014e-4,-0.26149 -0.0413783,-0.26156 0.0416873,-0.0576 0.003226,-0.26153 0.00813,-0.184902 -0.003194,-0.194601 0.0546448,-0.173033 -0.007784,-0.197976 -0.0168333,-0.206062 -0.14431741,-0.310611 0.004289,-0.189604 -0.006728,-0.187691 -5.4127e-4,-0.244314 0.0104921,-0.126444 -0.003435,-0.186349 -0.0114569,-0.209959 -0.08098582,-0.183171 9.1088e-4,-0.200434 0.0961147,-0.104324 0.0254772,-0.225369 0.0188831,-0.198715 0.010471,-0.19915 0.0591189,-0.15477 -0.0355715,-0.324528 -0.0389998,-0.101248 -0.0174244,-0.198131 0.0473066,-0.091 0.0241498,-0.240242 0.003238,-0.213826 -0.0252265,-0.237471 0.0432845,-0.168911 0.0554059,-0.195981 -0.0472199,-0.3082 -0.0648816,-0.217153 -0.007693,-0.100957 0.0216815,-0.18095 0.0171439,-0.145678 -0.0364985,-0.303128 0.0140507,-0.132613 -0.0267529,-0.256007 -0.0634491,-0.262689 -0.0224894,-0.138725 -0.003104,-0.205013 0.0347588,-0.158961 0.006173,-0.212363 0.0325121,-0.184035 0.0844702,-0.191725 -0.0443018,-0.22695 0.016034,-0.177719 -0.006926,-0.204458 -0.006002,-0.192952 -0.0200774,-0.217885 -8.918e-4,-0.159245 -0.006458,-0.204395 0.009926,-0.16093 -0.0279462,-0.247621 0.004081,-0.161122 0.0164204,-0.13181 -0.0394831,-0.293053 0.0128006,-0.07311 0.0544547,-0.223615 -0.0175262,-0.250872 0.009558,-0.173778 0.0415089,-0.16377 -0.021853,-0.245778 0.0948832,-0.149408 0.00197,-0.222274 -0.0278535,-0.213253 -0.0940079,-0.222187 -0.0614932,-0.154573 0.0764577,-0.214293 -0.0341089,-0.216865 -0.0183565,-0.225742 -0.0602161,-0.174064 0.002221,-0.168681 0.017788,-0.135156 4.4668e-4,-0.272174 -0.0133505,-0.198206 -0.0175275,-0.302221 0.1101062,0.0409 0.0183125,-0.281998 -0.003837,-0.2062 -9.7077e-4,-0.221039 0.002805,-0.159416 -0.0486661,-0.256455 -0.008055,-0.138874 0.0136096,-0.166904 0.0254014,-0.163575 0.0404304,-0.225631 -0.0216171,-0.236795 -0.0648222,-0.262037 -0.0151674,-0.176681 0.00896,-0.122197 0.022852,-0.144581 0.0140675,-0.2406 0.0295365,-0.120914 -4.742e-5,-0.271427 0.009388,-0.184604 0.0246614,-0.186263 -0.0126726,-0.145652 -0.0252628,-0.268697 0.008172,-0.177749 0.0132351,-0.17487 -0.0106173,-0.256421 0.00183,-0.155914 -0.0145957,-0.202557 0.006363,-0.14635 -0.0212432,-0.288035 0.036562,-0.08876 0.0859326,-0.187628 -0.0458234,-0.299337 0.0151595,-0.130279 0.0139716,-0.170759 0.005277,-0.230749 -0.0334702,-0.16365 -0.0316663,-0.148075 -0.006,-0.2228 0.008728,-0.164346 -0.1103787,-0.221611 9.6903e-4,-0.211465 -0.0278554,-0.225945 -0.0150983,-0.163399 -0.013117,-0.241433 0.001129,-0.149658 0.0344401,-0.187079 -0.0289712,-0.237157 0.008403,-0.102902 0.003994,-0.349989 -0.0186586,-0.155899 0.0226842,-0.148696 -0.0519693,-0.339281 -0.007214,-0.09719 -0.0208789,-0.191386 0.02103415,-0.164294 -0.004058,-0.268861 0.0061114,-0.163797 -0.0057824,-0.233575 0.03158321,-0.129015 0.0390963,-0.212829 0.0473419,-0.187098 0.11725482,-0.187108 0.0121278,-0.184152 -0.0130703,-0.23225 -0.0200692,-0.239405 0.005732,-0.124302 -0.011416,-0.227744 0.001631,-0.174876 0.0202837,-0.164488 0.0763303,-0.181777 0.001515,-0.211371 -0.0279452,-0.329813 -0.003979,-0.143498 0.004604,-0.163813 -0.0221665,-0.215523 0.0179609,-0.162984 0.017072,-0.18814 -0.003583,-0.244995 -0.0277222,-0.213718 -0.003469,-0.211816 -0.0238272,-0.19406 -0.0140165,-0.197519 -0.007405,-0.196901 -0.00499,-0.189195 0.005672,-0.190472 0.002481,-0.185081 0.002486,-0.214261 -0.005121,-0.217255 0.001767,-0.193048 0.0529645,-0.157981 0.0167399,-0.244025 0.0450311,-0.1426 -0.0214409,-0.274731 -0.0232257,-0.190443 0.003878,-0.191339 -0.0113737,-0.228688 0.005181,-0.138133 -0.0234764,-0.246655 0.0539038,-0.07566 -0.0288642,-0.350183 -0.0572455,-0.245965 8.486e-5,-0.11611 0.0300152,-0.138207 -0.0385927,-0.310983 -0.0254891,-0.208871 -0.0116309,-0.16644 0.007964,-0.180931 0.0415521,-0.140845 0.0349727,-0.194336 -0.0541561,-0.373259 0.00129,-0.09331 -0.008646,-0.196831 -0.0310114,-0.227202 0.0949305,-0.0654 -0.007929,-0.320298 -0.009142,-0.197737 0.0287487,-0.139584 0.007867,-0.231202 -0.0129064,-0.228488 0.0348728,-0.08018 0.0575816,-0.161753 -0.0233596,-0.28818 -0.0184581,-0.187082 -0.0413547,-0.227178 -0.0185513,-0.183972 -0.0100872,-0.143981 -0.034612,-0.258435 -0.10018655,-0.191847 0.13017745,-0.146194 0.002851,-0.183358 -0.005858,-0.242274 -0.0128685,-0.188444 0.005978,-0.156364 0.0119284,-0.214149 -0.11096344,-0.288901 0.0154377,-0.111585 -0.027272,-0.203482 0.001911,-0.191366 -0.003142,-0.210832 -0.003883,-0.191319 0.016047,-0.185204 0.0810016,-0.100527 -0.0195568,-0.357904 -0.008793,-0.151948 -0.0631307,-0.227579 -0.0168895,-0.210795 0.0161502,-0.13993 0.009821,-0.166565 -0.008972,-0.27284 0.003346,-0.159643 0.007888,-0.204577 -0.0624819,-0.26211 -0.006431,-0.143761 0.0136003,-0.194011 0.0328923,-0.177632 -0.0775871,-0.227342 -0.04286222,-0.212692 -0.01870942,-0.223657 0.0096556,-0.149364 0.04106692,-0.202209 0.0130044,-0.194798 -0.04906273,-0.224858 -0.01045427,-0.213766 0.01052872,-0.141038 0.01921775,-0.19583 0.0235251,-0.200504 0.11169423,-0.12476 0.0439648,-0.250033 -0.001325,-0.234155 0.008857,-0.181335 0.002785,-0.211645 0.0197915,-0.105609 -0.0413499,-0.343488 0.048204,-0.09494 0.0136992,-0.224655 -0.0340408,-0.293332 0.0949347,-0.01413 -0.0182723,-0.308438 -0.0257439,-0.259271 0.004035,-0.137394 -0.0281955,-0.219504 -0.030793,-0.190994 -0.0250075,-0.239415 -0.0281475,-0.157264 0.0330951,-0.171223 -0.0162271,-0.227529 0.0113149,-0.153908 -0.0100247,-0.215651 -0.001131,-0.198433 -0.0327706,-0.218325 -0.0259794,-0.1835 -0.0215923,-0.233986 0.0384557,-0.112183 0.009137,-0.228249 0.0113301,-0.199302 -0.0114788,-0.229065 -0.008038,-0.22147 -0.00836,-0.177252 -0.0369964,-0.22646 0.0350188,-0.117406 -0.002524,-0.239112 -0.0413877,-0.215114 0.10049286,-0.167783 0.003203,-0.207946 -0.04812,-0.231786 -0.0168859,-0.173994 0.0447523,-0.16741 0.0120819,-0.194552 -0.0400057,-0.246414 0.0146557,-0.173833 0.0015,-0.217298 0.0507856,-0.15707 -0.003935,-0.222259 -0.001861,-0.199948 0.0227459,-0.142219 0.0258415,-0.248862 -0.004014,-0.227209 -0.009449,-0.182449 0.0256226,-0.122632 -0.0178094,-0.304803 -0.0228503,-0.181021 0.0304462,-0.152657 -0.004113,-0.220972 -8.9754e-4,-0.17921 -0.0482243,-0.228291 -0.006404,-0.199856 0.0289329,-0.156533 -0.0217626,-0.228125 0.006786,-0.183334 -0.0505332,-0.235188 0.018845,-0.162409 -4.9185e-4,-0.210608 -0.0450831,-0.282969 0.0171479,-0.109717 0.003894,-0.202381 0.017876,-0.193805 0.007201,-0.197201 0.12093382,-0.190046 -0.0371293,-0.235716 0.0173576,-0.124413 -0.16916556,-0.318135 0.0493935,-0.14279 -0.002271,-0.249016 0.005853,-0.07422 -0.0202386,-0.381787 0.0131902,-0.100304 0.002461,-0.163425 -0.0168336,-0.264431 -0.0194036,-0.190674 -0.00558,-0.197909 0.0490054,-0.174525 -0.026431,-0.22449 -0.001383,-0.178463 -0.018784,-0.20053 -0.0158754,-0.212353 -0.0154112,-0.176716 0.00472,-0.188374 -0.0317266,-0.292327 -0.002928,-0.112338 0.0441614,-0.138865 0.001948,-0.248453 0.004498,-0.175456 0.0353063,-0.158754 -0.002575,-0.252653 0.0220334,-0.157237 -0.00229,-0.220475 -0.006332,-0.208423 0.00701,-0.166085 -0.002318,-0.212937 0.0643621,-0.173049 -0.004627,-0.236678 0.055049,-0.166854 -0.005813,-0.207639 0.001717,-0.168856 -0.0356771,-0.25325 0.0245315,-0.115491 -0.044012,-0.270456 -0.13262578,-0.263609 0.0106934,-0.0934 0.0111924,-0.191012 0.007656,-0.197001 -0.005534,-0.217995 -0.0446236,-0.20314 -0.0158359,-0.189596 -0.00507,-0.206889 0.0831794,-0.140295 0.003272,-0.219666 -0.0198083,-0.191105 0.0397647,-0.186828 -0.0213031,-0.20592 0.0141982,-0.191021 -0.0483062,-0.218452 0.0375348,-0.179604 0.11013328,-0.154997 -0.0117893,-0.192058 -0.0831879,-0.278242 0.0137191,-0.112407 0.004717,-0.200166 0.008494,-0.171382 -0.0359209,-0.285457 -0.0454502,-0.175238 -0.08437948,-0.207561 0.0458865,-0.04994 0.0798752,-0.292882 0.005741,-0.207068 -0.0554442,-0.221803 -0.0180794,-0.20571 -0.09347472,-0.204776 0.03431827,-0.124777 0.0346016,-0.206567 -0.02041002,-0.323316 0.01837117,-0.09432 -0.0164744,-0.234867 0.00174,-0.199635 0.0307851,-0.13679 0.10069965,-0.12952 0.002474,-0.300134 -0.0344012,-0.215443 -0.0159627,-0.207961 0.0232693,-0.154994 -0.0243678,-0.24115 0.0170395,-0.130287 -0.0155918,-0.238405 0.0984861,-0.163143 -0.0607086,-0.303108 -0.0445298,-0.15889 0.0261333,-0.142887 0.0128666,-0.215831 0.0171655,-0.145115 0.0209639,-0.209632 0.004101,-0.206929 -0.033422,-0.323496 -0.009518,-0.114612 0.008476,-0.222968 0.0227119,-0.172805 0.0344214,-0.16913 0.0116135,-0.186277 -0.0306949,-0.256907 -0.0176259,-0.169629 0.0259002,-0.146898 -0.0616167,-0.33741 0.001583,-0.0787 0.010567,-0.193514 L 0.20236124,17.431414 0.0842385,17.22475 0.07729862,17.026868 0.09627009,16.858995 0.07061029,16.626094 1.0770501e-5,16.37626 0.0075998,16.24622 l 0.02980444,-0.1837 0.0026165,-0.239035 0.0063171,-0.223454 0.02123662,-0.09748 0.01702227,-0.229642 0.03443093,-0.192955 0.0407372,-0.164846 0.0134763,-0.214749 -0.0273974,-0.272533 -0.005182,-0.173273 0.0248674,-0.153841 0.008733,-0.21539 0.0135405,-0.173024 0.0123414,-0.20191 0.004381,-0.211169 0.0457068,-0.145299 -0.00447,-0.244358 6.3767e-4,-0.192765 0.0307563,-0.138825 0.0232384,-0.107206 -0.004613,-0.292878 -1.0136e-4,-0.194255 0.0143005,-0.0989 -0.002247,-0.298728 -0.080073,-0.26811 0.067344,-0.03175 3.658e-4,-0.294186 -0.004711,-0.207131 -0.0487686,-0.23764 0.0494583,-0.127642 -0.001889,-0.224768 -0.002139,-0.1988591 -0.006517,-0.217673 0.009416,-0.1684231 -0.0282561,-0.3116171 0.004242,-0.018879 L 0.28033137,9.0529875 0.27984135,8.8030581 0.39451173,8.7093334 0.35931409,8.3417883 0.36908133,8.2250657 0.37987793,8.0532942 0.43219525,7.8164823 0.37434173,7.4768266 0.40956937,7.448787 0.40291467,7.2671594 0.38728624,7.0120173 0.37823723,6.8217015 0.40778274,6.6416599 0.34911981,6.4077662 0.35850507,6.2607728 0.31803419,6.0231227 0.38426094,5.8746695 0.34984143,5.6160391 0.32764263,5.4352876 0.38032646,5.2644038 0.27084434,5.0331576 0.26925434,4.7803959 0.26912479,4.6332893 0.26314652,4.4558135 0.31216231,4.3011699 0.29679536,4.0741388 0.29582358,3.8831913 0.26994053,3.6609998 0.26605197,3.4540278 0.26128479,3.2788179 0.23595709,3.0965854 0.18738692,2.8738376 0.08003863,2.6689587 0.15072382,2.597195 0.17528728,2.3510979 0.16260039,2.113347 0.17236097,1.9645229 0.21370246,1.7729029 0.1669063,1.5241252 0.19850516,1.4126655 0.28705855,1.2250085 0.29125606,1.0982595 0.34439297,0.89187085 0.30749558,0.60233753 0.2921694,0.42871669 0.26690299,0.23258646 0.4307603,0.1920915 l 0.28474951,0.0700007 0.14709924,-0.0158766 0.20100235,0.002799 0.1691089,-0.0302578 0.2549871,0.002164 0.1661692,-3.6475e-4 0.2476249,0.062651 0.2092753,0.0726328 0.159029,0.0135636 0.1846654,-0.009604 0.2066262,-0.003488 0.2674912,0.0903001 0.1627173,0.0497428 0.1449128,-0.14922083 0.2089732,-0.0316561 0.1943308,-0.0263303 0.2075476,-0.0129415 0.2116714,0.0300606 0.2005135,0.10005141 0.2215108,0.0156744 0.085648,-0.0616552 0.3312585,0.001013 0.1463847,-0.0351812 0.2217258,0.007195 0.1068746,-0.0803652 0.2663736,-0.002986 0.2470454,0.0302886 0.1615697,0.0497815 0.1929893,-0.0185352 0.2051117,-0.006042 0.1859378,-0.0304718 0.2106885,-0.013135 0.176937,-0.0347605 0.1702684,-0.007156 0.2403975,0.0175023 0.06839,-0.10860384 0.3659317,0.0135861 0.08166,0.002324 0.2808295,0.056639 0.184792,0.0173268 0.1655526,-0.0418277 0.2728182,0.0389359 0.1301694,0.0296351 0.1472573,-0.007715 0.2233826,-0.0300659 0.1797105,-0.0324472 0.2286654,0.004587 0.139237,-0.0224504 0.2638117,0.0369191 0.148363,-2.837e-4 0.172772,-0.0196567 0.250188,0.001302 0.202037,0.0208041 0.257175,0.0269457 0.05716,-0.0894367 0.245966,-0.03634129 0.168108,-0.08032287 0.266448,0.03318225 0.252329,0.06042592 0.198213,0.0571419 0.107533,-0.0484016 0.215804,0.0574574 0.211754,0.0695796 0.194241,0.0333581 0.16671,-0.0213985 0.196393,-0.0183576 0.266437,0.0595601 0.118985,-0.0139072 0.218139,0.002272 0.155781,-0.0303092 0.257313,0.0384735 0.181426,-0.0175616 0.206727,0.006788 0.177043,-0.00311 0.214483,-0.007221 0.202274,-0.001095 0.199543,0.005136 0.142554,-0.0910177 0.256534,0.0037 0.207447,0.0195715 0.217661,0.0771875 0.18631,0.0154696 0.185807,-0.004332 0.209876,0.0132744 0.166994,-0.0808393 0.145996,-0.0259645 0.308134,0.0467962 0.238215,0.0830631 0.129193,-0.0252359 0.17984,-0.0214349 0.226568,-0.004654 0.225057,0.0936688 0.161777,-0.046976 0.169408,-0.0742145 0.252163,0.005338 0.151318,-0.009497 0.17469,-0.0610337 0.338663,0.0881186 0.127743,-0.0109048 0.218409,0.0663629 0.185642,-9.2729e-4 0.16142,-0.0138718 0.209827,-0.0103634 0.20668,0.00877 0.113065,-0.11005835 0.332659,0.0877487 0.201369,0.0408738 0.235066,-0.0179351 0.07485,-0.0335101 0.153232,-0.0491747 0.207716,0.009714 0.16063,-0.0105819 0.234101,0.0144076 0.250015,0.0286463 0.04686,-0.001848 0.277776,-0.0564651 0.222406,-0.004907 0.25923,0.0415226 0.151863,0.0746125 0.304838,0.0309319 0.158242,0.0376689 0.123611,-0.008165 0.2272,0.006087 0.184779,-0.003861 0.197597,-0.007549 0.147607,-0.0118739 0.209062,-0.14063561 0.274784,0.0116882 0.227401,0.0473503 0.139936,-1.9574e-4 0.155422,-0.0344889 0.24649,0.009188 0.199831,3.493e-5 0.175093,-0.0228002 0.21573,-0.0261881 0.216011,0.0226259 0.189908,0.0309428 0.213413,0.0681055 0.192366,-0.007952 0.2875,0.0839702 0.03231,-0.0321228 0.289539,-0.0219236 0.228766,0.013558 0.177746,-0.0122806 0.208164,-0.0250538 0.122861,-0.0723097 0.233823,-0.0160213 0.216525,-0.00914 0.198208,0.005964 0.167629,-0.0153884 0.218697,0.002353 0.187384,-0.001695 0.163995,-0.0121654 0.163917,-0.0367883 0.244246,-0.002367 0.155415,0.00463 0.246075,0.0146195 0.182999,0.007022 0.248798,0.0317144 0.13288,-0.0345041 0.200693,0.0154792 0.147301,-0.0399081 0.190107,-0.002521 0.201076,0.001367 0.204345,0.0299819 0.186791,-0.022562 0.219316,0.008784 0.171382,-0.075101 0.194269,-0.00258 0.217536,0.021554 0.190557,-5.5619e-4 0.241253,0.0449207 0.155676,0.00683 0.202704,0.0170572 0.183141,0.00442 0.291888,0.10722157 0.169303,-0.0144811 0.135666,-0.0449319 0.186298,-0.0493608 0.202431,0.007227 0.21816,0.0225311 0.174574,0.001558 0.197662,0.0141653 0.219793,0.0655852 0.149706,-0.004916 0.181041,-0.11438896 0.223003,0.0246052 0.164087,9.6195e-4 0.17397,-0.0180411 0.149483,-0.0704991 0.246028,0.0139342 0.253474,0.0804771 0.148124,0.0106348 0.209493,0.0175234 0.230874,0.0744815 0.0972,-0.0399432 0.297305,0.0126093 0.235936,0.10649422 0.145589,0.006831 0.178251,-0.006062 0.234142,0.0482975 0.172273,-0.001442 0.206577,0.0553384 0.18365,-0.0146588 0.205434,0.0174794 0.200785,-0.003267 0.221993,-0.007544 0.04905,-0.0968696 0.295308,-0.0285643 0.201967,-0.0193445 0.209529,-0.002512 0.210586,0.0720835 0.182157,-0.0258135 0.141466,-0.11004775 0.307928,0.0601451 0.150159,-0.0131948 0.289521,0.0418674 0.06904,-0.0408716 0.275951,0.0403108 0.171893,-0.0132454 0.251474,0.0660324 0.09707,-0.13014075 0.316446,0.1172557 0.222117,0.004345 0.09652,-0.19053715 0.142865,-0.045292 0.261429,0.0368892 0.165978,-0.008684 0.211939,0.007486 0.195279,0.0206566 0.178824,-0.0199987 0.240125,0.03695 0.115539,-0.13656183 0.212629,-0.0328124 0.206951,0.004797 0.205437,0.0286327 0.187372,0.001406 0.177611,-1.5796e-4 0.188292,-0.007995 0.16176,-0.06763458 0.324328,0.11292705 0.155147,0.0464234 0.182039,0.0384659 0.164386,-0.007314 0.19457,1.486e-4 0.247796,0.07003 0.127961,-0.003148 0.247443,0.0507558 0.111432,-0.095372 0.194212,-0.0366089 0.117503,-0.0675856 0.288971,-0.001913 0.187156,0.00232 0.189904,-0.0444903 0.209053,0.026248 0.128401,-0.0249749 0.196221,-0.06273166 0.258048,0.0514777 0.184476,0.0213729 0.179763,0.0142072 0.275382,0.0887562 0.186226,0.0335035 0.10397,-0.0358528 0.20767,0.0709543 0.197764,-0.0283162 0.190276,-0.0318191 0.174278,-0.016099 0.178898,-0.0245232 0.224322,-0.006754 0.12014,0.001027 0.291952,1.012e-4 0.203916,0.0547349 0.197757,5.4217e-4 0.229527,0.005099 0.178271,0.0121695 0.182281,-0.0154633 0.179674,-0.0633159 0.342422,0.13297891 0.09123,0.0416232 0.185442,-0.005594 0.202499,0.0390919 0.198907,-0.002864 0.178791,-0.042735 0.19815,-0.009486 0.175386,-0.0309253 0.25881,0.006736 0.217158,0.0229985 0.06435,-0.033801 0.28135,-0.0266127 0.161452,-0.0466073 0.219495,-0.062759 0.245707,0.0374907 0.216929,0.0252863 0.136876,-0.005689 0.183876,-0.0424199 0.240687,0.0486099 0.1942,0.0113775 0.19409,-2.2564e-4 0.250082,0.0802053 0.09432,-0.0502557 0.204518,-0.0219759 0.224664,-0.006263 0.181001,-0.006114 0.257847,0.0760381 0.154591,0.0476851 0.178521,-0.0455489 0.186482,-0.0610669 0.262706,0.007366 0.106805,-0.0595063 0.225921,0.003007 0.223204,0.0511897 0.167581,8.9488e-4 0.214813,0.0294301 0.170173,-0.004121 0.221664,0.0106191 0.192835,-3.325e-5 0.155202,-0.049307 0.203426,-0.002394 0.200059,0.006723 0.231498,0.0541768 0.151977,-0.0395855 0.22891,0.0511905 0.159232,-0.0790931 0.121862,-0.0944193 0.261267,0.019524 0.163565,-0.0396508 0.187268,-0.03546401 0.208809,0.0018274 0.184744,-0.0064662 0.248609,0.060694 0.18468,0.080622 0.129265,-0.001556 0.196612,0.018364 0.129002,-0.0662149 0.219999,0.005856 0.158706,-0.0353789 0.25403,0.0482871 0.189274,0.0196559 0.192858,0.0302107 0.201516,0.0826459 0.194735,0.0102243 0.149771,-0.0904976 0.302582,0.0129172 0.06091,-0.12434625 0.285,0.005425 0.179825,0.0162142 0.216043,0.0170859 0.180071,0.0162535 0.16823,-0.0396184 0.245965,0.004766 0.149476,-0.007096 0.159401,-0.0366309 0.27427,0.020126 0.121201,-0.0277786 0.2812,0.0343448 0.137518,-2.044e-5 0.21998,-0.004741 0.171168,-0.12523081 0.210848,-0.01429038262 0.240293,0.07102515262 0.163119,-0.0030798 0.183905,-0.0487723 0.203629,0.0093701 0.224392,0.02861527 0.186951,0.0091175 0.208886,0.04066358 0.199476,0.0398726 0.16388,-4.577e-5 0.162457,0.001586 0.253014,0.0885503 0.176122,0.0204778 0.151555,-0.022713 0.246043,-0.004309 0.168417,-0.0850035 0.255651,0.0123794 0.177367,0.0211901 0.231016,0.0426511 0.169358,0.0154746 0.319444,0.0597301 0.05471,-0.0406114 0.167715,-0.0602843 0.227895,-0.0441085 0.215752,-0.019687 0.175577,-3.0071e-4 0.231537,-0.003335 0.200305,-1.1336e-4 0.191919,-0.005333 0.200067,-0.0214502 0.242487,0.0423193 0.159605,-0.002499 0.162147,-0.08406282 0.23521,-0.0085909 0.240162,0.06014463 0.224417,0.0452232 0.17479,0.0168584 0.22269,0.0242944 0.06879,-0.0434031 0.254432,-0.0510616 0.223603,0.0159117 0.237524,0.0272642 0.1419,0.008627 0.253526,0.0438953 0.160604,0.0243768 0.202633,0.0199195 0.200725,0.02479 0.139919,-0.0251431 0.272581,0.0215422 0.177045,0.0354797 0.196275,-0.00444 0.214931,0.0298522 0.181673,-0.005175 0.148814,-0.0614625 0.253823,0.0148138 0.232372,0.0418043 0.181655,0.0830671 0.170271,-0.0119656 0.185227,-0.0210055 0.215466,-0.11626481 0.119941,-0.0363244 0.305013,0.17137963 0.180913,0.0370767 0.17716,-0.0688577 0.217535,-5.8679e-4 0.164773,-0.0400832 0.32777,0.10082544 0.09711,-0.0220971 0.249441,0.0492094 0.17875,0.0135134 0.167663,-0.10699178 0.1186,-0.12944736 0.216691,-0.0150083 0.293852,0.0204772 0.1724,0.005582 0.137074,-0.0460287 0.261271,0.0444498 0.187323,-0.0338661 0.170447,-0.0494006 0.244754,0.0316915 0.125241,-0.0250931 0.26107,0.0529457 0.162829,0.0184843 0.292951,0.10344533 0.08518,-0.002878 0.202461,-0.05001 0.222133,-0.001009 0.2065,0.005921 0.145201,-0.0289745 0.244852,-0.00344 0.206152,0.006331 0.251394,0.0860128 0.176781,0.0436907 0.184051,0.002367 0.185635,-0.017687 0.202007,-0.004582 0.231646,0.0294415 0.184723,0.0191866 0.217575,0.0285285 0.1178,-0.0500478 0.283861,0.001116 0.161301,-0.020658 0.201914,-0.0229879 0.205185,-3.9599e-4 0.105735,-0.11371356 0.317304,0.0740093 0.179605,-0.003668 0.197832,0.008889 0.194118,-0.0136856 0.213383,0.009232 0.185937,-0.0108106 0.249873,0.0551532 0.06432,-0.0384381 0.298401,-0.0186328 0.226232,0.0526596 0.148478,-0.0567344 0.238567,-0.0155133 0.184511,-0.0236397 0.205471,-6.6887e-4 0.266267,-4.8006e-4 0.151841,0.003659 0.254675,0.0320317 0.100567,-0.0475317 0.18892,-0.0518607 0.236761,0.0190433 0.172491,0.003313 0.210189,-0.0250364 0.258963,0.0395108 0.128645,-2.03e-6 0.207189,0.006974 0.243838,0.0440243 0.13994,-0.0150265 0.202866,-0.017969 0.0014,0.20383819 0.01049,0.19530144 -0.02646,0.16907605 0.01591,0.22861727 0.01769,0.2008382 -0.03778,0.1523534 0.04512,0.2802014 0.03733,0.2016901 0.03596,0.1901231 0.06649,0.1655812 -0.0078,0.1933639 -0.01618,0.1907078 0.05262,0.2115632 -0.0033,0.1909822 -0.01489,0.1926782 -0.01624,0.1451607 -0.01955,0.2490818 -0.03159,0.1591021 -0.0048,0.2571227 -0.01,0.1729395 -0.01299,0.1950448 -0.02931,0.1172584 -0.06444,0.1909972 -0.07457,0.1800423 -0.0021,0.2811521 0.02483,0.2178449 0.09677,0.239688 0.01737,0.217163 -0.01319,0.1251524 0.01347,0.2657247 -5.1e-5,0.1764468 -0.0011,0.1999156 -0.01765,0.1897976 -0.05312,0.1379096 -0.06964,0.2142762 -0.04098,0.1896559 -0.01208,0.1933135 0.0045,0.2389775 -0.0215,0.058005 -0.03987,0.3273874 -0.03311,0.197442 0.01058,0.2242865 0.04903,0.212506 0.01024,0.1707911 -0.04402,0.1654247 0.05831,0.291514 -0.07978,0.071165 0.01745,0.2619848 0.01058,0.192936 0.01888,0.2020523 -0.01562,0.129716 0.01106,0.25467 0.01005,0.19119 0.02005,0.23701 -0.04077,0.01575 0.05026,0.354253 0.0119,0.179368 0.03956,0.226675 0.0293,0.201009 0.05385,0.16083 0.0046,0.194791 9.41e-4,0.159662 -0.01883,0.190443 0.08146,0.329574 -0.01078,0.09748 -0.01362,0.201239 -0.01076,0.226415 -0.03508,0.182203 0.002,0.216737 0.0022,0.209151 -0.0019,0.174782 0.0055,0.20773 -0.0144,0.184011 -0.02295,0.191752 -0.0096,0.191666 0.06852,0.236606 -0.04531,0.102366 0.01475,0.302466 0.02045,0.165325 0.02321,0.211389 -8.45e-4,0.170935 -9.64e-4,0.141695 0.02931,0.264553 0.05048,0.258054 -0.0866,0.03238 0.01112,0.302497 0.03597,0.207766 0.0047,0.190414 0.02045,0.202086 0.006,0.175257 0.0014,0.214998 0.02065,0.213479 0.09286,0.220821 0.0023,0.161088 -0.03317,0.157663 -0.019,0.187953 -0.01112,0.221261 0.0017,0.234594 -0.06825,0.115669 -0.02052,0.218936 -0.01006,0.193313 -0.06834,0.137973 -0.02546,0.250381 0.0085,0.227953 0.06055,0.203959 0.0054,0.217753 0.0038,0.170609 -0.04439,0.181136 0.06827,0.270581 0.0095,0.152054 -0.0143,0.182074 -0.03619,0.194853 0.02367,0.203099 -0.0054,0.121867 0.05053,0.291825 0.02349,0.316073 0.0034,0.0524 0.0083,0.201061 -0.0056,0.192553 -0.01547,0.183539 0.01029,0.231695 -0.081,0.07717 0.07456,0.367755 -0.05797,0.046 -0.0091,0.251467 -0.0096,0.196341 0.05075,0.263363 -0.03978,0.07904 -0.01525,0.252946 0.0098,0.220237 2.53e-4,0.191881 -0.03867,0.155774 -0.05362,0.180872 0.05233,0.236992 -0.208748,-0.06955 -0.149751,0.03873 -0.223251,0.0096 -0.201086,-0.01949 -0.192698,0.0028 -0.180187,0.0044 -0.214034,-0.0096 -0.215192,-0.0191 -0.167336,0.01024 -0.174139,0.03571 -0.176795,0.01234 -0.231385,0.04357 -0.232342,-0.0472 -0.159769,0.03506 -0.168954,0.08577 -0.134158,-0.05827 -0.225907,-0.01542 -0.230128,-0.02046 -0.161554,0.0039 -0.202435,-0.05831 -0.147656,0.125426 -0.226536,-0.0088 -0.280454,-0.01062 -0.08498,0.08741 -0.30848,-0.03755 -0.135768,0.0034 -0.15968,0.03034 -0.268938,-0.05523 -0.157712,-3.04e-4 -0.207002,-0.07436 -0.163877,0.07525 -0.232934,-0.06658 -0.100411,0.05547 -0.150269,0.06331 -0.239972,0.02449 -0.214035,0.02254 -0.243332,-0.05822 -0.175646,-0.01397 -0.134276,0.02263 -0.342951,-0.04025 -0.123547,-0.01542 -0.202098,-0.0081 -0.238193,-0.01797 -0.113123,0.03218 -0.263682,-0.01768 -0.258464,-0.01736 -0.135571,-0.0034 -0.262664,-0.04972 -0.245481,-0.0076 -0.09808,-3.4e-5 -0.197744,0.02403 -0.206054,-0.0013 -0.2392,-0.03353 -0.171998,-0.04434 -0.199076,0.0073 -0.249206,-0.05349 -0.182503,-0.0061 -0.203696,-0.0071 -0.186345,0.02716 -0.19374,0.03938 -0.191222,0.03833 -0.227128,-0.09757 -0.23387,-0.05491 -0.161657,0.02087 -0.235615,0.003 -0.169295,7.8e-4 -0.17446,0.0096 -0.133615,0.09377 -0.201706,0.09635 -0.182532,0.06113 -0.289679,-0.01902 -0.182688,0.02204 -0.232345,-0.01715 -0.182543,-0.01638 -0.177899,0.01076 -0.177151,0.04421 -0.255327,-0.01616 -0.104132,0.01633 -0.221443,0.06167 -0.349994,-0.111258 -0.125878,-0.03781 -0.205522,-0.05945 -0.156361,-0.0354 -0.156973,0.0263 -0.203965,0.06374 -0.219656,-0.02749 -0.190677,0.0017 -0.239652,-0.0504 -0.191115,-0.02781 -0.222477,0.0018 -0.134227,0.01557 -0.272898,0.01272 -0.128179,-0.01414 -0.169163,0.04222 -0.26239,-0.03748 -0.112008,0.05275 -0.251175,-0.0143 -0.167279,-0.0033 -0.204983,-0.0391 -0.239984,-0.106777 -0.140047,0.0018 -0.235541,-0.05451 -0.154885,-0.02086 -0.107673,0.06163 -0.261901,0.02635 -0.215828,-0.02021 -0.133354,0.06379 -0.203676,0.02991 -0.251,-0.02669 -0.152488,0.0025 -0.183731,0.03264 -0.199234,0.0064 -0.17979,0.018 -0.221091,-0.02783 -0.09714,0.138376 -0.369543,-0.06252 -0.132017,-0.05562 -0.199664,-0.0042 -0.242663,-0.05852 -0.186786,-0.06227 -0.129528,-0.0059 -0.187885,-0.03192 -0.186087,0.0276 -0.159962,0.02618 -0.206846,0.01835 -0.185249,-0.01129 -0.204393,0.0028 -0.197986,-0.05909 -0.243646,-0.06622 -0.128809,0.141505 -0.159171,0.05427 -0.182289,0.05055 -0.138877,0.03091 -0.249416,0.0014 -0.219861,-0.01168 -0.169206,0.0034 -0.248415,-0.0072 -0.146397,-0.10873 -0.208727,-0.01572 -0.148532,0.06531 -0.233112,-0.0055 -0.152709,0.06803 -0.236819,-0.02251 -0.245432,-0.0724 -0.201607,-0.02165 -0.07017,0.01666 -0.250902,0.01432 -0.230276,-0.01986 -0.247804,-0.05391 -0.131396,0.01624 -0.181692,0.03171 -0.192091,0.09131 -0.189165,8.43e-4 -0.152768,0.05745 -0.214327,-0.02622 -0.18728,0.03439 -0.104984,0.0045 -0.313249,-0.02053 -0.142308,0.01187 -0.226573,-0.02099 -0.178815,-0.0028 -0.209991,-0.05517 -0.181087,0.03415 -0.180762,0.03619 -0.261362,-0.05447 -0.08129,0.02596 -0.243304,0.04788 -0.236125,-7.2e-4 -0.175993,0.02078 -0.211384,-0.01034 -0.157362,0.0057 -0.187772,0.01095 -0.175011,0.02626 -0.204893,-0.01159 -0.19249,0.005 -0.237929,-0.02753 -0.135177,-0.0024 -0.199862,-0.03084 -0.173956,0.0036 -0.202013,-0.04477 -0.180557,-0.02809 -0.225884,-0.01989 -0.124726,0.02075 -0.22661,0.0055 -0.20759,-0.0028 -0.315857,-0.112 -0.02119,0.02891 -0.249048,-0.0068 -0.209964,-0.03581 -0.149368,0.03009 -0.256074,-0.0021 -0.101564,0.08949 -0.285529,-0.01923 -0.286195,-0.127111 -0.09954,-0.05195 -0.166135,0.01758 -0.279823,-0.04579 -0.07935,0.03853 -0.162112,0.0713 -0.293134,0.0055 -0.144216,0.04488 -0.234535,-0.02057 -0.139474,0.01813 -0.245551,-0.0049 -0.186761,0.01052 -0.278881,-0.104576 -0.124641,-0.01695 -0.194927,0.01109 -0.129495,0.03229 -0.286864,-0.121016 -0.201973,0.01326 -0.187775,-0.0089 -0.170301,0.0223 -0.137008,0.131695 -0.289866,-0.0032 -0.124519,0.03454 -0.262285,-0.04997 -0.153669,0.014 -0.205122,0.02989 -0.132803,0.03851 -0.280399,-0.0074 -0.15502,0.02554 -0.141325,0.05501 -0.258563,-0.0035 -0.121974,0.07762 -0.299362,-0.129788 -0.190118,0.0018 -0.210663,-0.04559 -0.189388,-0.04004 -0.147001,0.01849 -0.200363,0.01678 -0.207137,-0.02804 -0.205404,-0.04023 -0.158165,0.03107 -0.236888,-0.03396 -0.156177,0.0733 -0.188542,0.02578 -0.180243,0.03186 -0.254961,-0.05357 -0.139942,0.0027 -0.186777,0.03073 -0.237433,-0.0074 -0.141333,0.0078 -0.242549,-0.02227 -0.132891,0.05483 -0.196787,-0.01198 -0.18757,0.02661 -0.238662,-0.0164 -0.146275,0.01282 -0.188302,0.03428 -0.186442,0.0054 -0.141316,0.0054 -0.246069,0.02842 -0.210349,-0.01505 -0.172763,0.02721 -0.116668,0.08358 -0.251517,0.0238 -0.219564,-0.01429 -0.28565,-0.02442 -0.114153,-0.01077 -0.165582,-8.26e-4 -0.139182,0.05596 -0.317926,-0.140886 -0.117625,-0.06345 -0.204076,-0.02528 -0.117595,0.04733 -0.300133,-0.06409 -0.162924,-0.008 -0.213779,-0.05948 -0.05722,0.151154 -0.248491,0.04421 -0.215519,-0.05924 -0.125749,0.01505 -0.261376,0.0096 -0.122724,0.06447 -0.184758,0.03079 -0.297109,-0.02687 -0.192564,-0.0063 -0.171926,0.04193 -0.191694,0.04955 -0.171016,-0.01484 -0.179885,0.07131 -0.305566,-0.07425 -0.172261,-0.0647 -0.188814,-0.01997 -0.168435,0.03153 -0.2429,-0.03827 -0.156263,0.0085 -0.245402,-0.03596 -0.123674,0.05602 -0.302818,-0.06078 -0.135154,-0.0064 -0.258128,-0.133081 -0.151355,0.05875 -0.162139,0.0025 -0.225524,-0.03374 -0.156087,0.02849 -0.1431,0.09348 -0.234823,0.04476 -0.232219,0.0282 -0.219501,-0.04747 -0.165068,-0.01054 -0.171264,0.05416 -0.250841,-0.03998 -0.161651,-0.0331 -0.08059,0.114922 -0.24283,0.02178 -0.320588,-0.0438 -0.161982,-0.04497 -0.119448,0.02498 -0.251858,-0.02887 -0.15865,-0.01246 -0.222292,-0.0424 -0.146156,-0.0011 -0.257165,-0.121529 -0.145898,0.0189 -0.08818,0.125174 -0.229509,-0.04225 -0.194759,-5.68e-4 -0.181682,0.0046 -0.211559,-0.01698 -0.178583,0.05147 -0.265182,-0.0062 -0.04604,0.0382 -0.271267,0.02501 -0.116574,0.0083 -0.341553,-0.08823 -0.146002,-0.0063 -0.139362,0.02414 -0.274827,-0.0332 -0.164294,-0.002 -0.199809,-0.0159 -0.15787,0.0023 -0.185797,-0.0024 -0.23632,0.01106 -0.199836,-0.01737 -0.175037,0.01741 -0.200641,-0.0081 -0.186344,4.18e-4 -0.20608,-0.02607 -0.168682,0.06683 -0.155845,0.07197 -0.297468,-0.05596 -0.101481,0.04257 -0.241789,-0.0159 -0.190362,-0.02559 -0.194034,-0.01162 -0.177589,0.02008 -0.227203,-0.02249 -0.222914,-0.04687 -0.141624,0.01809 -0.207419,-0.02309 -0.08075,0.07461 -0.279553,0.06151 -0.240274,-0.01746 -0.146718,0.01241 -0.25285,-0.03624 -0.149803,-0.0086 -0.164858,-6.89e-4 -0.230234,-0.02549 -0.137452,-0.0076 -0.226321,0.01435 -0.230085,-0.145516 0.01695,0.245293 0.0022,0.199205 -9.58e-4,0.134514 0.08557,0.249388 -0.0039,0.136109 -0.06055,0.159451 0.0069,0.241285 -0.05357,0.139194 -0.01049,0.224747 0.04309,0.230975 0.0081,0.183017 0.0027,0.200236 -0.03025,0.166015 0.0053,0.217315 8.03e-4,0.184349 -0.01199,0.183704 -0.0012,0.155364 0.01604,0.251867 0.08042,0.27777 -0.08278,0.141241 -0.0328,0.248473 0.02159,0.206646 -0.05495,0.137547 0.02528,0.301913 0.0166,0.192947 -0.07176,0.110222 -0.0061,0.235439 0.04172,0.219447 0.0027,0.190802 0.01878,0.192001 -0.01091,0.185905 -0.05639,0.13356 0.03058,0.273225 -0.0037,0.18824 -9.87e-4,0.196528 -0.0046,0.193956 0.0016,0.197636 0.0054,0.20506 0.0059,0.197247 -0.01306,0.195096 0.01253,0.217232 0.02343,0.209345 0.0053,0.1709 0.04773,0.243912 0.08433,0.197992 -0.09549,0.08291 -0.01766,0.256802 0.05039,0.278611 -0.0041,0.121169 -0.0012,0.185998 -0.09552,0.06495 0.01161,0.33669 0.07102,0.237827 -0.0098,0.07926 0.09856,0.29213 -0.0029,0.109455 -0.06786,0.108006 -0.0074,0.235927 0.05511,0.276718 -0.06607,0.13798 -0.01211,0.244686 -0.03833,0.193107 0.0077,0.240919 -0.06438,0.06866 0.0043,0.316335 0.05523,0.242481 0.03507,0.176363 -0.01347,0.156611 0.005,0.233576 -0.0028,0.19503 -0.01234,0.159899 -0.01546,0.195926 0.07688,0.28955 0.05411,0.202639 -0.07279,0.105963 -0.0025,0.264261 -0.05548,0.16594 -0.01539,0.193731 0.0072,0.246382 -0.03612,0.162539 -0.01112,0.208415 0.03499,0.2743 0.02383,0.18006 -0.03065,0.124929 -0.0056,0.258429 0.0069,0.189551 -8.91e-4,0.187492 0.0021,0.235883 0.03268,0.1356 0.0563,0.243261 -0.02937,0.136942 0.03448,0.278056 0.01473,0.174613 0.002,0.177809 0.01143,0.214359 -0.06475,0.142959 -0.01039,0.199244 0.01211,0.248346 -0.02882,0.108514 0.04618,0.345131 0.0013,0.151618 -9.79e-4,0.159536 -0.01939,0.233443 0.0067,0.217218 -0.02317,0.163115 0.015,0.321602 -0.04409,0.01237 -5.6e-4,0.297296 -0.06083,0.203674 0.01654,0.212433 0.02385,0.203529 0.04699,0.216077 0.0047,0.176918 0.04001,0.226301 -0.02908,0.142773 0.03775,0.241329 -0.0052,0.183303 -0.08958,0.179897 0.03629,0.246513 0.05628,0.19252 -0.0042,0.156986 0.0055,0.24949 0.05563,0.222074 -0.0632,0.123452 0.01602,0.24845 0.02584,0.211692 0.01816,0.189782 -7.85e-4,0.188067 -0.0082,0.173515 -0.06814,0.137111 -0.01885,0.248089 0.130281,0.226234 0.04238,0.227451 -0.03902,0.164736 -0.0043,0.209212 -0.0016,0.208954 -0.0068,0.230553 -0.0157,0.134502 -0.06388,0.164881 -0.01671,0.240766 0.03585,0.31346 -0.02786,0.08002 -0.07368,0.09076 0.0083,0.307143 0.0584,0.236795 -0.01634,0.163972 -0.01701,0.174792 -0.0383,0.197356 -0.0096,0.179447 0.02176,0.267734 0.08539,0.253653 0.08678,0.155219 -0.02046,0.132317 0.07012,0.250839 0.0188,0.173604 0.0066,0.197551 -0.01297,0.181515 -0.0046,0.21426 0.03267,0.259546 -0.01059,0.110793 -0.03729,0.139152 -0.01684,0.248094 -0.03114,0.195109 0.01161,0.21365 -0.0082,0.184983 0.01665,0.226236 0.08136,0.242324 -0.0028,0.139553 -0.03069,0.168 0.02735,0.264605 -0.02268,0.145248 -0.02791,0.195877 -0.0136,0.205033 -0.03866,0.134646 0.06035,0.329213 -0.07217,0.107081 -0.04199,0.181872 -0.02803,0.213484 0.213846,0.04258 0.24719,0.079 0.09941,-0.0095 0.26719,0.01424 0.138354,-0.02462 0.174575,-0.05009 0.250659,0.06448 0.184946,-0.0034 0.171535,-0.03482 0.200973,-0.0093 0.125983,-0.08152 0.185425,-0.120665 0.278054,0.04057 0.160885,-0.01299 0.208377,0.03025 0.271812,0.151051 0.214104,-0.0011 0.185623,0.0035 0.209744,0.009 0.131181,-0.02505 0.228779,0.03898 0.228912,0.0091 0.101583,-0.02932 0.221317,-0.01717 0.180272,-0.02097 0.22412,0.01104 0.105055,-0.04097 0.269192,-8.04e-4 0.194532,0.01044 0.268178,0.07347 0.1454,0.02265 0.152091,-0.07283 0.184796,-0.03205 0.201718,-0.01486 0.151429,-0.05087 0.213135,-0.0015 0.190323,-0.0021 0.231428,0.01182 0.142445,-0.0401 0.27174,0.02383 0.145918,0.0062 0.262243,0.03376 0.03955,-0.0957 0.27421,-0.02069 0.153693,0.04502 0.141774,0.08378 0.164846,-0.0023 0.298313,0.05443 0.106434,-0.01699 0.261783,0.01166 0.150208,-0.003 0.205342,0.0061 0.200506,0.0163 0.143029,-0.0035 0.254379,5.11e-4 0.214165,0.04032 0.174907,0.05727 0.107405,-0.122486 0.271489,-0.0075 0.179252,-0.0053 0.211118,-0.01757 0.24388,0.02366 0.153973,-0.0023 0.192563,-0.03537 0.176318,-0.04249 0.205464,-0.05027 0.213108,0.0014 0.12773,0.0058 0.244426,-0.0026 0.215839,0.01248 0.20084,0.01384 0.258927,0.02378 0.18423,0.112957 0.149704,-0.03094 0.145655,-0.139473 0.1999,-0.0226 0.208934,0.0059 0.186235,-0.0095 0.24742,0.02726 0.0759,-0.01333 0.321127,0.109983 0.205161,0.04346 0.158042,-0.05477 0.208067,-0.03472 0.227138,0.01429 0.04438,-0.135499 0.372086,0.03181 0.21767,0.0752 0.122243,-0.04413 0.273178,0.02127 0.154983,-0.03814 0.142983,-0.04651 0.285174,0.08012 0.203694,0.06172 0.190151,0.02032 0.119555,-0.02125 0.266968,-0.0064 0.216625,0.02694 0.188677,0.01021 0.193317,0.03364 0.23542,0.02633 0.177866,0.03317 0.235347,0.08611 0.102267,-0.04415 0.21048,-0.02912 0.278527,0.124612 0.114631,-0.02235 0.21801,0.004 0.198519,0.126791 0.175605,-0.02807 0.173531,-0.04614 0.182479,-0.05186 0.185407,-0.04348 0.204994,-0.06663 0.229318,0.0055 0.159122,-0.01468 0.204055,-0.0026 0.206387,0.01443 0.196177,0.01174 0.140195,-0.05534 0.202364,-0.05392 0.242046,0.0078 0.161676,0.06283 0.211781,-0.01903 0.177366,-0.02815 0.189334,-0.02796 0.167493,-0.0088 0.203731,6.8e-5 0.182272,-0.0073 0.198627,0.006 0.172692,-0.0063 0.189159,0.0013 0.184883,8.7e-5 0.185035,-0.0037 0.181457,-0.01673 0.200508,0.01646 0.170477,-0.0029 0.235705,0.04511 0.180968,-0.0074 0.169231,0.05964 0.146191,-0.06333 0.238415,0.05087 0.165847,-0.02505 0.143927,-0.0649 0.212268,-0.01087 0.184426,-0.01348 0.212608,0.07706 0.165832,-0.0052 0.295485,0.04459 0.07851,-0.0183 0.162249,-0.02623 0.189318,-0.07619 0.244101,0.09703 0.138655,-0.05258 0.191741,-0.0037 0.327698,0.145027 0.01861,-0.127628 0.267744,0.04256 0.172039,-0.09747 0.217274,-0.08631 0.203235,0.0017 0.19778,-0.01297 0.222153,0.03414 0.210989,0.01304 0.09191,-0.01452 0.268884,0.0012 0.217407,0.01792 0.237318,0.09722 0.162028,0.02106 0.193954,-0.0039 0.202701,0.0064 0.198412,-0.0036 0.170507,-0.03119 0.212797,-0.01835 0.165497,-0.03413 0.145923,-0.114578 0.286337,-2.28e-4 0.183531,-0.01084 0.214752,0.0033 0.210281,0.0065 0.115332,-0.05346 0.326402,0.01553 0.167453,0.02145 0.206849,0.05384 0.182099,-0.02949 0.197746,-0.0037 0.271964,0.08464 0.12377,-0.02398 0.214102,0.0099 0.15961,-0.05244 0.323691,0.03842 0.111153,0.0025 0.09269,-0.03294 0.325904,0.04485 0.214498,0.06747 0.126589,-0.02872 0.244368,0.0069 0.189215,-0.0055 0.203353,-0.03154 0.174772,-0.0024 0.233945,0.03013 0.196953,-0.08075 0.163813,-0.120699 0.273487,0.03206 0.168315,-0.05461 0.198999,-0.0035 0.240634,0.06748 0.212569,0.02163 0.151068,0.0091 0.22053,0.03711 0.220239,0.08454 0.269767,0.01055 0.10979,0.03034 0.156306,-0.02178 0.165358,-0.05055 0.189959,0.0478 0.277734,0.06298 0.174191,-0.01507 0.231736,0.02454 0.159346,-0.01138 0.202534,0.01106 0.174909,-0.01163 0.161575,-0.06227 0.22391,-0.01286 0.212193,0.06221 0.197688,0.026 0.225328,0.104498 0.154907,-0.0027 0.173286,-0.05818 0.160686,-0.06275 0.311282,0.01905 0.101905,-0.02539 0.182335,-0.0061 0.233751,0.03661 0.07871,-0.06525 0.293146,0.03108 0.183532,0.01284 0.159936,-0.0052 0.250721,0.02951 0.150807,0.006 0.205083,0.02098 0.105372,-0.113681 0.244316,-0.115909 0.187636,-0.01882 0.228864,0.0034 0.236085,0.02966 0.209853,0.03711 0.120452,0.0039 0.222302,0.01456 0.193985,0.01128 0.187046,-0.0044 0.206123,0.01548 0.171278,-0.01458 0.167047,-0.05983 0.232747,0.02129 0.266529,0.107 0.114611,-0.100299 0.193271,0.0851 0.231024,0.03168 0.192608,0.06979 0.126069,-0.03519 0.227675,-0.0013 0.144174,-0.0038 0.246308,-0.03667 0.195258,0.0011 0.197016,0.0034 0.19422,0.0047 0.186104,-3.25e-4 0.176818,-0.06212 0.248711,0.0552 0.197335,0.03805 0.08215,-0.10047 0.278241,0.0098 0.181342,0.0036 0.144445,-0.0087 0.240244,0.0066 0.21258,0.0096 0.212868,0.03406 0.156916,-0.0032 0.212231,0.0063 0.182648,0.0054 0.206625,-3e-5 0.179848,-0.03742 0.18465,0.04185 0.230549,0.0321 0.167214,0.07375 0.112995,-0.02984 0.312133,0.06375 0.188918,0.04803 0.185308,0.0089 0.174397,-0.0135 0.184894,-0.04162 0.230864,0.04091 0.172383,0.01549 0.245098,0.100625 0.175466,-0.04309 0.169099,-0.06111 0.08131,-0.113968 0.287454,-0.0075 0.194672,-0.01596 0.169471,-0.04892 0.206315,0.0073 0.197671,1.35e-4 0.179719,-0.02857 0.140379,-0.01097 0.241527,-0.0063 0.202616,-0.0081 0.2972,0.03423 0.108815,0.01564 0.192316,0.0058 0.188918,-0.01079 0.212492,0.02658 0.210087,0.0017 0.148107,-0.0065 0.206513,-0.0088 0.17789,-0.03231 0.212959,0.0043 0.17102,-0.01026 0.258402,0.05632 0.207146,0.07332 0.06733,-0.121593 0.271686,0.02606 0.154139,-0.07163 0.229594,-0.03983 0.192989,0.001 0.2006,0.0092 0.183973,-8.46e-4 0.180636,-7.71e-4 0.179194,-0.0281 0.194045,-0.06042 0.231441,-0.05781 0.203302,0.0286 0.19355,0.02738 0.187821,0.0498 0.19504,0.08461 0.129705,-0.06205 0.243952,0.0081 0.182699,0.0089 0.219557,0.02432 0.135555,0.0064 0.217424,-0.02189 0.213385,0.02252 0.200198,0.05729 0.178436,0.0042 0.246662,0.1037 0.173288,0.0699 0.158831,-0.15799 -0.07351,0.0688 -0.0077,0.303589 0.01356,0.232411 0.028,0.213656 -0.07734,0.10517 0.01042,0.273201 0.04377,0.196516 0.06797,0.202073 -0.061,0.158524 0.01475,0.225406 -0.02136,0.184592 0.0025,0.209093 -0.02336,0.0697 -0.04799,0.262321 0.03966,0.264825 -0.02139,0.104251 0.01314,0.351229 0.01183,0.146246 0.02655,0.207759 -0.01884,0.14564 -0.01285,0.147729 0.02045,0.296838 0.03089,0.196153 0.0038,0.217252 -0.04811,0.118778 -0.0051,0.241313 0.04014,0.253479 0.0445,0.242488 -0.01043,0.05531 0.02881,0.253632 -0.01555,0.172091 0.013,0.2285 0.0034,0.19127 -0.03616,0.173642 0.0063,0.202074 0.01507,0.201406 -0.02377,0.167905 0.003,0.248862 0.0348,0.192148 0.01587,0.182048 0.0114,0.200294 -0.03706,0.152372 -0.05274,0.158776 0.06397,0.304093 -0.0033,0.144568 6.54e-4,0.270302 -0.0059,0.124778 -0.02535,0.175752 -0.03755,0.221021 0.01196,0.232478 0.0027,0.245135 0.07034,0.12596 0.003,0.19368 -0.05265,0.142505 -0.01382,0.194026 0.03242,0.321628 -0.04645,0.121377 -0.0043,0.188342 -0.01331,0.176229 0.02534,0.369824 0.02626,0.05991 0.09032,0.311268 0.0023,0.130676 -0.04193,0.120238 -0.01084,0.226025 -0.04761,0.164336 0.02048,0.217056 -0.0014,0.189924 0.02407,0.222005 -0.002,0.139111 0.02733,0.25841 -0.04621,0.142441 -0.01133,0.230649 0.0093,0.231962 0.01776,0.177215 0.0079,0.216547 -0.0028,0.169203 -0.0357,0.177413 -0.0011,0.213842 0.06385,0.238086 -0.01316,0.148855 0.03701,0.254616 0.05853,0.166101 0.04379,0.223216 0.03958,0.215049 -0.05067,0.102183 -0.0095,0.189767 -0.02672,0.211641 0.04303,0.26367 -0.0025,0.202267 0.09787,0.223818 -0.0047,0.155283 -0.05385,0.186653 -0.0082,0.202142 -0.0301,0.180359 0.02147,0.229406 -0.01863,0.178873 -0.02009,0.133298 -0.0014,0.333993 0.0012,0.129264 -0.0203,0.185781 -0.02419,0.191598 -0.07404,0.07391 0.04809,0.387095 -0.02278,0.10712 -0.01156,0.227601 -0.01824,0.190196 -0.01878,0.202556 0.0019,0.207451 0.03556,0.225625 0.0025,0.171461 -0.04297,0.170548 -0.05323,0.157741 0.05105,0.274987 0.0105,0.212327 0.05981,0.288014 -0.02263,0.07895 0.0089,0.218924 -0.03169,0.143805 0.0065,0.335018 0.0053,0.193888 0.02455,0.09609 -0.01119,0.152578 -0.01825,0.203598 -0.02201,0.198632 -0.01532,0.199306 -0.02654,0.162389 0.0464,0.246222 0.02669,0.213562 0.008,0.183479 0.03848,0.189512 -0.08773,0.138176 0.0034,0.316066 0.0391,0.19653 -0.2265,-0.131362 -0.179754,-0.0032 -0.248854,-0.05492 -0.105885,0.03106 -0.233134,0.0055 -0.184232,0.0056 -0.258637,-0.02663 -0.176564,0.0019 -0.188454,0.003 -0.306852,-0.08133 -0.04617,0.04051 -0.242719,0.06772 -0.203593,0.02766 -0.170255,0.01328 -0.20668,0.02957 -0.240826,-0.01645 -0.137992,0.05054 -0.246237,-0.0021 -0.213144,-0.01994 -0.141388,0.0019 -0.285856,-0.03019 -0.156354,0.0049 -0.215113,-0.01568 -0.197441,-0.0052 -0.218021,-0.01424 -0.18401,-0.04484 -0.211447,-0.04941 -0.167623,0.0284 -0.212652,0.0092 -0.227936,-0.01991 -0.22411,-0.01819 -0.13432,0.02912 -0.219227,0.0034 -0.188636,0.02099 -0.217137,-0.05322 -0.197163,0.01245 -0.239973,0.01026 -0.146301,0.02968 -0.21667,0.0069 -0.193289,0.01089 -0.1423,0.05385 -0.272596,-0.01345 -0.190976,-0.0624 -0.158982,0.100578 -0.27754,-0.102863 -0.183783,0.05571 -0.213289,-0.02101 -0.207036,-0.04949 -0.155836,0.05883 -0.192402,0.09912 -0.216752,-0.0135 -0.183563,0.02729 -0.25144,-0.05191 -0.134781,-0.0025 -0.16458,0.02716 -0.219966,0.01997 -0.209246,-0.0059 -0.276589,-0.08332 -0.09989,0.0053 -0.233932,-0.04304 -0.201297,-0.01 -0.165194,-0.01162 -0.149712,0.118167 -0.129946,-6.55e-4 -0.30782,-0.05143 -0.188318,0.0062 -0.192572,0.01303 -0.25694,-0.0221 -0.126587,0.05667 -0.255106,0.02511 -0.18742,0.0031 -0.19701,0.02303 -0.209607,0.01392 -0.205323,-0.01675 -0.125063,0.01321 -0.258497,0.0043 -0.218615,-0.0245 -0.222495,-0.02796 -0.166998,-0.01891 -0.178817,-0.006 -0.194679,-4.99e-4 -0.213378,-0.01813 -0.177662,0.02268 -0.205378,-0.01097 -0.158613,0.01545 -0.242312,-0.107029 -0.160472,0.01775 -0.264228,-0.05832 -0.162592,-0.01008 -0.213984,-0.0146 -0.170503,-0.0029 -0.151274,0.03671 -0.241105,-0.0134 -0.16903,0.03099 -0.213446,0.0084 -0.191509,0.01462 -0.208994,0.0054 -0.199754,-0.05356 -0.197766,0.0034 -0.169561,0.01056 -0.277567,-0.09296 -0.160634,0.0088 -0.166263,0.0463 -0.208542,0.01442 -0.20326,-0.03182 -0.186125,0.0364 -0.185633,0.06774 -0.134984,0.07615 -0.135779,0.08467 -0.324733,-0.112945 -0.195602,0.0049 -0.232689,-0.02436 -0.174443,-0.01604 -0.206627,-0.01384 -0.187789,0.0011 -0.177771,0.02287 -0.301392,-0.0058 -0.119555,-0.0052 -0.195167,0.01887 -0.202559,0.0116 -0.31599,-0.123422 -0.08605,-0.0037 -0.257928,-0.0667 -0.139831,0.0077 -0.197387,0.02858 -0.207746,-0.0064 -0.223258,-0.01469 -0.134346,0.05223 -0.244541,-0.04789 -0.186171,0.0093 -0.214718,0.0043 -0.201057,-0.110754 -0.09776,0.09282 -0.305741,-0.0035 -0.227275,-0.01826 -0.157928,0.0048 -0.19944,-0.02559 -0.196321,0.0075 -0.208668,0.0073 -0.228991,-0.0564 -0.168726,0.0159 -0.232797,-0.007 -0.157277,0.0574 -0.20446,0.0021 -0.195517,0.01371 -0.2001,0.0706 -0.19554,0.01492 -0.165825,0.03752 -0.19626,0.07053 -0.242745,-0.0038 -0.261506,-0.09316 -0.06472,0.01733 -0.256414,0.0083 -0.203701,0.01084 -0.200199,0.0044 -0.158349,0.02904 -0.217904,0.01225 -0.217739,0.01211 -0.177761,0.01886 -0.21595,0.003 -0.16865,0.0082 -0.242825,-0.05464 -0.207496,-0.0032 -0.225374,-0.0042 -0.107914,0.02571 -0.255446,0.003 -0.20942,-0.0057 -0.165377,0.0359 -0.327448,-0.09585 -0.08018,0.08176 -0.19428,-1.52e-4 -0.234105,-0.03375 -0.24655,-0.02146 -0.111185,0.065 -0.208656,-9.45e-4 -0.191043,-0.0035 -0.162739,0.0279 -0.24849,-0.01357 -0.183333,-0.02557 -0.181809,0.0022 -0.237125,-0.01991 -0.177513,-0.003 -0.189022,0.05014 -0.267215,-0.09855 -0.119963,0.01301 -0.217215,-0.09096 -0.183523,0.04336 -0.204622,0.0108 -0.209102,-0.01632 -0.19561,0.0031 -0.161459,0.0304 -0.09843,0.101968 -0.265579,0.0292 -0.229944,0.02887 -0.270611,-0.05446 -0.151263,-0.0056 -0.277456,-0.01963 -0.114687,-3.1e-4 -0.191242,0.09159 -0.177435,0.0038 -0.170992,0.04996 -0.268774,-0.0573 -0.208286,-0.04549 -0.17306,-0.03741 -0.212912,-0.03315 -0.211071,5.6e-4 -0.197984,-0.0082 -0.157062,0.02009 -0.195891,0.01282 -0.126339,0.0611 -0.283109,-0.02905 -0.24845,-0.0059 -0.166304,-0.134925 -0.135977,0.01865 -0.29534,-0.1508 -0.117265,0.01011 -0.200848,0.05541 -0.154103,0.08445 -0.198612,0.01491 -0.1614,0.03753 -0.310882,-0.0076 -0.119196,0.0207 -0.205972,-3.91e-4 -0.20652,-0.03529 -0.206233,-0.0035 -0.206923,-0.03846 -0.158776,-0.01168 -0.209955,-7.25e-4 -0.194826,-0.04492 -0.191513,0.03175 -0.189347,0.02867 -0.13884,0.04307 -0.228718,0.03886 -0.197211,0.0118 -0.215981,-0.02712 -0.167702,0.03345 -0.21419,-0.01042 -0.177362,0.0077 -0.183583,0.006 -0.247312,-0.03779 -0.156322,0.0011 -0.17585,0.03159 -0.213169,4e-5 -0.211088,-0.06835 -0.148688,0.0038 -0.207496,0.0072 -0.199887,0.0062 -0.181835,0.04025 -0.199307,0.0215 -0.255008,-0.04856 -0.163921,-0.0087 -0.231505,-0.03278 -0.111093,0.05799 -0.246093,-0.0041 -0.172697,0.07606 -0.216631,-0.03362 -0.191976,-0.0066 -0.177972,0.03266 -0.211984,-0.02682 -0.169455,-4.55e-4 -0.189578,0.108096 -0.226263,-0.03921 -0.206512,-0.09487 -0.18214,-0.01151 -0.19286,0.01751 -0.18766,0.0054 -0.165945,0.03165 -0.24001,-0.0034 -0.21031,-0.14871 -0.155212,0.03942 -0.282826,-0.06714 -0.07908,0.03869 -0.184534,0.03044 -0.24366,0.0856 -0.236867,-0.0025 -0.149919,0.001 -0.142938,0.07217 -0.20671,0.10179 -0.25036,-0.02575 -0.199255,-0.01318 -0.260265,-0.01479 -0.100717,0.03533 -0.186536,-0.0023 -0.156626,0.0672 -0.255886,-0.0095 -0.260036,-0.07711 -0.09456,0.0011 -0.152567,0.02906 -0.260861,-0.01883 -0.107695,0.106158 -0.292686,-0.03531 -0.219964,-0.04324 -0.189136,-0.03411 -0.184982,-0.03351 -0.160285,0.01256 -0.21743,-0.033 -0.19525,-0.04951 -0.212146,-0.09564 -0.175886,0.0072 -0.215651,-0.0055 -0.19849,-0.016 -0.21515,-0.06876 -0.19172,-0.05481 -0.205233,-0.009 -0.211076,-0.107667 -0.17527,0.01655 -0.204945,-0.0094 -0.20522,0.0097 -0.166061,0.06183 -0.122822,0.128889 -0.211937,0.0695 -0.211412,0.02725 -0.25815,-0.01716 -0.07658,0.06647 -0.259015,0.09981 -0.23165,-0.100532 -0.124419,0.0063 -0.27383,-0.01265 -0.124939,0.0204 -0.282124,-0.05148 -0.165579,-0.0089 -0.224469,-0.02252 -0.14399,0.03813 -0.213966,0.04653 -0.212852,-0.0018 -0.219399,-0.0088 -0.226908,-0.06681 -0.121653,0.01853 -0.190817,0.0107 -0.26696,-0.06125 -0.141505,-0.02644 -0.171148,-0.0046 -0.262784,-0.0778 -0.119349,0.01432 -0.111603,0.1006 -0.256926,0.0076 -0.191888,0.02202 -0.188828,0.0025 -0.115079,0.01712 -0.253428,0.0093 -0.297546,-0.01429 -0.09281,0.0161 -0.17831,0.02882 -0.05056,0.149904 -0.02744,0.209328 0.01316,0.219309 0.0025,0.190879 0.04682,0.198619 -0.02637,0.118351 -0.0046,0.235373 0.04761,0.244704 -0.0011,0.135148 8.05e-4,0.230284 -0.01952,0.148955 -0.0078,0.220006 -0.0015,0.194898 -0.04679,0.169756 0.0052,0.195231 -0.02926,0.202296 0.0038,0.200844 -0.02331,0.162776 0.04181,0.254946 -0.04537,0.09869 0.0741,0.306765 0.01731,0.149473 -0.0013,0.172336 0.104525,0.277252 -0.05311,0.107893 0.01242,0.28146 0.02481,0.227945 -0.0294,0.04805 0.03102,0.311902 0.0026,0.180448 0.003,0.198432 -0.01996,0.154135 -0.03664,0.151324 0.01519,0.314051 -0.03323,0.101699 0.02192,0.283283 0.01144,0.160265 0.04221,0.211994 -0.01093,0.153594 -0.0591,0.104445 0.02025,0.328102 -0.06402,0.117149 0.0094,0.231464 -0.04469,0.117121 0.05223,0.33756 0.0038,0.146732 -0.0077,0.161323 -0.04716,0.131611 0.0052,0.257718 0.107113,0.254746 8.9e-5,0.131404 -0.03428,0.169457 -0.03467,0.138796 -0.05113,0.198384 0.07246,0.296816 0.0032,0.157555 0.0091,0.206628 -0.0039,0.177194 -0.0039,0.16644 -0.01491,0.219145 -0.01523,0.12531 0.03547,0.27219 -0.03209,0.17587 -0.01675,0.21678 -0.03237,0.18174 -0.07277,0.13494 -0.01468,0.23648 0.01333,0.24923 0.02469,0.2238 0.02713,0.18768 0.01349,0.17704 0.01206,0.19387 -0.002,0.16294 0.01145,0.2628 -0.01676,0.15101 -0.03041,0.15274 0.01082,0.19528 0.02158,0.2599 -0.0041,0.17982 0.01012,0.17776 0.01392,0.21261 0.01975,0.20384 0.03938,0.23751 0.0011,0.15752 0.02722,0.20216 -0.0017,0.18428 0.0012,0.20642 -0.05304,0.19124 0.01266,0.19995 -0.08098,0.0492 0.0088,0.37586 -0.0048,0.11982 0.07583,0.27376 -0.0032,0.16123 0.0086,0.22002 0.04198,0.21575 3.44e-4,0.15902 -0.0014,0.21654 -0.04075,0.0873 -0.0034,0.2819 -0.04594,0.12664 0.0076,0.27827 0.0078,0.26099 0.0587,0.16874 0.06354,0.20601 0.0053,0.14594 0.0059,0.20785 0.0052,0.2391 -0.04532,0.12211 0.02689,0.23206 -0.04887,0.14205 0.04406,0.24122 0.03741,0.21881 -7.45e-4,0.17984 -0.02198,0.19235 -0.01366,0.19491 -0.07257,0.18595 0.01035,0.22101 0.01296,0.21475 -0.03328,0.14932 0.01092,0.21135 0.0047,0.22946 -0.01803,0.0982 0.04742,0.32528 -0.04958,0.0662 0.0076,0.2609 -0.02394,0.1873 0.02416,0.23309 0.01093,0.1784 0.01507,0.21705 -0.0053,0.16214 -0.0397,0.14804 -0.0013,0.23025 0.02935,0.26163 0.02693,0.20269 -0.0024,0.14921 -0.0108,0.19591 0.05904,0.3078 0.0087,0.12457 0.05625,0.26767 -0.0015,0.10429 -0.0821,0.11479 0.0013,0.27374 -0.03043,0.1724 -0.01384,0.21702 0.0075,0.21749 0.002,0.20114 -0.0035,0.17894 0.0484,0.26209 -0.05466,0.12945 -0.007,0.1903 -0.0087,0.14827 -0.01066,0.23682 0.004,0.21979 0.02295,0.22196 -0.0062,0.17127 -0.01479,0.21111 0.0027,0.19255 0.01114,0.21428 0.05641,0.18761 -0.0053,0.17151 0.01155,0.23983 0.01278,0.16183 0.03765,0.22515 0.03427,0.15604 0.01685,0.21031 -0.117751,0.15216 0.005,0.20628 0.0092,0.18428 0.08959,0.31435 -0.0051,0.0812 -0.03195,0.15379 -0.02223,0.20037 -0.03218,0.11322 0.07326,0.3729 -0.02408,0.19855 0.0607,0.2108 -0.101751,0.10737 -0.02813,0.16517 -0.05894,0.10007 0.04066,0.31278 -0.0013,0.16971 0.0204,0.25887 0.0096,0.14874 0.0638,0.27832 0.0026,0.10606 -0.04624,0.0906 0.07471,0.40368 1.63e-4,0.0885 -0.0057,0.18721 0.06131,0.20053 -0.09677,0.15678 -0.02787,0.15893 0.01179,0.26943 -0.0073,0.18315 -0.05268,0.18971 0.02857,0.25821 -0.03686,0.0567 0.01134,0.28632 -0.0079,0.17569 -0.0097,0.18776 0.04062,0.21229 -0.03661,0.18405 0.04618,0.23879 0.01292,0.16338 -0.04216,0.19892 -0.04514,0.17519 0.01023,0.20023 0.07152,0.26544 -0.0023,0.11315 -0.0042,0.20964 -0.02451,0.18351 0.0095,0.21591 0.04862,0.25035 0.03322,0.17653 0.03613,0.19284 0.03269,0.23135 -0.0064,0.11982 7.49e-4,0.21646 -0.01639,0.18472 -0.01094,0.20389 -0.03463,0.12047 -0.01291,0.23371 -0.01051,0.23225 -0.0361,0.18992 -0.01159,0.16248 -0.02938,0.21814 -0.01381,0.20855 -0.0094,0.18018 -0.0031,0.21894 0.03589,0.21621 -0.05504,0.1532 7.2e-4,0.2354 0.08469,0.24622 0.01577,0.19215 -0.016,0.14595 0.0078,0.22116 -0.01002,0.2076 -0.04288,0.15502 -0.0243,0.2203 0.204404,0.007 0.134123,-0.0526 0.23482,-0.016 0.217772,-0.006 0.199687,-0.035 0.195655,-0.012 0.149719,-0.12011 0.267554,0.0121 0.187811,-0.002 0.27562,0.0723 0.122608,-0.005 0.206976,0.009 0.202974,0.0185 0.203675,0.0235 0.188034,0.006 0.203991,0.007 0.199631,0.0154 0.205426,0.12674 0.189066,0.002 0.185669,-0.007 0.225955,-0.002 0.192726,0.003 0.228661,0.0663 0.177593,0.0182 0.189694,-0.10168 0.159564,-0.073 0.231492,0.007 0.228446,0.061 0.178498,0.006 0.230678,-0.0176 0.158752,-0.0352 0.227448,0.0254 0.113952,-0.0561 0.214341,-0.032 0.291846,0.0968 0.141757,-0.0162 0.201654,4e-4 0.235471,0.0495 0.16666,0.009 0.157621,-0.009 0.232112,-0.003 0.114427,-0.0714 0.374444,0.0212 0.03901,-0.0274 0.245216,-0.0259 0.206582,-0.037 0.202708,-0.009 0.164874,-0.0267 0.245536,0.028 0.200867,0.012 0.220683,0.0355 0.208206,0.10886 0.161752,0.002 0.17222,-0.0805 0.215967,0.003 0.177053,-0.0255 0.238846,0.0288 0.224547,0.0493 0.197269,0.0341 0.157027,-0.0186 0.161657,-0.0511 0.230025,-0.008 0.190347,-0.0111 0.19921,-0.0241 0.199329,-0.0324 0.196542,-0.007 0.21848,0.004 0.181528,-0.0139 0.212979,0.007 0.208297,0.003 0.144785,-0.0156 0.192514,-0.0568 0.208342,-0.0571 0.237575,0.0105 0.254526,0.0525 0.134386,-0.044 0.160722,-0.0211 0.266908,0.0957 0.16736,-0.006 0.219388,0.004 0.195896,0.01 0.233071,0.0419 0.235826,0.0571 0.14173,0.003 0.191886,-0.024 0.200679,-0.0353 0.220411,0.0675 0.168686,-0.0283 0.20593,-0.0315 0.206154,0.0176 0.09699,-0.10834 0.16352,-0.0116 0.239625,0.008 0.205193,0.006 0.196888,0.007 0.194498,0.005 0.182533,-0.002 0.185504,-0.0864 0.235037,0.009 0.197195,0.005 0.194539,0.002 0.196261,-0.002 0.206036,-0.004 0.194411,-0.0845 0.229731,0.10597 0.162659,0.003 0.220153,0.0137 0.19638,0.009 0.197193,0.007 0.222773,0.052 0.180502,0.0735 0.187014,-0.0103 0.156215,-0.0794 0.230254,-0.017 0.23517,0.0285 0.156733,-0.0286 0.17631,-0.0114 0.240984,-0.0629 0.236988,0.039 0.182341,0.0175 0.09546,0.002 0.303055,0.0383 0.228986,0.0591 0.143541,0.003 0.118974,-0.11568 0.313646,0.0924 0.194074,0.0666 0.08087,-0.13835 0.319429,0.013 0.17774,-0.007 0.19386,-0.025 0.258873,0.0974 0.181634,0.0399 0.157337,-0.002 0.193806,-0.0114 0.182202,-0.0221 0.227754,0.0126 0.220589,0.007 0.185826,0.0285 0.134244,-0.0514 0.325131,0.0257 0.120379,0.0226 0.169569,-0.0202 0.269912,0.007 0.151716,0.0368 0.148622,-0.058 0.226869,-0.0433 0.219068,0.0346 0.153038,0.0193 0.235475,0.0329 0.165259,-0.0163 0.243532,0.0436 0.210195,0.0384 0.172047,-0.0116 0.193234,-0.0126 0.09529,-0.10991 0.260817,-0.0422 0.281975,0.0368 0.159614,0.0268 0.194634,0.0467 0.193123,-0.0117 0.191188,-8.8e-4 0.203609,0.0108 0.20549,1.3e-4 0.17602,-0.006 0.204159,0.0352 0.193839,0.093 0.194139,-0.009 0.148568,-0.0111 0.135016,-0.17405 0.272808,-0.0583 0.201356,-0.0366 0.198592,0.0127 0.227165,0.0813 0.08104,-0.0137 0.29474,0.0606 0.111161,-0.004 0.232212,-0.0137 0.217684,0.02 0.166517,-0.1154 0.216522,0.0351 0.197465,0.023 0.17557,-0.03 0.232094,0.0773 0.183097,0.009 0.239986,0.089 0.159735,0.003 0.180301,-0.009 0.256784,0.051 0.139454,-0.0136 0.225241,0.0472 0.188801,-0.009 0.179602,-0.0905 0.222929,0.0176 0.167122,-0.009 0.21892,0.0196 0.206771,0.0245 0.164505,-0.0231 0.290841,0.0197 0.135325,0.0117 0.170395,-0.0665 0.173967,-0.0129 0.200637,-0.0115 0.197262,0.0187 0.188992,-0.003 0.194795,0.006 0.182229,-0.018 0.146426,-0.0813 0.254411,0.027 0.156039,-0.0132 0.191585,0.005 0.215975,0.01 0.183875,0.0434 0.135529,-0.0268 0.238209,0.008 0.171616,-0.091 0.223973,0.12056 0.223686,0.0507 0.165299,0.0128 0.219462,0.0887 0.222602,0.0426 0.120714,-0.0258 0.202139,-0.0136 0.204093,-0.008 0.312753,0.12233 0.08228,-0.0219 0.142566,-0.0347 0.267035,0.022 0.155215,-0.0564 0.195872,0.004 0.215946,-0.0147 0.170704,-0.0132 0.189265,-0.0164 0.284395,-0.0193 0.09262,-0.0325 0.231515,0.0282 0.149629,-0.0494 0.188233,-0.0213 0.187808,-0.0285 0.117606,-0.15746 0.243659,0.12112 0.156647,-0.0145 0.320103,0.0606 0.135263,0.0694 0.186714,-9.9e-4 0.153724,-0.0133 0.2381,0.0521 0.142308,-0.0274 0.199735,-0.0171 0.180364,-0.0231 0.187573,-0.0224 0.229573,-3.8e-4 0.14987,-0.0274 0.143565,-0.0329 0.179514,-0.0106 0.230089,0.049 0.14073,-0.0426 0.229486,-0.004 0.196224,0.002 0.222867,0.0872 0.182463,0.0427 0.163711,-0.0174 0.213824,-9.5e-4 0.11358,-0.0962 0.268491,-0.0166 0.19363,-0.0374 0.183508,-0.0225 0.231432,0.0119 0.205413,0.0259 0.160582,-0.0613 0.203741,0.008 0.214534,0.0916 0.174983,0.002 0.176558,-0.0187 0.233708,0.0501 0.167991,-0.0434 0.217462,0.035 0.270741,0.13187 0.128934,-0.005 0.197057,0.001 0.157779,-0.0488 0.169017,-0.0394 0.185248,-0.10381 0.258373,0.015 0.15916,-0.014 0.207442,4e-5 0.18802,0.004 0.285214,0.0308 0.149201,0.002 0.186368,-0.005 0.25143,0.002 0.149678,-0.005 0.154646,-0.10664 0.208867,0.009 0.219967,0.0366 0.207042,0.0258 0.122485,-0.0279 0.27171,0.0757 0.21428,0.0193 0.174022,0.0165 0.200311,0.0364 0.194346,-0.035 0.218513,0.0115 0.113655,-0.0711 0.230832,-0.0373 0.230738,0.004 0.210662,-0.008 0.273364,0.1074 0.123378,-0.0373 0.249514,0.0458 0.146943,-0.0187 0.160612,-0.0986 0.242318,-0.0954 0.174535,-0.0488 0.246056,0.0363 0.227579,0.0495 0.292931,0.0557 0.137644,0.0722 0.157203,0.004 0.119864,-0.059 0.245325,-0.003 0.188781,-0.001 0.204013,0.0284 0.235342,0.0286 0.115787,-0.0346 0.162135,-0.01 0.183427,-0.0178 0.218677,0.009 0.167333,-0.0905 0.218801,0.0443 0.22636,0.0507 0.143181,0.0605 0.199107,0.0765 0.156426,-0.0367 0.305296,0.0784 0.168366,0.003 0.165177,-0.0329 0.250401,0.0225 0.210564,0.004 0.155204,-0.0107 0.142001,-0.0657 0.236094,-0.0176 0.198861,-0.0181 0.180063,-0.0362 0.265057,0.0689 0.143209,-0.0716 0.174573,1e-5 0.215788,-0.0161 0.143357,-0.002 0.228804,-0.0145 0.229057,0.005 0.126104,-0.0729 0.307933,0.0556 0.144961,-0.0312 0.205653,-0.001 0.215895,0.0282 0.1697,-0.032 0.221705,-0.031 0.195764,0.16451 0.0017,0.22375 0.03835,0.15565 -0.03447,0.10162 0.02688,0.37312 -0.02067,0.0893 -0.01526,0.18687 -0.05566,0.14465 0.09196,0.35611 -0.0027,0.10891 -0.005,0.2221 -0.01301,0.12084 -0.05506,0.10278 0.01707,0.20778 0.03296,0.22037 0.02413,0.18271 0.01165,0.20583 4.71e-4,0.19347 -0.0037,0.19605 -0.02753,0.18675 0.03265,0.23687 -0.0444,0.11169 0.02471,0.30873 -0.02152,0.12963 -0.013,0.20032 0.05535,0.29101 0.0021,0.20014 0.02314,0.21855 0.03036,0.21111 -0.02831,0.10023 -0.03031,0.22232 -0.07232,0.148 0.0426,0.38256 -0.0147,0.0989 0.01683,0.21478 0.0034,0.18872 -0.03854,0.15841 0.05404,0.28201 2.84e-4,0.17113 -0.0072,0.16941 -0.06254,0.0826 0.0055,0.32001 6.27e-4,0.19077 0.06017,0.27172 -0.05782,0.0705 0.01088,0.2563 -0.009,0.18832 6.24e-4,0.2067 -0.02869,0.18187 0.07539,0.32481 0.0016,0.0957 0.0025,0.19465 -0.03915,0.18226 0.01605,0.21316 0.01204,0.29749 -7.26e-4,0.0785 0.07251,0.30348 -0.02109,0.10733 -0.01262,0.17923 -0.0025,0.21942 8.67e-4,0.19943 -0.02351,0.14084 -0.0075,0.24814 -0.03965,0.12481 0.06289,0.3253 -0.08595,0.0952 0.01586,0.22905 0.02422,0.2149 -0.0034,0.1973 -0.0021,0.14387 0.0059,0.2561 0.0121,0.25333 -0.0035,0.12197 0.03548,0.28628 -0.0199,0.12238 0.0033,0.20609 -0.111228,0.0448 0.01092,0.34961 -0.06683,0.16808 0.007,0.22602 0.01082,0.20855 -0.06403,0.10617 0.03401,0.2975 0.0079,0.16992 0.02515,0.23059 -0.05346,0.13171 -0.0076,0.22428 0.03424,0.23253 0.03513,0.21601 0.01151,0.16353 0.09037,0.27566 -0.0053,0.10986 -0.02692,0.18909 0.06577,0.30467 0.0056,0.14024 -0.01685,0.15618 -0.01287,0.20401 -0.0045,0.19023 -0.03188,0.19992 -0.0184,0.19111 -0.04386,0.19729 0.01034,0.32677 -9.65e-4,0.0853 -0.03361,0.1454 -0.03617,0.21923 0.03648,0.27514 0.05695,0.19706 -0.03813,0.10093 0.0013,0.23219 0.0019,0.20864 -0.0378,0.20795 0.121747,0.32702 -0.01539,0.0694 0.0532,0.23641 0.0057,0.19944 -0.07503,0.18052 -0.01463,0.15986 0.07701,0.31614 -0.0587,0.0728 -0.0397,0.19656 0.0221,0.2544 0.008,0.1632 0.08043,0.27517 0.02502,0.15211 0.06219,0.15725 -0.0021,0.21968 -0.06315,0.16376 -0.02027,0.0914 -0.01315,0.29258 0.0069,0.20552 0.0213,0.29905 -0.04723,-0.0272 -0.0064,0.23011 -0.02953,0.23354 0.06149,0.24609 -0.265366,-0.005 -0.141395,-0.0612 -0.182635,-0.0778 -0.191443,0.0101 -0.165787,0.0188 -0.21348,0.0901 -0.281187,-0.0289 -0.102622,-0.003 -0.189958,0.009 -0.120195,0.12906 -0.288355,-0.0656 -0.147447,4.2e-4 -0.190148,0.0131 -0.215964,-0.003 -0.217186,-0.0651 -0.122112,0.0698 -0.219768,0.0517 -0.229602,-0.005 -0.25173,-0.0477 -0.205016,-0.0212 -0.166803,-0.008 -0.18832,-0.0344 -0.1935,-0.0521 -0.230435,-0.054 -0.144061,0.035 -0.195386,0.0447 -0.219145,-0.007 -0.1435,0.007 -0.319767,-0.076 -0.09763,0.0262 -0.22779,0.011 -0.120123,0.0219 -0.22327,0.0233 -0.247478,0.0128 -0.270322,-0.0378 -0.13634,0.007 -0.213457,-0.01 -0.191377,-0.028 -0.210314,0.0155 -0.191275,0.0175 -0.249618,-0.0376 -0.169879,0.004 -0.200484,-0.003 -0.211648,-0.006 -0.122012,0.0663 -0.281506,-0.0565 -0.131132,0.0159 -0.195752,0.0195 -0.21299,-0.0575 -0.161185,0.0473 -0.257511,-0.0594 -0.143448,0.028 -0.217353,-0.0189 -0.165447,0.0176 -0.253963,-0.0455 -0.131244,0.13699 -0.281237,-0.0947 -0.128515,0.01 -0.192291,-0.0457 -0.171037,0.10094 -0.170796,0.0639 -0.153028,0.002 -0.268381,-0.0177 -0.09099,0.1401 -0.363412,-0.0436 -0.115785,0.004 -0.239279,-0.009 -0.136466,0.0258 -0.235716,-0.0241 -0.202233,-0.0102 -0.195074,-0.005 -0.189088,0.0113 -0.255759,-0.0653 -0.185754,-0.0439 -0.156602,0.0149 -0.20267,0.025 -0.206042,-0.007 -0.236794,-0.009 -0.159253,-0.003 -0.201681,-0.007 -0.20797,-0.0251 -0.18844,-0.008 -0.173595,0.0768 -0.200123,-0.004 -0.24138,-0.0646 -0.113042,0.0207 -0.21417,-0.0122 -0.09684,0.11164 -0.301449,-0.0551 -0.182225,-0.0379 -0.110136,0.0289 -0.260496,-0.0421 -0.203389,-0.0132 -0.155018,0.004 -0.190066,0.008 -0.240141,7.4e-4 -0.179738,0.0226 -0.127161,0.006 -0.26146,0.002 -0.162071,0.0707 -0.250733,-0.0133 -0.131273,0.0716 -0.257022,0.0228 -0.143258,0.0465 -0.241446,-0.0108 -0.167652,0.007 -0.205134,0.045 -0.183325,0.0345 -0.266133,-0.0429 -0.173664,-0.0157 -0.191185,-0.005 -0.235275,-0.0185 -0.0962,-0.001 -0.289295,-0.0602 -0.17271,-0.0209 -0.179361,-0.0116 -0.18963,-0.009 -0.22586,-0.0325 -0.162249,-0.007 -0.189027,0.0625 -0.20677,-0.10014 -0.209074,-0.0229 -0.25733,-0.0332 -0.123925,-0.0876 -0.213872,-0.021 -0.189853,-0.013 -0.173022,0.0634 -0.117882,0.12074 -0.179165,0.0973 -0.264423,-0.082 -0.183382,-0.0106 -0.204081,-0.0234 -0.190104,0.008 -0.202431,0.003 -0.201162,-7.7e-4 -0.205258,-0.0487 -0.105049,0.0655 -0.271673,0.008 -0.190267,0.0136 -0.255348,-0.0693 -0.168986,0.0318 -0.182131,0.0231 -0.216062,0.0491 -0.137811,0.0269 -0.256669,0.0421 -0.27258,-0.0397 -0.136739,-0.004 -0.170887,-0.003 -0.125246,0.11491 -0.286777,-0.003 -0.222134,-0.01 -0.185479,0.001 -0.241267,-0.0533 -0.16571,-0.007 -0.107845,-8.1e-4 -0.293511,-0.0246 -0.258302,-0.0183 -0.137604,-0.008 -0.185175,0.0695 -0.283437,-0.11799 -0.153505,-0.0207 -0.173815,-0.0147 -0.190969,0.019 -0.234099,-0.0223 -0.151143,0.0493 -0.188288,0.0671 -0.2024,0.004 -0.235595,-0.0454 -0.202959,-0.0392 -0.18895,-0.0315 -0.06977,0.01 -0.139373,0.0225 -0.223061,0.0304 -0.240315,0.0245 -0.230059,-0.0431 -0.124466,0.002 -0.259683,-0.004 -0.192051,0.0126 -0.21743,-0.0373 -0.214988,-0.0363 -0.178652,0.007 -0.210136,-0.0622 -0.250024,-0.003 -0.151855,0.003 -0.195879,0.0858 -0.20155,0.0363 -0.223857,-0.0583 -0.180231,0.0623 -0.205713,0.0498 -0.217189,-0.0218 -0.165919,0.0408 -0.250162,-0.0401 -0.184886,-0.006 -0.257543,-0.0266 -0.148605,-0.005 -0.210929,-0.014 -0.106384,0.10574 -0.390988,-0.0343 -0.108903,-0.009 -0.200859,-0.0126 -0.21787,-0.0329 -0.171978,0.0152 -0.231042,-0.0222 -0.150451,0.006 -0.265691,-0.0179 -0.170551,-0.01 -0.148155,0.005 -0.275649,-0.0911 -0.185169,0.0134 -0.237626,-0.005 -0.147388,0.0217 -0.228574,-0.007 -0.178889,-0.004 -0.18568,-1e-5 -0.144062,0.0698 -0.261361,-0.025 -0.202911,-0.0298 -0.169823,0.0185 -0.324508,-0.10796 -0.116928,-0.0117 -0.168728,-0.009 -0.222187,-0.0169 -0.161955,0.008 -0.205913,0.005 -0.184589,0.009 -0.213518,0.004 -0.219752,-0.0377 -0.176648,-0.003 -0.14702,0.0502 -0.259044,-0.007 -0.17752,0.0125 -0.176657,0.0411 -0.211416,0.0107 -0.110968,0.0629 -0.294144,-0.003 -0.178981,0.0278 -0.191766,0.002 -0.230899,-0.0149 -0.214576,-0.0186 -0.176823,-0.012 -0.195075,-0.005 -0.18792,0.003 -0.170171,-0.004 -0.223418,0.009 -0.296016,-0.14315 z"
     id="path2339"
     inkscape:path-effect="#path-effect2437"
     inkscape:original-d="M 48.698276,161.64345 H 44.003864 39.19174 31.953513 25.632928 20.685637 16.321763 12.817049 8.8763124 5.6716914 0.2771569 v -5.01188 -5.29684 -3.34155 -3.63744 -8.79555 -6.10711 -8.63325 -6.59837 -6.48604 -9.009521 -2.52361 V 91.044703 86.787126 80.941577 78.033626 71.944017 62.946456 59.857203 48.77273 43.230494 37.688258 27.083024 18.993092 12.538208 5.0415786 0.2397056 h 6.7546505 6.4390896 6.591504 2.134418 7.574703 2.704719 3.309816 2.681104 6.352531 3.878584 4.011235 6.166515 5.052131 3.008092 6.298712 7.378135 6.549556 6.774602 3.18214 v 5.3202145 7.8855469 8.875634 4.330126 h -3.31815 -3.095664 -5.787255 -6.127722 -4.607117 -2.83748 -4.494166 -1.905354 -3.042451 -8.80384 -4.40192 -4.40192 -4.324959 -4.621123 -3.841354 -4.820243 v 3.622023 6.992829 6.992829 5.378939 5.956107 6.272635 h 3.114057 5.81903 5.615852 4.792452 5.204152 2.602076 2.602076 3.998358 8.599029 4.038579 3.887934 5.041659 3.46233 3.889463 4.829063 v 7.122151 6.08361 9.298338 3.907423 h -8.96009 -1.792838 -2.730412 -8.286397 -11.97832 -6.900538 -5.633385 -6.034209 -6.426526 -4.72181 -4.031585 v 4.653434 7.400395 4.33645 7.08663 6.91277 4.6153 5.45544 6.4934 h 6.189661 6.339375 5.598518 7.083307 4.542453 2.568624 2.893421 4.510136 3.050332 4.621524 2.442245 4.246176 3.359702 5.187377 2.434164 2.798417 2.565286 v 2.31522 2.71769 8.17285 5.7357 3.79203 3.67803 h -2.287599 -5.945723 -3.684606 -3.974043 -2.254222 -7.453636 -7.948479 -7.975228 z"
     sodipodi:nodetypes="cccccccccccccccccccccccccccccccccccccccccccccccccccccccccccccccccccccccccccccccccccccccccccccccccccccccccccccccccccccccccccccccccccccccccccccccccccccccc"
     inkscape:label="E_f" /></svg>
