<?xml version="1.0" encoding="UTF-8" standalone="no"?>
<!-- Created with Inkscape (http://www.inkscape.org/) -->

<svg
   width="50.033997mm"
   height="61.944118mm"
   viewBox="0 0 50.033996 61.944118"
   version="1.1"
   id="svg5"
   xml:space="preserve"
   sodipodi:docname="o.svg"
   inkscape:version="1.2.2 (b0a8486541, 2022-12-01)"
   inkscape:export-filename="o_i.svg"
   inkscape:export-xdpi="96"
   inkscape:export-ydpi="96"
   xmlns:inkscape="http://www.inkscape.org/namespaces/inkscape"
   xmlns:sodipodi="http://sodipodi.sourceforge.net/DTD/sodipodi-0.dtd"
   xmlns="http://www.w3.org/2000/svg"
   xmlns:svg="http://www.w3.org/2000/svg"><sodipodi:namedview
     id="namedview7"
     pagecolor="#505050"
     bordercolor="#eeeeee"
     borderopacity="1"
     inkscape:showpageshadow="0"
     inkscape:pageopacity="0"
     inkscape:pagecheckerboard="0"
     inkscape:deskcolor="#505050"
     inkscape:document-units="mm"
     showgrid="false"
     inkscape:zoom="4.031583"
     inkscape:cx="48.988202"
     inkscape:cy="97.232279"
     inkscape:window-width="1920"
     inkscape:window-height="1011"
     inkscape:window-x="0"
     inkscape:window-y="0"
     inkscape:window-maximized="1"
     inkscape:current-layer="svg5" /><defs
     id="defs2"><inkscape:path-effect
       effect="roughen"
       id="path-effect183"
       is_visible="true"
       lpeversion="1.2"
       method="size"
       max_segment_size="0.19"
       segments="6"
       displace_x="0.13;562036735"
       displace_y="0.11;1174978230"
       global_randomize="0.5;367867303"
       handles="along"
       shift_nodes="true"
       fixed_displacement="false"
       spray_tool_friendly="false" /></defs><path
     style="fill:#000000;stroke-width:1.08168"
     d="m 23.678949,61.91713 -0.204539,0.0065 -0.172122,-0.02 -0.194081,-0.0015 -0.187007,-0.01473 -0.190628,-0.03866 -0.176586,-0.02277 -0.184241,0.01193 -0.172209,-0.03671 -0.190535,-0.0347 -0.185317,-0.02496 -0.159267,-0.01202 -0.213685,-0.02211 -0.174797,-0.0086 -0.177542,-0.02344 -0.173872,-0.03613 -0.187211,-0.03118 -0.178053,-0.0573 -0.186977,8.54e-4 -0.213874,-0.06393 -0.138231,-0.03266 -0.203606,-0.04829 -0.183787,-0.05531 -0.169927,-0.04343 -0.193306,-0.04765 -0.184585,-0.05578 -0.179272,-0.02008 -0.16083,-0.04734 -0.210252,-0.02701 -0.169595,-0.04445 -0.201443,-0.04611 -0.163119,-0.07659 -0.197458,-0.03908 -0.176606,-0.03314 -0.175672,-0.03334 -0.191526,-0.03126 -0.158454,-0.03397 -0.199834,-0.0407 -0.158629,-0.03891 -0.199511,-0.04647 -0.184273,-0.04584 -0.158587,-0.03802 -0.209342,-0.04512 -0.193129,-0.0399 -0.163541,-0.04431 -0.189344,-0.05109 -0.193862,-0.05039 -0.203879,-0.0316 -0.172245,-0.05609 -0.19614,-0.04339 -0.163061,-0.02773 -0.197814,-0.08622 -0.184592,-0.01637 -0.187093,-0.04739 -0.170915,-0.05051 -0.194454,-0.04533 -0.172187,-0.110284 -0.107496,-0.0933 -0.184782,-0.129516 -0.152085,-0.09858 -0.144769,-0.100354 -0.207769,-0.126954 -0.167469,-0.07538 -0.124763,-0.09173 -0.156071,-0.09654 -0.163569,-0.09718 -0.167812,-0.113444 -0.134687,-0.101335 -0.139355,-0.102125 -0.159369,-0.09048 -0.142621,-0.105935 -0.186166,-0.100466 -0.169194,-0.106446 -0.171763,-0.117178 -0.137457,-0.0943 -0.129573,-0.104822 -0.176449,-0.110604 -0.160347,-0.06953 L 9.9569376,57.60418 9.7940806,57.497005 9.6434056,57.396346 9.4825054,57.297441 9.3217494,57.170416 9.1670201,57.072821 9.049151,56.962071 8.8846249,56.858927 8.7520527,56.746616 8.575371,56.642791 8.4105964,56.55164 8.2638185,56.454413 8.1062918,56.350956 7.995476,56.257189 7.8047727,56.123429 7.7410173,56.008059 7.5578446,55.845216 7.4401134,55.755366 7.3204089,55.630945 7.165232,55.524194 7.0013682,55.422469 6.869107,55.328129 6.7119305,55.215128 6.5770632,55.109199 6.4535956,55.019604 6.2888595,54.905379 6.1658257,54.757113 6.0613606,54.645912 5.9227439,54.475095 5.8068055,54.366692 5.69228,54.19678 5.5604804,54.034802 5.4474158,53.903063 5.349781,53.747185 5.2447359,53.588778 5.1022085,53.433417 4.9897968,53.322644 4.8187062,53.147349 4.7315178,53.008234 4.6371303,52.85696 4.5407937,52.693974 4.4636581,52.550257 4.3619873,52.408515 4.2355927,52.194864 4.181474,52.07551 4.0956123,51.891609 4.0372371,51.72036 l -0.08221,-0.177739 -0.050098,-0.14743 -0.08649,-0.220766 -0.056659,-0.141184 -0.068561,-0.176386 -0.062816,-0.159064 -0.078861,-0.158524 -0.079246,-0.175432 -0.087116,-0.181784 -0.078586,-0.153888 -0.091369,-0.153705 -0.080858,-0.149081 -0.069157,-0.179194 -0.101471,-0.171632 -0.047269,-0.178134 -0.076449,-0.200715 -0.052133,-0.159765 -0.045263,-0.154346 -0.064977,-0.212408 -0.051086,-0.184781 -0.067237,-0.176004 -0.06629,-0.160324 -0.045711,-0.193046 -0.049079,-0.181269 -0.062346,-0.190032 -0.055791,-0.17312 -0.06891,-0.190265 -0.05697,-0.173324 -0.064597,-0.200089 -0.032685,-0.177173 -0.03069,-0.183064 -0.07051,-0.183009 -0.049769,-0.155461 -0.075319,-0.193367 -0.0493,-0.182246 -0.090916,-0.183259 -0.059713,-0.174549 -0.089618,-0.198003 -0.043538,-0.187107 -0.036208,-0.181131 -0.01418,-0.159453 -0.044424,-0.194716 -0.044694,-0.193487 -0.037676,-0.153497 -0.04511,-0.212035 -0.047193,-0.186364 -0.055444,-0.175511 -0.03138,-0.175123 -0.029845,-0.158162 -0.054064,-0.195966 -0.028593,-0.208437 -0.0486046,-0.165771 -0.0330946,-0.175588 -0.0844334,-0.18196 -0.0260794,-0.172706 -0.023678,-0.198175 -0.0486964,-0.178719 -0.0308484,-0.185689 -0.0415256,-0.166335 -0.067781,-0.171711 -0.0242631,-0.19851 -0.005243,-0.184987 -0.0126108,-0.188868 -0.008619,-0.190283 -0.0389617,-0.186268 0.001854,-0.197254 -0.0116667,-0.17098 -0.0196372,-0.190497 -0.009666,-0.215729 0.003894,-0.1724 -0.0157589,-0.18083 -0.012985,-0.191983 -0.0427601,-0.187093 0.005454,-0.191891 -0.0305005,-0.185868 -0.0100958,-0.180235 -0.007494,-0.196458 -0.003086,-0.204239 0.0322304,-0.16857 -0.0391844,-0.20917 -0.010124,-0.174676 -0.0152531,-0.187601 -0.01274,-0.187467 -0.005213,-0.193294 -6.2409e-4,-0.193689 -0.0459634,-0.176472 0.0321573,-0.206034 0.0217385,-0.173334 -0.0362348,-0.204164 -0.0361377,-0.197636 0.0136938,-0.157383 0.0378561,-0.179832 -0.003286,-0.199929 0.007327,-0.194491 0.013929,-0.145982 -0.0101912,-0.186266 -0.0207646,-0.203902 -0.0184494,-0.185045 0.0233171,-0.182399 -0.0206581,-0.182081 -0.007165,-0.187628 -0.0279273,-0.183999 -0.0160025,-0.18935 -0.0187906,-0.204507 -0.0316241,-0.155292 -0.024714,-0.179653 -0.0319178,-0.194642 -0.02095,-0.164207 L 0.08844272,31.884485 0.05811422,31.706829 0.04829074,31.524713 0.02487602,31.336297 0.01958153,31.152894 0.02543533,30.980236 0.02016918,30.775372 0.02066027,30.587126 0.03700239,30.398925 0.03515084,30.2079 0.05454916,30.02103 0.04906663,29.831083 0.03835736,29.636745 0.02450289,29.479373 0.05029566,29.275433 0.01725558,29.085147 0.00336953,28.902168 -1.0737997e-6,28.709252 0.04608262,28.518478 l -0.0028305,-0.17947 0.01831181,-0.17641 0.0010802,-0.211905 0.0084702,-0.224365 -0.02296898,-0.14805 -0.0083046,-0.162612 -0.0309635,-0.227608 0.02395962,-0.179405 -0.0089918,-0.189394 0.0072215,-0.187725 0.0070064,-0.187899 0.0028141,-0.182005 0.01318211,-0.170879 0.0126808,-0.198271 -0.0052136,-0.199903 -0.0043179,-0.181859 0.0075654,-0.199906 -0.0057298,-0.187274 0.0105692,-0.217482 0.01009176,-0.160076 0.0092281,-0.179877 0.0487472,-0.207285 0.005096,-0.147063 -0.0110958,-0.1833 0.008328,-0.216925 0.007628,-0.188835 0.0173564,-0.210634 0.004807,-0.164327 -0.0138934,-0.188062 0.0213442,-0.192708 0.0176842,-0.180257 0.004876,-0.190122 0.0210816,-0.171916 0.0291389,-0.165466 0.0228014,-0.198245 0.0195265,-0.175915 0.0310855,-0.180499 0.0187248,-0.164431 0.0161935,-0.155834 0.0564866,-0.219176 0.009275,-0.178558 0.0136951,-0.182781 0.0529821,-0.183577 -0.008683,-0.167131 0.001566,-0.189845 0.0380595,-0.203599 0.0824796,-0.157396 0.0309619,-0.130749 0.0522253,-0.213238 -0.004097,-0.166601 0.0142145,-0.176893 0.0368875,-0.182627 0.0155534,-0.181439 0.0396625,-0.18081 0.008302,-0.182984 0.040159,-0.172668 0.0676374,-0.175641 0.0499034,-0.166463 0.0518038,-0.147355 0.040187,-0.206247 0.029598,-0.158721 0.093684,-0.180545 0.064523,-0.133383 0.076101,-0.194719 0.06892,-0.17805 0.070782,-0.185863 0.080143,-0.173324 0.08029,-0.148698 0.073465,-0.188227 0.078283,-0.192883 0.04992,-0.181078 0.013243,-0.148928 0.090494,-0.200466 0.072313,-0.176968 0.086885,-0.172831 0.1014812,-0.170662 0.055034,-0.165419 0.054385,-0.165329 0.077075,-0.17647 0.06949,-0.153684 0.072411,-0.164745 0.093625,-0.161358 0.072193,-0.173836 0.055002,-0.165469 0.056055,-0.154774 0.094992,-0.169391 0.07899,-0.145403 0.09845,-0.171371 0.056914,-0.135933 0.048069,-0.188916 0.092245,-0.168518 0.086638,-0.158839 0.096847,-0.159053 0.1140808,-0.188886 0.075459,-0.13033 0.1019717,-0.189138 0.071693,-0.126741 0.092035,-0.165908 0.076263,-0.197591 0.1052109,-0.118702 0.1301835,-0.168873 0.094276,-0.151184 0.1154487,-0.164121 0.1047815,-0.153799 0.086751,-0.144852 L 4.6993654,9.8810587 4.7655766,9.721473 4.8550621,9.5567684 4.9517251,9.4030757 5.0202912,9.2295431 5.1256151,9.0621425 5.2350749,8.9371386 5.3559927,8.7880794 5.4790409,8.6384377 5.6035125,8.5022358 5.7192188,8.3565582 5.8105324,8.2152171 5.9393938,8.0700468 6.0508981,7.9073768 6.1860862,7.7605267 6.2938584,7.5986135 6.3822149,7.4791683 6.5075964,7.2965634 6.6245165,7.1339826 6.7243709,7.0215047 6.890554,6.8731275 7.0177126,6.7512356 7.1493546,6.6222286 7.2201056,6.4672836 7.3849087,6.3568653 7.5137798,6.2337916 7.6493491,6.115774 7.7889012,5.9995159 7.9297043,5.89913 8.0838994,5.7763601 8.2266362,5.659457 8.36215,5.5460885 8.5182083,5.4257168 8.686353,5.3077919 8.8060074,5.231433 8.9463115,5.0981506 9.0847637,4.9726989 9.2276543,4.8490792 9.3747047,4.7259863 9.5111945,4.6155756 9.681073,4.4911528 9.8091497,4.3793757 9.8925576,4.2728425 10.022387,4.1204601 l 0.160611,-0.085346 0.149233,-0.098978 0.136555,-0.080557 0.191816,-0.1166721 0.169265,-0.096098 0.157291,-0.093342 0.192849,-0.1209853 0.119213,-0.082986 0.161723,-0.089986 0.134047,-0.099723 0.183722,-0.1047048 0.176993,-0.1097482 0.113316,-0.078973 0.179797,-0.096602 0.206188,-0.069949 0.165687,-0.069174 0.159527,-0.057173 0.178988,-0.064811 0.152863,-0.055418 0.185983,-0.076352 0.163063,-0.058776 0.176381,-0.067401 0.174697,-0.060558 0.129093,-0.08376 0.201233,-0.055031 0.120816,-0.062509 0.197712,-0.078039 0.163872,-0.060193 0.125514,-0.061443 0.232401,-0.069429 0.138356,-0.059784 0.182425,-0.05167 0.180863,-0.05854 0.17705,-0.055049 0.158478,-0.053982 0.17223,-0.050741 0.175579,-0.072403 0.18749,-0.049013 0.193818,-0.0687 0.133794,-0.041568 0.184195,-0.0457 0.173599,-0.041935 0.147393,-0.069845 0.18547,-0.0561989 0.197704,-0.0574646 0.168918,-0.0646748 0.194047,-0.0774722 0.140843,-0.010536 0.199645,-0.008924 0.167463,-0.0278744 0.193058,-0.0273167 0.218614,-0.005503 0.13566,-0.008644 0.196524,-0.0349646 0.179426,-0.0536322 0.167045,-0.0667711 0.190318,-0.0316506 0.189362,0.003101 0.161805,-0.0332143 0.196869,-0.0320723 0.179543,0.006432 0.196935,-0.0312853 0.163905,-0.034982 0.171221,-0.0282324 0.199817,0.008755 0.190685,-0.0356897 0.168455,-0.0505476 0.158596,-0.0647435 0.184192,-0.016634 0.184079,-0.0193782 0.157597,-0.005116 0.218011,-0.009329 0.167933,-0.0132477 0.244164,-0.0093025 0.167548,0.01043529 0.143792,-0.009178 0.173089,-0.03150519 0.208049,-0.0070349 0.19527,0.01460663 0.182531,-0.0095904 0.175072,-0.03422488 0.200485,-0.01093259 0.158733,-0.022286369281 0.197027,0.028783559281 0.18899,-0.0173739 0.166671,0.01367721 0.198833,0.01738303 0.154664,0.01487416 0.19945,0.01316607 0.167691,-1.5521e-4 0.208823,0.02498057 0.190995,0.01227729 0.182645,0.001981 0.183496,0.0154608 0.173598,0.0159304 0.199597,0.009644 0.188019,0.0130556 0.154917,0.001303 0.19364,0.007513 0.180105,0.0303413 0.149973,0.0133388 0.217406,0.0348341 0.184957,0.0191821 0.172111,0.0259317 0.17231,0.0294695 0.198437,0.0183081 0.138523,0.0225956 0.206272,0.0277727 0.198731,0.0516579 0.157865,0.0205421 0.18684,0.0300008 0.179221,0.0483645 0.186035,0.0236844 0.127721,0.003033 0.201643,0.0211518 0.173502,0.0294964 0.183333,0.0165314 0.219372,0.0336781 0.190411,0.0195586 0.157998,0.0644598 0.228677,0.0487008 0.136099,0.0356229 0.148893,0.0456754 0.21736,0.0714711 0.181764,0.052657 0.177029,0.055337 0.183588,0.046609 0.175324,0.021347 0.19389,0.058326 0.173717,0.038821 0.186611,0.048355 0.163127,0.045887 0.185988,0.066454 0.170964,0.052674 0.155196,0.048979 0.188009,0.057462 0.173346,0.044872 0.177169,0.049897 0.201478,0.048684 0.13057,0.053053 0.183051,0.040288 0.170825,0.055404 0.185477,0.05407 0.115936,0.051781 0.220732,0.070755 0.180212,0.054849 0.163248,0.054842 0.165381,0.026867 0.186185,0.065167 0.151479,0.1152933 0.159671,0.095801 0.150325,0.099609 0.168147,0.098781 0.158769,0.086279 0.130411,0.075867 0.163692,0.094627 0.174896,0.1180082 0.155968,0.09 0.140713,0.070736 0.195948,0.126333 0.131761,0.0918 0.186011,0.095788 0.140146,0.1231547 0.141745,0.089368 0.153163,0.052787 0.176766,0.1046965 0.132557,0.1117979 0.168121,0.1179504 0.145249,0.079957 0.169307,0.1073932 0.169732,0.1087887 0.125208,0.094579 0.13557,0.1362291 0.128442,0.117789 0.132068,0.1024393 0.153101,0.1376683 0.103299,0.1344155 0.143648,0.1277281 0.124888,0.122193 0.129832,0.1404833 0.149723,0.1188862 0.126322,0.1102956 0.140443,0.1568194 0.127554,0.1037251 0.132335,0.1312844 0.146305,0.1135744 0.125893,0.1066273 0.142484,0.1224445 0.143137,0.1264582 0.117136,0.1476496 0.116859,0.1365744 0.111413,0.1156649 0.128656,0.159969 0.09088,0.1501967 0.118531,0.1487259 0.115479,0.1389102 0.117739,0.1452114 0.102947,0.1247728 0.104632,0.1510351 0.119382,0.1450206 0.111315,0.1497122 0.157033,0.1373626 0.09613,0.1217031 0.0981,0.1394475 0.134087,0.1479812 0.109855,0.1328575 0.134663,0.145393 0.110817,0.1270879 0.107027,0.1786104 0.09047,0.1389494 0.104504,0.1740762 0.08674,0.1577373 0.0924,0.1807659 0.104118,0.126823 0.09835,0.167236 0.07621,0.158217 0.101479,0.186112 0.131299,0.150128 0.107578,0.140253 0.08396,0.173373 0.07896,0.131932 0.07617,0.17755 0.09223,0.166125 0.07369,0.174786 0.106972,0.174989 0.0582,0.14237 0.06109,0.164764 0.06383,0.173788 0.0759,0.172861 0.05888,0.145482 0.05733,0.180919 0.100725,0.184183 0.01752,0.150192 0.05961,0.157954 0.07037,0.196478 0.07622,0.16833 0.07767,0.159869 0.06721,0.195121 0.06477,0.160005 0.0621,0.173553 0.07175,0.167742 0.0654,0.182815 0.05457,0.163838 0.07033,0.11909 0.08478,0.197737 0.06752,0.164053 0.06084,0.143086 0.07473,0.167451 0.07461,0.172968 0.06427,0.190238 0.0523,0.172565 0.05681,0.198875 0.04687,0.176739 0.0708,0.173531 0.059,0.199743 0.03971,0.145577 0.05488,0.187603 0.04979,0.184253 0.07317,0.203219 0.0513,0.145297 0.05499,0.153864 0.03369,0.205407 0.05598,0.174748 0.04864,0.213967 0.0086,0.157646 0.07779,0.168269 0.05406,0.200082 0.01202,0.188014 0.06527,0.171334 0.05585,0.176618 0.03182,0.172882 0.02367,0.21286 0.03133,0.167949 0.0416,0.165549 0.03209,0.159366 0.03791,0.195916 0.01002,0.179634 0.04038,0.182136 0.03239,0.189326 0.08094,0.176453 0.03395,0.154646 0.04577,0.166572 0.02853,0.190684 0.04168,0.186869 0.02799,0.175035 0.002,0.167436 0.02072,0.214593 0.0633,0.173999 0.01946,0.163873 0.03324,0.184499 0.03778,0.199284 0.01734,0.179713 0.03691,0.192322 0.02747,0.18272 0.03231,0.189185 0.0058,0.158417 0.02933,0.210256 0.03749,0.205158 0.02021,0.155784 0.03127,0.188549 0.06618,0.183031 0.03619,0.206996 0.0072,0.16019 0.02714,0.176847 0.04227,0.175267 0.03633,0.198491 0.0507,0.188987 0.04971,0.171308 0.0091,0.18989 -0.05137,0.193083 0.0093,0.148102 0.0041,0.206107 0.01054,0.228169 0.0086,0.161621 0.0097,0.185699 0.01434,0.211146 0.03344,0.166029 -7.38e-4,0.151872 0.0034,0.240311 -0.0031,0.160273 0.01227,0.183842 -0.0045,0.177215 8.1e-5,0.196222 0.03105,0.170256 7.8e-4,0.213041 -0.05448,0.173645 0.02383,0.165003 -0.0052,0.21154 0.02088,0.190104 0.01016,0.186351 -0.02522,0.140936 -0.03735,0.183831 -0.03713,0.177142 -0.02102,0.18178 0.0017,0.2029 0.001,0.148264 -0.0085,0.216889 -0.006,0.168025 -0.0061,0.186687 0.0031,0.181846 -0.0174,0.184686 -0.01109,0.180959 -0.01018,0.183553 0.01938,0.181581 -0.01236,0.181732 -0.0086,0.192777 0.0046,0.184244 -0.01458,0.176785 -0.01475,0.18948 -0.01857,0.17343 -0.02966,0.188212 -0.0076,0.157754 0.01631,0.178966 -0.03214,0.211205 -0.01769,0.160705 -0.01942,0.242751 -0.03319,0.130763 -0.01871,0.194486 -0.01118,0.197493 -0.01653,0.180409 -0.01802,0.181606 -0.01292,0.154266 -0.04718,0.191295 -0.01615,0.190893 -0.0034,0.173111 -0.03397,0.201625 -0.01057,0.173115 -0.0041,0.181902 -0.02549,0.220823 0.0072,0.137125 -0.0433,0.197329 -0.0365,0.194977 -0.02659,0.157297 -0.02569,0.198617 -0.01219,0.181387 -0.02288,0.16442 -0.03294,0.194972 -0.01841,0.178047 -0.02872,0.186914 -0.04033,0.169457 -0.02318,0.185579 -0.04663,0.182614 -0.0402,0.159762 -0.02841,0.189868 -0.06341,0.17883 -0.02328,0.185962 -0.0068,0.18938 -0.03519,0.172736 0.0035,0.181614 -0.01287,0.187345 -0.0107,0.175027 -0.01379,0.186983 0.01661,0.191305 -0.04046,0.157866 -0.04454,0.218914 -0.05853,0.176493 -0.0383,0.165686 -0.02136,0.189858 -0.03568,0.183252 -0.02367,0.172498 -0.02652,0.210017 -0.0093,0.160624 -0.05334,0.197097 -0.02992,0.181773 -0.05985,0.169006 -0.04593,0.195277 -0.06904,0.184825 -0.04328,0.173878 -0.03481,0.180278 -0.02186,0.177921 -0.04548,0.190507 -0.07204,0.173186 -0.03874,0.181833 -0.05864,0.169271 -0.06074,0.179086 -0.06549,0.167019 -0.07452,0.205049 -0.08154,0.163632 -0.05899,0.160251 -0.07632,0.174529 -0.07575,0.151409 -0.08344,0.167931 -0.03512,0.185418 -0.06866,0.177719 -0.06633,0.173746 -0.06276,0.176498 -0.04054,0.172078 -0.05737,0.153437 -0.0861,0.164572 -0.112438,0.165885 -0.122792,0.115741 -0.0737,0.162807 -0.123499,0.161959 -0.07638,0.13206 -0.06123,0.17132 -0.08237,0.158868 -0.08147,0.161895 -0.09101,0.150606 -0.08626,0.161487 -0.09226,0.153809 -0.0924,0.191832 -0.07894,0.122115 -0.08716,0.148217 -0.08832,0.18576 -0.08714,0.129446 -0.0963,0.151113 -0.09789,0.153775 -0.07577,0.1324 -0.121834,0.173051 -0.129945,0.143781 -0.06918,0.139135 -0.09242,0.168501 -0.05148,0.157317 -0.102037,0.146332 -0.115352,0.15733 -0.105103,0.119155 -0.122108,0.178473 -0.10512,0.115109 -0.116654,0.141817 -0.103482,0.131542 -0.123558,0.140909 -0.114337,0.141433 -0.07961,0.145515 -0.131265,0.135714 -0.139829,0.113565 -0.130435,0.130605 -0.131234,0.14939 -0.109961,0.122187 -0.128674,0.136753 -0.111984,0.114556 -0.121776,0.129489 -0.12806,0.12868 -0.114691,0.128031 -0.149206,0.117243 -0.121763,0.123028 -0.128646,0.139357 -0.115294,0.133294 -0.138814,0.132569 -0.122035,0.124631 -0.10498,0.134498 -0.139671,0.144896 -0.128274,0.136655 -0.121185,0.142537 -0.09002,0.124523 -0.162306,0.133862 -0.152803,0.117737 -0.124989,0.1154 -0.119404,0.131288 -0.124965,0.121513 -0.165323,0.103867 -0.148351,0.09172 -0.187502,0.102744 -0.140027,0.101961 -0.157853,0.09096 -0.151791,0.08503 -0.173642,0.107759 -0.174401,0.09091 -0.138163,0.09856 -0.149208,0.138905 -0.151213,0.08632 -0.166417,0.09921 -0.164104,0.105884 -0.133412,0.0929 -0.171244,0.09802 -0.164897,0.07948 -0.116273,0.107696 -0.147758,0.0746 -0.161373,0.06641 -0.151464,0.09839 -0.15446,0.117846 -0.115481,0.06478 -0.187094,0.107596 -0.161846,0.113562 -0.177897,0.0659 -0.134042,0.02443 -0.209163,0.0691 -0.113725,0.05821 -0.160364,0.06016 -0.165193,0.03755 -0.169213,0.06723 -0.177536,0.06386 -0.179109,0.06022 -0.163684,0.06474 -0.120497,0.08938 -0.177389,0.08331 -0.183483,0.0463 -0.170031,0.072 -0.165788,0.09412 -0.163136,0.0572 -0.206987,0.06542 -0.16513,0.04768 -0.183386,0.06773 -0.183091,0.07357 -0.167807,0.04482 -0.157777,0.0397 -0.176224,0.06985 -0.177743,0.06558 -0.206789,0.03129 -0.160216,0.01885 -0.181942,0.0339 -0.193699,0.0085 -0.175232,0.03888 -0.20236,0.03793 -0.169138,0.0064 -0.185408,0.04865 -0.22135,0.02781 -0.157822,0.0305 -0.180858,0.02448 -0.189183,0.0088 -0.195747,0.04959 -0.160101,0.03509 -0.191684,0.07155 -0.18942,0.04693 -0.153675,0.03484 -0.198827,0.05874 -0.12959,0.03239 -0.24052,0.06302 -0.151351,0.04264 -0.236657,0.02598 -0.135129,0.02386 -0.195238,0.0026 -0.159307,0.07457 -0.188005,0.03106 -0.167314,0.01282 -0.194782,0.01272 -0.205408,0.004 -0.229844,-0.01377 -0.125607,-0.02081 -0.222069,0.01656 -0.168777,0.0049 -0.198655,0.01691 -0.191699,0.001 -0.182668,-1.92e-4 -0.202267,0.0089 -0.18715,0.01273 -0.181431,0.02832 -0.175461,-0.0088 -0.195392,0.02814 -0.149152,-0.0043 -0.232686,-0.0071 -0.168205,-0.01565 -0.169026,0.0079 -0.177613,-0.01781 -0.189291,0.02356 -0.19509,-0.02398 z m 2.729341,-12.066539 0.180825,-0.0254 0.147653,-0.03704 0.205854,-0.02258 0.164184,-0.04304 0.200372,-0.04193 0.187117,-0.03997 0.175334,-0.04717 0.173793,-0.03547 0.172946,-0.02625 0.182956,-0.04914 0.193157,-0.03123 0.182353,-0.05089 0.153325,-0.07054 0.188585,-0.03506 0.16585,-0.03136 0.181432,-0.02305 0.178477,-0.04193 0.174703,-0.0516 0.179481,-0.07402 0.150768,-0.07875 0.157007,-0.06684 0.166048,-0.08152 0.168157,-0.07485 0.17531,-0.07633 0.154683,-0.05427 0.167081,-0.05996 0.173121,-0.09146 0.147535,-0.08527 0.160536,-0.144895 0.07573,-0.108555 0.144583,-0.124285 0.136013,-0.11283 0.137929,-0.110221 0.139017,-0.122803 0.135226,-0.111425 0.137013,-0.138061 0.131439,-0.08986 0.171787,-0.0963 0.153764,-0.114068 0.128061,-0.118739 0.135247,-0.133041 0.134362,-0.117833 0.131604,-0.110469 0.151535,-0.124272 0.124323,-0.125041 0.141095,-0.129247 0.115724,-0.130302 0.140464,-0.130864 0.09786,-0.17677 0.09053,-0.143112 0.105012,-0.154427 0.103466,-0.178161 0.09275,-0.145321 0.09468,-0.170872 0.07768,-0.144567 0.110154,-0.153941 0.122404,-0.168936 0.09519,-0.137465 0.119678,-0.140294 0.08929,-0.171648 0.05895,-0.19201 0.06879,-0.172227 0.05867,-0.14495 0.06506,-0.213241 0.05194,-0.189067 0.05333,-0.169432 0.05124,-0.164135 0.05115,-0.176388 0.05522,-0.18763 0.07678,-0.184195 0.04726,-0.175677 0.05341,-0.1793 0.04947,-0.197666 0.04599,-0.164443 0.03839,-0.16984 0.07191,-0.196433 0.04469,-0.167581 0.03128,-0.187403 0.04031,-0.164348 0.07394,-0.203503 0.02845,-0.180742 -0.0051,-0.177371 0.04269,-0.199997 0.04183,-0.153665 0.0577,-0.191713 -7.98e-4,-0.172983 0.04407,-0.191904 0.04681,-0.170789 0.02906,-0.199925 0.06671,-0.165501 0.03748,-0.177888 0.03846,-0.17665 0.03997,-0.178205 0.04746,-0.179142 -0.01143,-0.198155 0.02278,-0.16127 0.06927,-0.214014 0.03018,-0.123611 0.07568,-0.22237 0.03916,-0.155019 0.01991,-0.163692 0.02105,-0.230772 0.03974,-0.145737 0.0023,-0.195969 0.02018,-0.191174 0.01851,-0.200889 0.0048,-0.197517 0.0131,-0.170714 0.01937,-0.194791 -0.0021,-0.170781 0.02639,-0.200145 0.0087,-0.18536 0.03943,-0.161751 0.06463,-0.183083 -0.0036,-0.192886 -0.0011,-0.213563 -0.0046,-0.186958 0.02241,-0.151757 0.01015,-0.19177 0.02109,-0.198347 0.01247,-0.188898 0.03805,-0.166 0.01294,-0.213699 0.0038,-0.172945 0.02057,-0.178723 -0.0097,-0.16998 0.02831,-0.188409 0.01613,-0.192069 -0.01395,-0.186553 0.01413,-0.184319 0.01124,-0.169189 0.01823,-0.19771 0.02864,-0.178663 0.05558,-0.186311 0.01371,-0.161386 -0.0035,-0.20257 0.02224,-0.217862 0.01007,-0.141967 -0.01476,-0.152983 0.01455,-0.203136 -0.0087,-0.1955 -0.0292,-0.17251 0.01235,-0.178507 -0.0074,-0.171828 -0.03327,-0.240303 -0.01364,-0.136649 -0.0079,-0.174856 -0.03641,-0.171766 -0.02722,-0.186391 -0.03693,-0.177593 -0.0036,-0.164142 0.0048,-0.196585 -0.02376,-0.170772 -0.02207,-0.191487 0.0077,-0.178695 -0.06043,-0.207402 -0.03482,-0.158091 -0.03395,-0.191893 -0.03163,-0.185566 -0.04746,-0.182891 -0.03832,-0.197383 -0.02733,-0.129193 -0.03385,-0.237845 -0.03557,-0.154041 -0.01709,-0.17545 -4.37e-4,-0.175483 -0.03437,-0.208366 0.01397,-0.142069 -0.04896,-0.216143 -0.02176,-0.17966 -0.0069,-0.156908 -0.05889,-0.213387 -0.01946,-0.165373 -0.09791,-0.171272 -0.03825,-0.177369 -0.05548,-0.180178 -0.04821,-0.178357 -0.01236,-0.173358 -0.05238,-0.183189 -0.04939,-0.180341 -0.05555,-0.17893 -0.07145,-0.174992 -0.04677,-0.179601 -0.04701,-0.169788 -0.04483,-0.173095 -0.05552,-0.184773 -0.05733,-0.198769 -0.03218,-0.181729 -0.04846,-0.134497 -0.02371,-0.180816 -0.06533,-0.20029 -0.05401,-0.16689 -0.04518,-0.163947 -0.07399,-0.188673 -0.0593,-0.172869 -0.04136,-0.193086 -0.08652,-0.194217 -0.05388,-0.151768 -0.06388,-0.181361 -0.06165,-0.179453 -0.06881,-0.17597 -0.04307,-0.16168 -0.07578,-0.202058 -0.04965,-0.196538 -0.06878,-0.151325 -0.0643,-0.180465 -0.116674,-0.138124 -0.11227,-0.147018 -0.100592,-0.168068 -0.09927,-0.154295 -0.07455,-0.166258 -0.108242,-0.145232 -0.116887,-0.153289 -0.09353,-0.145107 -0.110629,-0.185034 -0.09226,-0.124269 -0.110474,-0.188957 -0.08859,-0.131582 -0.117075,-0.09572 -0.112377,-0.18562 -0.116323,-0.148492 -0.151409,-0.124015 -0.14411,-0.109279 -0.0986,-0.122192 -0.148432,-0.139735 -0.127622,-0.121191 -0.155126,-0.133093 -0.119937,-0.10228 -0.135963,-0.130224 -0.180383,-0.117869 -0.144386,-0.08235 -0.09284,-0.108292 -0.178532,-0.132025 -0.156513,-0.104908 -0.142364,-0.07379 -0.16902,-0.142221 -0.145259,-0.09552 -0.151815,-0.105217 -0.147009,-0.09323 -0.149339,-0.115504 -0.137638,-0.11785 -0.169534,-0.07647 -0.164666,-0.04972 -0.202851,-0.05876 -0.158815,-0.06113 -0.15983,-0.0837 -0.195611,-0.07959 -0.203478,-0.0521 -0.147375,-0.03813 -0.165036,-0.07529 -0.191478,-0.0881 -0.198147,-0.05271 -0.155437,-0.03774 -0.181351,-0.04591 -0.179352,-0.03674 -0.180508,-0.03763 -0.205855,-0.04507 -0.151467,-0.05093 -0.214078,-0.01018 -0.172303,-0.0026 -0.180692,-5.43e-4 -0.18937,-0.0082 -0.189705,0.0068 -0.203444,-0.0046 -0.199183,-0.02706 -0.184694,-0.0066 -0.191139,-0.02826 -0.18688,-0.01019 -0.174948,-0.0071 -0.186514,-0.02877 -0.160293,0.01019 -0.230333,-0.01217 -0.177386,-0.02424 -0.192683,-0.02628 -0.197059,-0.0088 -0.177004,-0.0319 -0.190974,0.03468 -0.194183,0.03102 -0.170417,0.04833 -0.176631,0.0759 -0.18326,0.03755 -0.184456,0.07212 -0.174483,0.04515 -0.18155,0.04608 -0.166713,0.04075 -0.196853,0.04943 -0.166965,0.01517 -0.160864,0.04716 -0.203611,0.0263 -0.220456,0.04612 -0.189568,0.03308 -0.184106,0.05868 -0.175251,0.04559 -0.16236,0.06015 -0.163054,0.07258 -0.211455,0.06894 -0.154694,0.09067 -0.162308,0.115657 -0.155798,0.111718 -0.173414,0.08833 -0.155454,0.07074 -0.128241,0.114319 -0.214733,0.08366 -0.11298,0.100029 -0.18233,0.07987 -0.152732,0.06094 -0.161895,0.08802 -0.158736,0.08786 -0.171901,0.0908 -0.150334,0.08691 -0.162046,0.09145 -0.158455,0.122633 -0.147562,0.100136 -0.165065,0.07189 -0.165237,0.0565 -0.14224,0.151988 -0.111875,0.09405 -0.137623,0.170231 -0.115162,0.122129 -0.128846,0.152695 -0.111727,0.118082 -0.133696,0.163852 -0.11849,0.124803 -0.116123,0.115392 -0.134276,0.158852 -0.138644,0.104942 -0.155839,0.165363 -0.09965,0.114821 -0.124132,0.119319 -0.106171,0.173345 -0.136357,0.09533 -0.137757,0.13686 -0.121898,0.122921 -0.148919,0.106971 -0.151137,0.149232 -0.103017,0.130827 -0.172947,0.150529 -0.04219,0.181434 -0.03773,0.173096 -0.0754,0.187684 -0.08169,0.172382 -0.07528,0.142899 -0.07929,0.212804 -0.04711,0.149497 -0.06774,0.200491 -0.06632,0.156101 -0.06744,0.177993 -0.08385,0.173812 -0.07155,0.180326 -0.05955,0.168319 -0.06757,0.208846 -0.07345,0.132674 -0.06791,0.19465 -0.05192,0.154001 -0.0421,0.177083 -0.08311,0.185343 -0.111361,0.161995 -0.03856,0.17346 -0.0033,0.180765 -0.03627,0.187445 0.0089,0.181875 -0.0531,0.185808 -0.01026,0.191854 -0.03487,0.179745 -0.02631,0.188914 -0.03961,0.161936 -0.03206,0.171134 -0.05686,0.176264 -0.03654,0.180696 -0.06457,0.189926 -0.03534,0.149677 -0.02471,0.180506 -0.02417,0.193417 -0.05164,0.194323 -0.03207,0.174068 -0.04381,0.181644 -0.03936,0.182273 -0.03615,0.197562 -0.04083,0.157583 -0.03126,0.191189 -0.02478,0.173548 -0.04126,0.150291 0.01113,0.166716 -0.004,0.194508 -0.0074,0.190676 -0.03117,0.19179 0.0059,0.156296 -0.01438,0.18175 -0.03187,0.180948 -0.01631,0.172416 0.0061,0.176476 -0.008,0.183427 -0.02364,0.183285 -0.03881,0.183034 0.0138,0.167356 -0.02998,0.202234 -0.01232,0.161409 -0.0371,0.184787 0.0037,0.181152 -0.01415,0.184819 -0.0044,0.181413 -0.02836,0.188881 -0.01562,0.209348 -0.01777,0.154806 -0.02697,0.181346 -0.01305,0.185789 -0.03319,0.206001 0.0066,0.171033 0.0089,0.18036 -0.02297,0.175134 -0.04428,0.176428 -0.0045,0.199391 0.03589,0.198719 0.04093,0.15166 0.005,0.189075 0.01536,0.184751 0.01053,0.176962 0.0019,0.201642 0.014,0.162428 0.05353,0.162432 0.0093,0.212734 -0.0052,0.154626 0.01079,0.192793 -0.0055,0.179117 0.0065,0.177201 0.01824,0.204949 0.0033,0.114248 0.0332,0.220905 0.01324,0.187945 0.01082,0.184055 0.0093,0.205103 0.01915,0.149241 0.01566,0.185238 0.0053,0.174343 0.0056,0.15809 0.01521,0.19327 0.01952,0.163404 0.01497,0.20297 0.01858,0.166573 0.01017,0.182897 0.03957,0.192213 -0.01391,0.163767 0.01017,0.192506 0.03431,0.144145 0.03538,0.232825 0.03114,0.176741 0.02515,0.200164 0.01203,0.167931 0.03109,0.190062 0.01234,0.182233 0.03202,0.165939 0.03474,0.226623 0.02526,0.182972 0.03841,0.17191 0.03642,0.203129 0.03119,0.161508 0.02853,0.18629 0.02199,0.208234 0.04224,0.176832 0.04161,0.184661 0.02888,0.169758 0.03036,0.164812 0.02646,0.198222 0.05999,0.178657 0.08936,0.170507 0.05222,0.165653 0.05955,0.176696 0.04982,0.18609 0.071,0.160065 0.06856,0.208358 0.05826,0.147737 0.04218,0.162615 0.07275,0.186627 0.07988,0.160157 0.100862,0.179242 0.0682,0.182698 0.04429,0.147035 0.07062,0.187335 0.071,0.159324 0.08511,0.187375 0.07644,0.144945 0.06557,0.172903 0.07096,0.173275 0.0639,0.150093 0.05715,0.196209 0.0486,0.178938 0.06473,0.153073 0.157927,0.141626 0.107253,0.133684 0.147213,0.117004 0.120387,0.145866 0.123669,0.100591 0.130126,0.15827 0.128254,0.13829 0.131798,0.139975 0.127281,0.134616 0.125779,0.1277 0.133723,0.136764 0.127051,0.146644 0.08779,0.127481 0.153549,0.16299 0.133225,0.144626 0.123901,0.150496 0.108756,0.125446 0.140045,0.131838 0.137718,0.129862 0.133161,0.166107 0.153733,0.08793 0.165938,0.07899 0.148116,0.08796 0.165387,0.115919 0.167891,0.08059 0.159869,0.101174 0.192704,0.08495 0.123536,0.07915 0.166734,0.09911 0.16157,0.08511 0.174737,0.08174 0.156103,0.09067 0.164268,0.08278 0.150409,0.08037 0.178692,0.06607 0.142346,0.08886 0.184218,0.103755 0.184241,0.08955 0.109952,0.09059 0.157227,0.08641 0.188523,0.06301 0.196637,0.01744 0.179392,0.04899 0.172721,0.05645 0.15896,0.05409 0.198367,0.05786 0.165576,0.0908 0.175586,0.05588 0.171168,0.04774 0.164511,0.05057 0.195113,0.04661 0.184601,0.04469 0.196306,0.04479 0.185643,0.0095 0.179319,0.03219 0.174163,0.0489 0.18137,0.02305 0.203833,0.05633 0.126749,-0.0066 0.217805,0.01445 0.191641,-0.0045 0.169682,-0.02698 0.188434,0.0028 0.137832,0.0172 0.176189,0.03451 0.211822,-0.0014 0.143823,0.01003 0.250413,0.01019 0.1493,0.0089 0.210402,0.01597 0.157134,0.01746 0.17684,-0.01126 z"
     id="path179"
     inkscape:path-effect="#path-effect183"
     inkscape:original-d="m 23.656399,61.923248 -3.103526,-0.331684 -3.488364,-0.8288 -3.488363,-0.8288 L 10.916875,58.191543 8.2576047,56.449123 6.2921385,54.892683 4.5322293,52.69322 2.9729105,49.373695 1.5338409,45.046977 0.58284477,40.654631 0.30669378,35.942508 0.04786624,31.525984 l -0.0229936,-4.5073 0.1492277,-4.146946 0.2996652,-2.703348 0.61558076,-2.8166 1.19446,-2.962864 1.144406,-2.434168 L 5.0149949,9.2240042 7.2292066,6.4671158 10.0513,4.1195369 12.427354,2.6848132 15.128142,1.6552184 18.272863,0.71882661 21.724276,0.1938104 l 3.11081,-0.17850222 3.300662,0.25995665 2.693703,0.38962548 2.724068,0.70553859 2.749587,0.8498066 3.598559,2.2679125 2.412503,2.2093775 1.942653,2.4225255 1.559335,2.528303 1.023277,2.521844 0.818143,2.016296 1.028762,3.608792 0.706903,3.757719 0.548061,3.522819 0.0617,3.90932 -0.248324,4.179009 -0.32126,3.10237 -0.549279,3.811626 -0.684111,3.469755 -1.043815,2.779355 -1.037442,1.855541 -1.273289,2.15571 -1.337044,1.682795 -1.491512,1.535163 -1.529387,1.574146 -2.22052,1.380742 -1.488956,0.925849 -1.784661,0.654345 -2.292917,0.840697 -4.575858,0.868697 -2.624792,0.100405 z m 2.75101,-12.052163 3.219104,-0.725017 1.633877,-0.742942 1.341038,-1.161313 1.375504,-1.225706 1.288696,-2.050809 1.000566,-3.423885 0.742692,-3.607032 0.279111,-3.183151 0.337388,-3.847765 -0.272184,-3.237936 -0.575121,-3.273136 -0.786363,-2.831385 -0.93932,-2.854913 -1.568622,-2.27453 -1.077397,-0.993093 -1.806763,-1.277072 -3.007886,-0.971886 -3.594009,-0.186801 -3.444847,0.921944 -3.061377,1.710454 -2.813344,2.927442 -1.421623,3.680317 -0.804187,4.333877 -0.222124,2.844215 -0.200254,2.564182 0.255165,3.267291 0.167213,2.141106 0.63731,4.077351 1.5885,3.936843 2.554418,2.717169 3.071211,1.707951 2.465441,0.76475 z"
     inkscape:export-filename="o_i_f.svg"
     inkscape:export-xdpi="96"
     inkscape:export-ydpi="96"
     sodipodi:nodetypes="cccccccccccccccccccccccccccccccccccccccccccccccccccccccccccccccccccccccccccccccccccccccccccc" /></svg>
