<?xml version="1.0" encoding="UTF-8" standalone="no"?>
<!-- Created with Inkscape (http://www.inkscape.org/) -->

<svg
   width="27.537102mm"
   height="16.676397mm"
   viewBox="0 0 27.537102 16.676397"
   version="1.1"
   id="svg5"
   xml:space="preserve"
   xmlns:inkscape="http://www.inkscape.org/namespaces/inkscape"
   xmlns:sodipodi="http://sodipodi.sourceforge.net/DTD/sodipodi-0.dtd"
   xmlns="http://www.w3.org/2000/svg"
   xmlns:svg="http://www.w3.org/2000/svg"><sodipodi:namedview
     id="namedview7"
     pagecolor="#505050"
     bordercolor="#eeeeee"
     borderopacity="1"
     inkscape:showpageshadow="0"
     inkscape:pageopacity="0"
     inkscape:pagecheckerboard="0"
     inkscape:deskcolor="#505050"
     inkscape:document-units="mm"
     showgrid="false" /><defs
     id="defs2"><inkscape:path-effect
       effect="roughen"
       id="path-effect8050"
       is_visible="true"
       lpeversion="1.2"
       method="size"
       max_segment_size="1.3"
       segments="9"
       displace_x="0.87;109051903"
       displace_y="0.8;1"
       global_randomize="0.2;1"
       handles="along"
       shift_nodes="true"
       fixed_displacement="false"
       spray_tool_friendly="false" /><style
       type="text/css"
       id="style8034">
</style></defs><path
     d="M 4.6204554,12.010343 3.8449375,12.337436 3.050091,12.77066 3.3130684,11.958894 3.4749635,11.191923 2.8081594,11.5987 2.1531861,12.023141 2.4353496,11.346967 2.6448953,10.784416 1.8991913,10.986971 1.1296025,11.202973 1.6723042,10.61384 2.2250551,10.022704 1.4069759,9.9020936 0.59420146,9.9133971 1.2533551,9.4792094 1.9782713,9.0431076 1.1390608,8.7931207 0.37182817,8.543141 1.1489296,8.2038641 1.8541248,7.7415257 1.122945,7.4559832 0.45487265,7.1638196 1.2212585,7.0082454 2.0096122,6.774827 1.2895352,6.2051415 0.5579461,5.6259784 1.4070453,5.6007278 2.1762813,5.5660338 1.602953,4.9617972 1.1793843,4.3753853 1.914568,4.4304052 2.6013212,4.6708353 2.3782198,4.038028 2.0607825,3.3985215 2.8054404,3.644883 3.6188742,3.8224236 3.2864776,2.6946924 4.0468653,2.8265272 4.8564879,3.1938795 4.5091672,2.0072461 5.0685491,2.3976706 5.8140883,2.870429 5.8965367,2.175348 5.9569403,1.5097396 6.475996,1.9052344 7.0091976,2.4534025 7.0948676,1.1977327 7.7571784,1.6404337 8.4296739,2.0867749 8.6824639,1.3489412 8.9014235,0.72230861 9.400702,1.3962113 9.778473,2.0281657 9.9889445,1.140382 10.204843,0.52918028 10.61083,1.2697562 l 0.562091,0.6910104 0.323705,-0.7732297 0.351982,-0.81147912 0.250128,0.78423832 0.348916,0.7489137 0.39473,-0.8049366 0.397931,-0.7109913 0.227279,0.7961813 0.356027,0.7953122 0.533846,-0.6436187 0.555835,-0.67323286 -0.100874,0.61193656 -0.07536,0.7728056 0.639848,-0.7988864 0.573668,-0.70627656 -0.05802,0.82278896 0.07563,0.7048838 0.786948,-0.6760536 0.731919,-0.64851447 0.0774,0.74203827 0.102871,0.6548703 0.746589,-0.5248296 0.717315,-0.5171196 -2.97e-4,0.7522164 -0.04294,0.7941647 0.92868,-0.5196427 0.673318,-0.610922 -0.226546,0.7334843 -0.146848,0.7707109 1.016131,-0.5033085 0.946176,-0.4994365 -0.356887,0.6670268 -0.341547,0.7705058 0.930875,-0.307876 0.782236,-0.445195 0.841587,-0.2805888 -0.516112,0.775818 -0.610083,0.8128565 1.171675,-0.2592794 1.091058,-0.1917598 -0.372366,0.6485983 -0.393697,0.5446579 0.856182,0.00218 0.850519,0.1063169 -0.660227,0.4418465 -0.585992,0.4051326 0.90293,0.1525054 1.038937,0.1438139 -0.859808,0.3665715 -0.854243,0.379799 0.78915,0.2496704 0.856142,0.2082763 -1.034604,0.1482842 -0.875759,0.1391288 0.768355,0.4669414 0.790262,0.4306913 -0.798471,0.044769 -0.73259,0.12191 0.547347,0.524973 0.615336,0.4394114 -0.957485,-0.1448305 -0.935986,-0.1320423 0.546065,0.6611185 0.490237,0.7431497 -0.879463,-0.283388 -0.756092,-0.314647 0.452348,0.70443 0.359783,0.686511 -0.787994,-0.111232 -0.843426,-0.177052 0.03919,0.717207 0.213959,0.70169 -1.157606,-0.850066 -0.0736,0.758994 -0.03777,0.764618 -0.474253,-0.50664 -0.540419,-0.53311 -0.04489,0.846685 -0.07452,0.830572 -0.529875,-0.6605 -0.463154,-0.668468 -0.280131,0.77827 -0.205706,0.83396 -0.450648,-0.711506 -0.30954,-0.755842 -0.213086,0.982394 -0.476264,0.854222 -0.20401,-0.741321 -0.239969,-0.810718 -0.403032,0.820636 -0.424723,0.822223 -0.262205,-0.757214 -0.279465,-0.741477 -0.321954,0.764243 -0.27984,0.612543 -0.266287,-0.694152 -0.334702,-0.732472 -0.285049,0.8785 -0.406851,0.878329 -0.18966,-0.870568 -0.16296,-0.878176 -0.369673,0.708251 -0.385404,0.779231 -0.174547,-0.810251 -0.106138,-0.831438 -0.387138,0.919279 -0.598621,0.90461 -0.179779,-0.942084 -0.117313,-0.888616 -0.350523,0.974303 -0.354179,0.977858 -0.182161,-0.912993 -0.02847,-0.897681 -0.4428214,0.972971 -0.5029264,0.96257 -0.1451429,-1.169992 -0.1946114,-1.106022 -0.3654442,0.81517 -0.3218354,0.921327 -0.2945682,-0.71329 -0.2378302,-0.707538 -1.0799873,0.521873 -1.0461233,0.548087 -1.12829,0.435289 -1.0544237,0.577771 -1.2716112,0.587557 -0.9489432,0.545655 0.6123414,-0.877472 0.6642476,-0.830985 0.6353706,-0.846092 0.562895,-0.827554 z"
     fill="#ffffff"
     stroke="#000000"
     stroke-miterlimit="10"
     pointer-events="all"
     id="path8038"
     style="fill:#000000;stroke:#000000;stroke-width:0.264583"
     inkscape:path-effect="#path-effect8050"
     inkscape:original-d="M 4.5673017,12.009237 2.9798018,12.752716 3.4904476,11.215487 2.2125101,12.009237 2.6966976,10.765695 1.135656,11.189028 2.2125101,10.022216 0.59590599,9.9693004 1.9876143,9.0406125 0.34190599,8.5379042 1.8447393,7.8499876 0.42657269,7.1594251 2.0140726,6.7863626 0.56944769,5.6486542 2.1860518,5.6221959 1.135656,4.3786543 2.6675934,4.6432376 2.0140726,3.3705918 3.6042184,3.8733001 3.2338018,2.6800293 4.7948434,3.1853834 4.5673017,2.0053418 5.7870309,2.8414251 5.9563642,1.5158626 6.9776559,2.494821 7.0914267,1.2777376 8.4249267,2.2037793 8.9355725,0.71946681 9.7848849,2.018571 10.18176,0.53425841 l 0.992188,1.43139589 0.682625,-1.59014584 0.621771,1.53722914 0.79375,-1.53722914 0.425979,1.59014584 1.190625,-1.32556249 -0.140229,1.40493749 1.304395,-1.51077089 -0.08467,1.59014589 1.529291,-1.37847919 0.17198,1.51077089 1.418166,-1.1668125 0.02646,1.5901458 1.616606,-1.1377083 -0.396875,1.4843124 2.01348,-1.0080624 -0.764646,1.4843124 2.550583,-1.0609791 -1.076854,1.5372291 2.270125,-0.4497916 -0.822854,1.3520208 1.701271,-0.026458 -1.190625,0.8466666 1.785937,0.2936875 -1.531937,0.7408333 1.502833,0.47625 -1.815042,0.2645834 1.590146,0.9286874 -1.645708,0.1322917 1.219729,1.0609786 -1.899708,-0.3439578 1.021291,1.4022907 -1.645708,-0.582083 0.764646,1.35202 -1.558396,-0.264583 0.169333,1.404937 -0.992187,-0.822854 -0.198438,1.510771 -1.021291,-1.034521 -0.08467,1.725084 -1.050399,-1.37848 -0.510645,1.616605 -0.709084,-1.457855 -0.709083,1.881188 -0.423333,-1.616604 -0.79375,1.643062 -0.53975,-1.510771 -0.624417,1.53723 -0.537104,-1.53723 -0.709083,1.69598 -0.396875,-1.69598 -0.738188,1.484313 -0.341312,-1.669521 -0.878417,1.801813 -0.367771,-1.801813 -0.709083,1.934104 L 10.4384,13.043757 9.5308789,14.977862 9.1048999,12.726257 8.451379,14.501612 7.9407332,13.043757 1.4187541,16.250507 Z" /></svg>
